DrBeverlin-tgt_Bold.ufo
<glyph name="exclam" format="2">
  <advance width="670"/>
  <unicode hex="0021"/>
  <outline>
    <contour>
      <point x="131.15" y="1603.22" type="curve" smooth="yes"/>
      <point x="131.15" y="1307.71"/>
      <point x="136.693" y="1012.12"/>
      <point x="136.693" y="716.548" type="curve" smooth="yes"/>
      <point x="136.431" y="525.129" type="line" smooth="yes"/>
      <point x="136.431" y="483.927"/>
      <point x="156.585" y="463.466"/>
      <point x="197.898" y="463.466" type="curve" smooth="yes"/>
      <point x="455.392" y="463.466" type="line" smooth="yes"/>
      <point x="496.683" y="463.466"/>
      <point x="516.857" y="483.921"/>
      <point x="516.857" y="525.11" type="curve" smooth="yes"/>
      <point x="516.617" y="716.549" type="line" smooth="yes"/>
      <point x="516.617" y="1012.14"/>
      <point x="521.694" y="1307.75"/>
      <point x="521.694" y="1603.29" type="curve" smooth="yes"/>
      <point x="521.694" y="1644.9"/>
      <point x="502.276" y="1665.48"/>
      <point x="460.234" y="1665.48" type="curve" smooth="yes"/>
      <point x="192.611" y="1665.48" type="line" smooth="yes"/>
      <point x="150.477" y="1665.48"/>
      <point x="131.15" y="1644.88"/>
    </contour>
    <contour>
      <point x="338.735" y="-84.097" type="curve" smooth="yes"/>
      <point x="464.736" y="-84.097"/>
      <point x="584.548" y="-19.2203"/>
      <point x="584.548" y="120.385" type="curve" smooth="yes"/>
      <point x="584.548" y="253.195"/>
      <point x="473.065" y="334.472"/>
      <point x="347.746" y="334.472" type="curve" smooth="yes"/>
      <point x="225.674" y="334.472"/>
      <point x="85.4518" y="256.887"/>
      <point x="85.4518" y="120.385" type="curve" smooth="yes"/>
      <point x="85.4518" y="-20.3129"/>
      <point x="213.683" y="-84.097"/>
    </contour>
  </outline>
</glyph>
<glyph name="quotedbl" format="2">
  <advance width="975"/>
  <unicode hex="0022"/>
  <outline>
    <contour>
      <point x="412.863" y="1595.92" type="curve" smooth="yes"/>
      <point x="156.551" y="1595.92" type="line" smooth="yes"/>
      <point x="113.446" y="1595.92"/>
      <point x="95.0757" y="1575.23"/>
      <point x="95.0757" y="1533.01" type="curve" smooth="yes"/>
      <point x="95.0757" y="1450.74"/>
      <point x="98.4628" y="1368.16"/>
      <point x="99.7433" y="1285.86" type="curve" smooth="yes"/>
      <point x="100.665" y="1226.63"/>
      <point x="99.0263" y="1166.42"/>
      <point x="102.088" y="1107.34" type="curve" smooth="yes"/>
      <point x="104.21" y="1066.4"/>
      <point x="121.027" y="1046.45"/>
      <point x="163.577" y="1046.45" type="curve" smooth="yes"/>
      <point x="403.589" y="1046.45" type="line" smooth="yes"/>
      <point x="446.107" y="1046.45"/>
      <point x="462.885" y="1066.4"/>
      <point x="465.193" y="1107.27" type="curve" smooth="yes"/>
      <point x="468.279" y="1161.93"/>
      <point x="467.244" y="1217.59"/>
      <point x="468.514" y="1272.4" type="curve" smooth="yes"/>
      <point x="470.53" y="1359.44"/>
      <point x="474.128" y="1446.79"/>
      <point x="474.128" y="1533.84" type="curve" smooth="yes"/>
      <point x="474.128" y="1575.43"/>
      <point x="454.975" y="1595.92"/>
    </contour>
    <contour>
      <point x="838.259" y="1595.92" type="curve" smooth="yes"/>
      <point x="582.663" y="1595.92" type="line" smooth="yes"/>
      <point x="541.789" y="1595.92"/>
      <point x="521.228" y="1575.55"/>
      <point x="521.228" y="1534.6" type="curve" smooth="yes"/>
      <point x="520.633" y="1107.94" type="line" smooth="yes"/>
      <point x="520.633" y="1066.87"/>
      <point x="540.964" y="1046.45"/>
      <point x="582.069" y="1046.45" type="curve" smooth="yes"/>
      <point x="820.429" y="1046.45" type="line" smooth="yes"/>
      <point x="861.969" y="1046.45"/>
      <point x="879.44" y="1066.12"/>
      <point x="882" y="1106.33" type="curve" smooth="yes"/>
      <point x="884.897" y="1151.85"/>
      <point x="885.015" y="1197.93"/>
      <point x="886.804" y="1243.54" type="curve" smooth="yes"/>
      <point x="890.569" y="1339.58"/>
      <point x="895.164" y="1435.57"/>
      <point x="899.622" y="1531.58" type="curve" smooth="yes"/>
      <point x="899.763" y="1537.37" type="line"/>
      <point x="899.763" y="1577.93"/>
      <point x="877.744" y="1595.92"/>
    </contour>
  </outline>
</glyph>
<glyph name="numbersign" format="2">
  <advance width="1534"/>
  <unicode hex="0023"/>
  <outline>
    <contour>
      <point x="719.643" y="1426.97" type="curve" smooth="yes"/>
      <point x="457.504" y="1426.97" type="line" smooth="yes"/>
      <point x="422.68" y="1426.97"/>
      <point x="403.713" y="1410.29"/>
      <point x="397.16" y="1376.48" type="curve" smooth="yes"/>
      <point x="381.013" y="1293.16"/>
      <point x="369.734" y="1188.4"/>
      <point x="349.765" y="1109.12" type="curve" smooth="yes"/>
      <point x="346.938" y="1097.9"/>
      <point x="341.795" y="1092.43"/>
      <point x="329.656" y="1092.43" type="curve" smooth="yes"/>
      <point x="192.338" y="1092.43" type="line" smooth="yes"/>
      <point x="155.087" y="1092.43"/>
      <point x="135.833" y="1074.44"/>
      <point x="131.701" y="1037.75" type="curve" smooth="yes"/>
      <point x="122.431" y="955.447"/>
      <point x="117.457" y="872.365"/>
      <point x="109.735" y="789.863" type="curve" smooth="yes"/>
      <point x="109.351" y="785.765"/>
      <point x="109.091" y="781.664"/>
      <point x="109.091" y="777.545" type="curve" smooth="yes"/>
      <point x="109.091" y="736.822"/>
      <point x="132.887" y="720.992"/>
      <point x="171.501" y="720.992" type="curve" smooth="yes"/>
      <point x="290.634" y="720.992" type="line" smooth="yes"/>
      <point x="295.981" y="720.992"/>
      <point x="304.189" y="720.019"/>
      <point x="304.189" y="712.773" type="curve" smooth="yes"/>
      <point x="304.189" y="701.09"/>
      <point x="292.619" y="686.065"/>
      <point x="280.889" y="686.065" type="curve" smooth="yes"/>
      <point x="139.002" y="686.065" type="line" smooth="yes"/>
      <point x="101.26" y="686.065"/>
      <point x="82.3588" y="667.724"/>
      <point x="77.4866" y="630.912" type="curve" smooth="yes"/>
      <point x="66.4474" y="547.508"/>
      <point x="54.9437" y="464.269"/>
      <point x="43.4239" y="380.931" type="curve" smooth="yes"/>
      <point x="42.6437" y="375.286"/>
      <point x="42.0819" y="369.636"/>
      <point x="42.0819" y="363.931" type="curve" smooth="yes"/>
      <point x="42.0819" y="257.187"/>
      <point x="239.282" y="348.536" name=".hr01"/>
      <point x="239.282" y="293.219" type="curve"/>
      <point x="238.714" y="286.968" type="line"/>
      <point x="229.183" y="215.152"/>
      <point x="209.568" y="143.997"/>
      <point x="195.792" y="72.8831" type="curve" smooth="yes"/>
      <point x="194.341" y="65.3924"/>
      <point x="193.2" y="57.9046"/>
      <point x="193.2" y="50.2532" type="curve" smooth="yes"/>
      <point x="193.2" y="11.7878"/>
      <point x="221.128" y="0"/>
      <point x="255.425" y="0" type="curve" smooth="yes"/>
      <point x="519.316" y="0" type="line" smooth="yes"/>
      <point x="555.946" y="0"/>
      <point x="574.608" y="17.8117"/>
      <point x="581.191" y="53.0911" type="curve" smooth="yes"/>
      <point x="596.091" y="132.947"/>
      <point x="609.895" y="213.863"/>
      <point x="626.968" y="293.231" type="curve" smooth="yes"/>
      <point x="629.452" y="304.776"/>
      <point x="635.018" y="310.579"/>
      <point x="647.305" y="310.579" type="curve" smooth="yes"/>
      <point x="745.193" y="310.579" type="line" smooth="yes"/>
      <point x="756.949" y="310.579"/>
      <point x="765.84" y="305.953"/>
      <point x="765.84" y="293.081" type="curve"/>
      <point x="765.323" y="287.08" type="line"/>
      <point x="756.124" y="214.633"/>
      <point x="738.03" y="142.798"/>
      <point x="725.975" y="70.7372" type="curve" smooth="yes"/>
      <point x="724.894" y="64.2778"/>
      <point x="724.083" y="57.8158"/>
      <point x="724.083" y="51.2545" type="curve" smooth="yes"/>
      <point x="724.083" y="12.7367"/>
      <point x="750.916" y="0"/>
      <point x="785.772" y="0" type="curve" smooth="yes"/>
      <point x="1048.78" y="0" type="line" smooth="yes"/>
      <point x="1085.65" y="0"/>
      <point x="1104.43" y="17.8983"/>
      <point x="1110.4" y="53.6059" type="curve" smooth="yes"/>
      <point x="1123.69" y="133.058"/>
      <point x="1134.08" y="213.968"/>
      <point x="1149.64" y="292.928" type="curve" smooth="yes"/>
      <point x="1151.95" y="304.686"/>
      <point x="1157.52" y="310.579"/>
      <point x="1169.99" y="310.579" type="curve" smooth="yes"/>
      <point x="1318.52" y="310.579" type="line" smooth="yes"/>
      <point x="1357.26" y="310.579"/>
      <point x="1376.11" y="329.45"/>
      <point x="1380.29" y="367.283" type="curve" smooth="yes"/>
      <point x="1389.51" y="450.804"/>
      <point x="1399.4" y="534.181"/>
      <point x="1408.97" y="617.659" type="curve" smooth="yes"/>
      <point x="1409.5" y="622.323"/>
      <point x="1409.87" y="626.992"/>
      <point x="1409.87" y="631.69" type="curve" smooth="yes"/>
      <point x="1409.87" y="671.16"/>
      <point x="1385.07" y="686.065"/>
      <point x="1348.19" y="686.065" type="curve" smooth="yes"/>
      <point x="1215.41" y="686.065" type="line" smooth="yes"/>
      <point x="1210" y="686.065"/>
      <point x="1201.01" y="687.211"/>
      <point x="1201.01" y="694.684" type="curve" smooth="yes"/>
      <point x="1201.01" y="705.803"/>
      <point x="1215.34" y="720.992"/>
      <point x="1226.13" y="720.992" type="curve" smooth="yes"/>
      <point x="1380.71" y="720.992" type="line" smooth="yes"/>
      <point x="1417.33" y="720.992"/>
      <point x="1436.55" y="738.644"/>
      <point x="1441.29" y="774.617" type="curve" smooth="yes"/>
      <point x="1452.18" y="857.122"/>
      <point x="1459.06" y="940.609"/>
      <point x="1467.62" y="1023.41" type="curve" smooth="yes"/>
      <point x="1468.08" y="1027.84"/>
      <point x="1468.39" y="1032.26"/>
      <point x="1468.39" y="1036.71" type="curve" smooth="yes"/>
      <point x="1468.39" y="1149.34"/>
      <point x="1260.61" y="1053.1"/>
      <point x="1260.61" y="1109.4" type="curve" smooth="yes"/>
      <point x="1260.61" y="1111.9"/>
      <point x="1261" y="1114.55"/>
      <point x="1261.46" y="1116.99" type="curve" smooth="yes"/>
      <point x="1276.23" y="1195.74"/>
      <point x="1294.63" y="1273.89"/>
      <point x="1310.62" y="1352.4" type="curve" smooth="yes"/>
      <point x="1312.23" y="1360.29"/>
      <point x="1313.44" y="1368.26"/>
      <point x="1313.44" y="1376.34" type="curve" smooth="yes"/>
      <point x="1313.44" y="1415.34"/>
      <point x="1285.14" y="1426.97"/>
      <point x="1250.44" y="1426.97" type="curve" smooth="yes"/>
      <point x="987.208" y="1426.97" type="line" smooth="yes"/>
      <point x="952.314" y="1426.97"/>
      <point x="933.488" y="1410.21"/>
      <point x="926.499" y="1376.52" type="curve" smooth="yes"/>
      <point x="913.45" y="1313.62"/>
      <point x="901.533" y="1250.3"/>
      <point x="889.571" y="1187.18" type="curve" smooth="yes"/>
      <point x="884.72" y="1161.57"/>
      <point x="881.506" y="1134.79"/>
      <point x="875.471" y="1109.53" type="curve" smooth="yes"/>
      <point x="872.73" y="1098.05"/>
      <point x="867.648" y="1092.43"/>
      <point x="855.227" y="1092.43" type="curve" smooth="yes"/>
      <point x="755.22" y="1092.43" type="line" smooth="yes"/>
      <point x="743.62" y="1092.43"/>
      <point x="734.364" y="1096.72"/>
      <point x="734.364" y="1109.61" type="curve" smooth="yes"/>
      <point x="734.364" y="1111.95"/>
      <point x="734.695" y="1114.42"/>
      <point x="735.096" y="1116.72" type="curve" smooth="yes"/>
      <point x="748.917" y="1195.98"/>
      <point x="766.029" y="1274.72"/>
      <point x="780.034" y="1353.95" type="curve" smooth="yes"/>
      <point x="781.292" y="1361.07"/>
      <point x="782.259" y="1368.18"/>
      <point x="782.259" y="1375.43" type="curve" smooth="yes"/>
      <point x="782.259" y="1414.55"/>
      <point x="754.891" y="1426.97"/>
    </contour>
    <contour>
      <point x="692.391" y="720.992" type="curve"/>
      <point x="830.811" y="720.992" type="line"/>
      <point x="825.881" y="709.056"/>
      <point x="819.844" y="697.629"/>
      <point x="814.123" y="686.065" type="curve"/>
      <point x="672.753" y="686.065" type="line"/>
      <point x="680.971" y="696.666"/>
      <point x="687.255" y="708.636"/>
    </contour>
  </outline>
</glyph>
<glyph name="dollar" format="2">
  <advance width="1102"/>
  <unicode hex="0024"/>
  <outline>
    <contour>
      <point x="384.435" y="-146.813" type="curve" smooth="yes"/>
      <point x="512.78" y="-146.813" type="line" smooth="yes"/>
      <point x="582.325" y="-146.813"/>
      <point x="569.077" y="-83.6055"/>
      <point x="569.027" y="-34.0942" type="curve" smooth="yes"/>
      <point x="569.014" y="-20.39"/>
      <point x="575.39" y="-15.5772"/>
      <point x="587.999" y="-13.3581" type="curve" smooth="yes"/>
      <point x="638.843" y="-4.40913"/>
      <point x="684.724" y="2.39315"/>
      <point x="732.855" y="22.8761" type="curve" smooth="yes"/>
      <point x="924.267" y="104.336"/>
      <point x="994.581" y="296.424"/>
      <point x="994.581" y="492.154" type="curve" smooth="yes"/>
      <point x="994.581" y="700.035"/>
      <point x="926.328" y="839.372"/>
      <point x="740.808" y="939.577" type="curve" smooth="yes"/>
      <point x="729.673" y="945.591"/>
      <point x="716.229" y="950.306"/>
      <point x="716.292" y="965.328" type="curve" smooth="yes"/>
      <point x="717.219" y="1184.9" type="line" smooth="yes"/>
      <point x="717.258" y="1194.1"/>
      <point x="719.284" y="1206.88"/>
      <point x="731.367" y="1206.88" type="curve" smooth="yes"/>
      <point x="762.155" y="1206.88"/>
      <point x="851.708" y="1131.25"/>
      <point x="887.851" y="1131.25" type="curve" smooth="yes"/>
      <point x="912.128" y="1131.25"/>
      <point x="926.239" y="1150.29"/>
      <point x="936.651" y="1169.7" type="curve" smooth="yes"/>
      <point x="977.062" y="1245.02"/>
      <point x="1018.39" y="1324.11"/>
      <point x="1054.95" y="1401.3" type="curve" smooth="yes"/>
      <point x="1059.58" y="1411.08"/>
      <point x="1063.31" y="1420.9"/>
      <point x="1063.31" y="1431.9" type="curve" smooth="yes"/>
      <point x="1063.31" y="1449.03"/>
      <point x="1054.53" y="1461.91"/>
      <point x="1042.44" y="1473.19" type="curve" smooth="yes"/>
      <point x="976.664" y="1534.51"/>
      <point x="893.998" y="1580.93"/>
      <point x="807.054" y="1603.73" type="curve" smooth="yes"/>
      <point x="784.491" y="1609.65"/>
      <point x="761.382" y="1612.05"/>
      <point x="738.941" y="1617.45" type="curve" smooth="yes"/>
      <point x="726.778" y="1620.37"/>
      <point x="720.766" y="1624.64"/>
      <point x="720.921" y="1638.25" type="curve" smooth="yes"/>
      <point x="721.191" y="1661.96"/>
      <point x="721.731" y="1685.69"/>
      <point x="721.731" y="1709.41" type="curve" smooth="yes"/>
      <point x="721.731" y="1750.98"/>
      <point x="702.288" y="1771.55"/>
      <point x="660.295" y="1771.55" type="curve" smooth="yes"/>
      <point x="534.186" y="1771.55" type="line" smooth="yes"/>
      <point x="453.531" y="1771.55"/>
      <point x="472.853" y="1689.47"/>
      <point x="473.145" y="1633.4" type="curve" smooth="yes"/>
      <point x="473.207" y="1621.48"/>
      <point x="467.774" y="1616.49"/>
      <point x="457.066" y="1613.04" type="curve" smooth="yes"/>
      <point x="413.854" y="1599.1"/>
      <point x="374.433" y="1587.36"/>
      <point x="334.62" y="1564.45" type="curve" smooth="yes"/>
      <point x="176.359" y="1473.4"/>
      <point x="114.472" y="1302.77"/>
      <point x="114.472" y="1127.59" type="curve" smooth="yes"/>
      <point x="114.592" y="1114.01" type="line" smooth="yes"/>
      <point x="117.952" y="923.859"/>
      <point x="172.938" y="800.53"/>
      <point x="319.631" y="679.382" type="curve" smooth="yes"/>
      <point x="324.977" y="674.967"/>
      <point x="328.141" y="669.757"/>
      <point x="328.124" y="662.641" type="curve" smooth="yes"/>
      <point x="327.636" y="463.877" type="line" smooth="yes"/>
      <point x="327.617" y="455.871"/>
      <point x="326.536" y="440.051"/>
      <point x="314.662" y="440.051" type="curve" smooth="yes"/>
      <point x="294.196" y="440.051"/>
      <point x="261.263" y="483.674"/>
      <point x="237.794" y="483.674" type="curve" smooth="yes"/>
      <point x="224.792" y="483.674"/>
      <point x="216.894" y="472.808"/>
      <point x="210.752" y="462.908" type="curve" smooth="yes"/>
      <point x="187.586" y="425.574"/>
      <point x="167.047" y="385.851"/>
      <point x="145.221" y="347.656" type="curve" smooth="yes"/>
      <point x="118.637" y="301.135"/>
      <point x="90.5937" y="255.122"/>
      <point x="64.9195" y="208.125" type="curve" smooth="yes"/>
      <point x="59.0971" y="197.467"/>
      <point x="54.286" y="186.207"/>
      <point x="54.286" y="173.831" type="curve" smooth="yes"/>
      <point x="54.286" y="153.972"/>
      <point x="66.1768" y="140.751"/>
      <point x="81.3026" y="129.616" type="curve" smooth="yes"/>
      <point x="132.489" y="91.9341"/>
      <point x="192.509" y="60.4231"/>
      <point x="251.248" y="36.4155" type="curve" smooth="yes"/>
      <point x="270.267" y="28.6422"/>
      <point x="290.555" y="23.2561"/>
      <point x="309.322" y="15.3639" type="curve" smooth="yes"/>
      <point x="319.176" y="11.2197"/>
      <point x="324.133" y="6.74981"/>
      <point x="323.991" y="-4.70274" type="curve" smooth="yes"/>
      <point x="323.66" y="-31.3298"/>
      <point x="322.999" y="-57.9823"/>
      <point x="322.999" y="-84.6111" type="curve" smooth="yes"/>
      <point x="322.999" y="-126.23"/>
      <point x="342.355" y="-146.813"/>
    </contour>
  </outline>
</glyph>
<glyph name="percent" format="2">
  <advance width="1778"/>
  <unicode hex="0025"/>
  <outline>
    <contour>
      <point x="417.717" y="705.025" type="curve" smooth="yes"/>
      <point x="695.056" y="705.025"/>
      <point x="785.862" y="920.402"/>
      <point x="785.862" y="1164.22" type="curve" smooth="yes"/>
      <point x="785.862" y="1412.9"/>
      <point x="686.366" y="1618.09"/>
      <point x="409.159" y="1618.09" type="curve" smooth="yes"/>
      <point x="143.078" y="1618.09"/>
      <point x="45.9281" y="1428.91"/>
      <point x="45.9281" y="1188.24" type="curve" smooth="yes"/>
      <point x="45.9281" y="939.988"/>
      <point x="129.149" y="705.025"/>
    </contour>
    <contour>
      <point x="410.42" y="1162.43" type="curve"/>
      <point x="411.89" y="1166.07"/>
      <point x="412.006" y="1170.21"/>
      <point x="412.006" y="1174.08" type="curve" smooth="yes"/>
      <point x="412.006" y="1214.99"/>
      <point x="398.289" y="1255.42"/>
      <point x="398.289" y="1296.57" type="curve" smooth="yes"/>
      <point x="398.289" y="1304.32"/>
      <point x="398.554" y="1325.58"/>
      <point x="411.548" y="1322.64" type="curve"/>
      <point x="412.613" y="1323.1"/>
      <point x="413.303" y="1323.24"/>
      <point x="414.465" y="1323.24" type="curve" smooth="yes"/>
      <point x="426.844" y="1323.24"/>
      <point x="426.524" y="1301.47"/>
      <point x="426.524" y="1293.15" type="curve" smooth="yes"/>
      <point x="426.524" y="1254.23"/>
      <point x="416.244" y="1215.8"/>
      <point x="416.244" y="1177.02" type="curve" smooth="yes"/>
      <point x="416.244" y="1172.27"/>
      <point x="416.208" y="1166.82"/>
      <point x="418.333" y="1162.43" type="curve"/>
      <point x="417.193" y="1158.85"/>
      <point x="416.981" y="1155.04"/>
      <point x="416.981" y="1151.31" type="curve" smooth="yes"/>
      <point x="416.981" y="1109.14"/>
      <point x="434.194" y="1067.77"/>
      <point x="434.194" y="1025.33" type="curve" smooth="yes"/>
      <point x="434.194" y="1016.93"/>
      <point x="433.419" y="999.539"/>
      <point x="421.412" y="999.539" type="curve" smooth="yes"/>
      <point x="404.566" y="999.539"/>
      <point x="404.817" y="1031.7"/>
      <point x="404.817" y="1042.77" type="curve" smooth="yes"/>
      <point x="404.817" y="1069.14"/>
      <point x="415.641" y="1143.43"/>
    </contour>
    <contour>
      <point x="1360.17" y="-90.4521" type="curve" smooth="yes"/>
      <point x="1629.95" y="-90.4521"/>
      <point x="1721.36" y="103.085"/>
      <point x="1721.36" y="344.607" type="curve" smooth="yes"/>
      <point x="1721.36" y="592.136"/>
      <point x="1634.32" y="822.782"/>
      <point x="1348.68" y="822.782" type="curve" smooth="yes"/>
      <point x="1076.42" y="822.782"/>
      <point x="982.655" y="614.781"/>
      <point x="982.655" y="373.238" type="curve" smooth="yes"/>
      <point x="982.655" y="122.309"/>
      <point x="1076.86" y="-90.4521"/>
    </contour>
    <contour>
      <point x="1347.52" y="369.559" type="curve"/>
      <point x="1349.05" y="373.141"/>
      <point x="1349.15" y="377.275"/>
      <point x="1349.15" y="381.098" type="curve" smooth="yes"/>
      <point x="1349.15" y="421.225"/>
      <point x="1335.8" y="460.89"/>
      <point x="1335.8" y="501.259" type="curve" smooth="yes"/>
      <point x="1335.8" y="509.55"/>
      <point x="1336.17" y="531.343"/>
      <point x="1350.07" y="527.371" type="curve"/>
      <point x="1351.2" y="527.832"/>
      <point x="1351.92" y="527.974"/>
      <point x="1353.13" y="527.974" type="curve" smooth="yes"/>
      <point x="1363.39" y="527.974"/>
      <point x="1363.28" y="510.662"/>
      <point x="1363.28" y="503.806" type="curve" smooth="yes"/>
      <point x="1363.28" y="463.478"/>
      <point x="1350.27" y="423.8"/>
      <point x="1350.27" y="383.606" type="curve" smooth="yes"/>
      <point x="1350.27" y="379.009"/>
      <point x="1350.31" y="373.766"/>
      <point x="1352.45" y="369.559" type="curve"/>
      <point x="1351.14" y="365.93"/>
      <point x="1350.89" y="361.993"/>
      <point x="1350.89" y="358.17" type="curve" smooth="yes"/>
      <point x="1350.89" y="314.604"/>
      <point x="1370.8" y="272.042"/>
      <point x="1370.8" y="228.193" type="curve" smooth="yes"/>
      <point x="1370.8" y="219.836"/>
      <point x="1369.78" y="204.139"/>
      <point x="1358.12" y="204.139" type="curve" smooth="yes"/>
      <point x="1340.92" y="204.139"/>
      <point x="1341.08" y="235.739"/>
      <point x="1341.08" y="247.153" type="curve" smooth="yes"/>
      <point x="1341.08" y="273.134"/>
      <point x="1352.68" y="351.785"/>
    </contour>
    <contour>
      <point x="1600.92" y="1615.06" type="curve" smooth="yes"/>
      <point x="1332.84" y="1615.06" type="line" smooth="yes"/>
      <point x="1311.49" y="1615.06"/>
      <point x="1296.79" y="1606.84"/>
      <point x="1283.67" y="1590.42" type="curve" smooth="yes"/>
      <point x="1234.54" y="1528.95"/>
      <point x="1189.2" y="1462.88"/>
      <point x="1142.83" y="1399.24" type="curve" smooth="yes"/>
      <point x="1037.95" y="1255.3"/>
      <point x="934.618" y="1110.25"/>
      <point x="831.613" y="964.969" type="curve" smooth="yes"/>
      <point x="694.272" y="771.261"/>
      <point x="557.547" y="577.109"/>
      <point x="418.546" y="384.584" type="curve" smooth="yes"/>
      <point x="349.06" y="288.341"/>
      <point x="277.185" y="193.712"/>
      <point x="208.026" y="97.2838" type="curve" smooth="yes"/>
      <point x="196.433" y="81.1198"/>
      <point x="180.502" y="58.6286"/>
      <point x="180.502" y="37.4325" type="curve" smooth="yes"/>
      <point x="180.502" y="1.02565"/>
      <point x="233.395" y="-1.19364"/>
      <point x="256.626" y="-1.47538" type="curve" smooth="yes"/>
      <point x="517.46" y="-4.63878" type="line" smooth="yes"/>
      <point x="539.374" y="-4.90455"/>
      <point x="554.317" y="3.46804"/>
      <point x="567.669" y="20.3898" type="curve" smooth="yes"/>
      <point x="616.552" y="82.3408"/>
      <point x="661.527" y="148.966"/>
      <point x="707.713" y="213.026" type="curve" smooth="yes"/>
      <point x="812.182" y="357.926"/>
      <point x="915.516" y="503.64"/>
      <point x="1018.94" y="649.288" type="curve" smooth="yes"/>
      <point x="1156.83" y="843.475"/>
      <point x="1294.84" y="1037.59"/>
      <point x="1435.83" y="1229.55" type="curve" smooth="yes"/>
      <point x="1506.32" y="1325.52"/>
      <point x="1579.38" y="1419.64"/>
      <point x="1649.85" y="1515.58" type="curve" smooth="yes"/>
      <point x="1661.86" y="1531.94"/>
      <point x="1679.01" y="1555.33"/>
      <point x="1679.01" y="1577.07" type="curve" smooth="yes"/>
      <point x="1679.01" y="1613.86"/>
      <point x="1623.66" y="1615.06"/>
    </contour>
  </outline>
</glyph>
<glyph name="ampersand" format="2">
  <advance width="1430"/>
  <unicode hex="0026"/>
  <outline>
    <contour>
      <point x="1051.43" y="620.108" type="curve" smooth="yes"/>
      <point x="1051.43" y="622.045"/>
      <point x="1052.03" y="624.806"/>
      <point x="1052.53" y="626.679" type="curve" smooth="yes"/>
      <point x="1069.01" y="688.394"/>
      <point x="1165.02" y="942.826"/>
      <point x="1165.02" y="979.191" type="curve" smooth="yes"/>
      <point x="1165.02" y="1017.29"/>
      <point x="1131.7" y="1025.47"/>
      <point x="1099.97" y="1025.47" type="curve" smooth="yes"/>
      <point x="837.021" y="1025.47" type="line" smooth="yes"/>
      <point x="818.447" y="1025.47"/>
      <point x="809.49" y="1053.74"/>
      <point x="801.77" y="1067.44" type="curve" smooth="yes"/>
      <point x="774.569" y="1115.7"/>
      <point x="745.298" y="1163.92"/>
      <point x="739.025" y="1220.09" type="curve" smooth="yes"/>
      <point x="736.961" y="1238.57"/>
      <point x="726.5" y="1256.3"/>
      <point x="726.5" y="1274.86" type="curve" smooth="yes"/>
      <point x="726.5" y="1283.71"/>
      <point x="730.605" y="1290.4"/>
      <point x="740.374" y="1290.4" type="curve" smooth="yes"/>
      <point x="782.397" y="1290.4"/>
      <point x="844.318" y="1196.18"/>
      <point x="865.951" y="1165.45" type="curve" smooth="yes"/>
      <point x="876.96" y="1149.81"/>
      <point x="891.698" y="1130.59"/>
      <point x="913.014" y="1130.59" type="curve" smooth="yes"/>
      <point x="933.665" y="1130.59"/>
      <point x="948.86" y="1148.28"/>
      <point x="960.568" y="1162.95" type="curve" smooth="yes"/>
      <point x="988.195" y="1197.59"/>
      <point x="1014.12" y="1233.97"/>
      <point x="1040.92" y="1269.28" type="curve" smooth="yes"/>
      <point x="1063.16" y="1298.57"/>
      <point x="1087.37" y="1327.41"/>
      <point x="1108.27" y="1357.59" type="curve" smooth="yes"/>
      <point x="1116.03" y="1368.79"/>
      <point x="1121.98" y="1379.47"/>
      <point x="1121.98" y="1393.54" type="curve" smooth="yes"/>
      <point x="1121.98" y="1404.88"/>
      <point x="1117.73" y="1414.97"/>
      <point x="1111.76" y="1424.39" type="curve" smooth="yes"/>
      <point x="1017.61" y="1572.88"/>
      <point x="841.928" y="1659.43"/>
      <point x="668.527" y="1659.43" type="curve" smooth="yes"/>
      <point x="438.149" y="1659.43"/>
      <point x="286.094" y="1509.32"/>
      <point x="286.094" y="1277.81" type="curve" smooth="yes"/>
      <point x="286.094" y="1179.46"/>
      <point x="327.43" y="1084.29"/>
      <point x="369.613" y="997.611" type="curve" smooth="yes"/>
      <point x="371.414" y="993.91"/>
      <point x="372.934" y="990.018"/>
      <point x="372.934" y="985.832" type="curve" smooth="yes"/>
      <point x="372.934" y="977.6"/>
      <point x="366.812" y="972.864"/>
      <point x="360.393" y="969.087" type="curve" smooth="yes"/>
      <point x="331.088" y="951.845"/>
      <point x="303.139" y="935.564"/>
      <point x="276.317" y="914.386" type="curve" smooth="yes"/>
      <point x="136.562" y="804.039"/>
      <point x="62.0733" y="640.371"/>
      <point x="58.5303" y="463.806" type="curve" smooth="yes"/>
      <point x="58.4292" y="452.87" type="line" smooth="yes"/>
      <point x="58.4292" y="181.965"/>
      <point x="245.944" y="-31.1388"/>
      <point x="523.189" y="-31.1388" type="curve" smooth="yes"/>
      <point x="642.989" y="-31.1388"/>
      <point x="730.193" y="5.99364"/>
      <point x="811.551" y="93.5811" type="curve" smooth="yes"/>
      <point x="816.292" y="98.6843"/>
      <point x="822.279" y="105.64"/>
      <point x="830.07" y="105.64" type="curve" smooth="yes"/>
      <point x="860.011" y="105.64"/>
      <point x="861.76" y="0"/>
      <point x="932.025" y="0" type="curve" smooth="yes"/>
      <point x="1295" y="0" type="line" smooth="yes"/>
      <point x="1322.33" y="0"/>
      <point x="1366.68" y="3.93247"/>
      <point x="1366.68" y="40.5664" type="curve" smooth="yes"/>
      <point x="1366.68" y="59.3071"/>
      <point x="1357.11" y="77.1849"/>
      <point x="1348.12" y="92.9999" type="curve" smooth="yes"/>
      <point x="1316.68" y="148.3"/>
      <point x="1051.43" y="603.595"/>
    </contour>
    <contour>
      <point x="621.538" y="472.454" type="line"/>
      <point x="605.174" y="436.645"/>
      <point x="633.018" y="361.353"/>
      <point x="572.982" y="361.353" type="curve" smooth="yes"/>
      <point x="508.412" y="361.353"/>
      <point x="503.618" y="467.994"/>
      <point x="503.618" y="514.392" type="curve" smooth="yes"/>
      <point x="503.614" y="574.708" type="line" smooth="yes"/>
      <point x="503.614" y="608.287"/>
      <point x="506.676" y="665.959"/>
      <point x="540.169" y="684.369" type="curve"/>
      <point x="668.296" y="435.161" type="line"/>
    </contour>
  </outline>
</glyph>
<glyph name="quotesingle" format="2">
  <advance width="594"/>
  <unicode hex="0027"/>
  <outline>
    <contour>
      <point x="431.135" y="1595.92" type="curve" smooth="yes"/>
      <point x="168.506" y="1595.92" type="line" smooth="yes"/>
      <point x="126.529" y="1595.92"/>
      <point x="107.046" y="1575.34"/>
      <point x="107.046" y="1533.77" type="curve" smooth="yes"/>
      <point x="107.046" y="1446.74"/>
      <point x="108.769" y="1359.63"/>
      <point x="109.409" y="1272.59" type="curve" smooth="yes"/>
      <point x="109.811" y="1217.78"/>
      <point x="108.316" y="1162.34"/>
      <point x="110.442" y="1107.63" type="curve" smooth="yes"/>
      <point x="112.039" y="1066.52"/>
      <point x="129.498" y="1046.45"/>
      <point x="171.906" y="1046.45" type="curve" smooth="yes"/>
      <point x="417.476" y="1046.45" type="line" smooth="yes"/>
      <point x="458.978" y="1046.45"/>
      <point x="476.5" y="1066.1"/>
      <point x="478.952" y="1106.31" type="curve" smooth="yes"/>
      <point x="481.731" y="1151.88"/>
      <point x="481.581" y="1198.09"/>
      <point x="482.999" y="1243.76" type="curve" smooth="yes"/>
      <point x="492.537" y="1532.39" type="line"/>
      <point x="492.61" y="1536.59" type="line" smooth="yes"/>
      <point x="492.61" y="1577.29"/>
      <point x="471.048" y="1595.92"/>
    </contour>
  </outline>
</glyph>
<glyph name="parenleft" format="2">
  <advance width="911"/>
  <unicode hex="0028"/>
  <outline>
    <contour>
      <point x="86.8357" y="642.156" type="curve" smooth="yes"/>
      <point x="86.8357" y="294.639"/>
      <point x="217.925" y="-96.7833"/>
      <point x="471.719" y="-342.107" type="curve" smooth="yes"/>
      <point x="483.006" y="-353.018"/>
      <point x="495.519" y="-360.292"/>
      <point x="511.633" y="-360.292" type="curve" smooth="yes"/>
      <point x="531.549" y="-360.292"/>
      <point x="745.825" y="-271.061"/>
      <point x="776.292" y="-256.343" type="curve" smooth="yes"/>
      <point x="797.004" y="-246.338"/>
      <point x="825.343" y="-233.863"/>
      <point x="825.343" y="-205.939" type="curve" smooth="yes"/>
      <point x="825.343" y="-185.157"/>
      <point x="810.635" y="-167.629"/>
      <point x="798.467" y="-152.529" type="curve" smooth="yes"/>
      <point x="769.01" y="-115.97"/>
      <point x="740.102" y="-80.682"/>
      <point x="714.284" y="-41.2941" type="curve" smooth="yes"/>
      <point x="581.37" y="161.48"/>
      <point x="526.254" y="402.692"/>
      <point x="526.254" y="643.116" type="curve" smooth="yes"/>
      <point x="526.254" y="883.6"/>
      <point x="580.543" y="1122.74"/>
      <point x="712.595" y="1326.13" type="curve" smooth="yes"/>
      <point x="738.176" y="1365.53"/>
      <point x="766.834" y="1400.92"/>
      <point x="795.982" y="1437.58" type="curve" smooth="yes"/>
      <point x="807.95" y="1452.63"/>
      <point x="822.272" y="1470.02"/>
      <point x="822.272" y="1490.58" type="curve" smooth="yes"/>
      <point x="822.272" y="1518.5"/>
      <point x="794.19" y="1530.89"/>
      <point x="773.447" y="1540.91" type="curve" smooth="yes"/>
      <point x="743.26" y="1555.48"/>
      <point x="530.869" y="1643.78"/>
      <point x="511.098" y="1643.78" type="curve" smooth="yes"/>
      <point x="495.047" y="1643.78"/>
      <point x="482.557" y="1636.56"/>
      <point x="471.297" y="1625.7" type="curve" smooth="yes"/>
      <point x="219.828" y="1383.24"/>
      <point x="86.8357" y="986.119"/>
    </contour>
  </outline>
</glyph>
<glyph name="parenright" format="2">
  <advance width="911"/>
  <unicode hex="0029"/>
  <outline>
    <contour>
      <point x="824.302" y="642.156" type="curve" smooth="yes"/>
      <point x="824.302" y="987.074"/>
      <point x="690.745" y="1380.82"/>
      <point x="440.172" y="1624.99" type="curve" smooth="yes"/>
      <point x="428.871" y="1636.01"/>
      <point x="416.333" y="1643.41"/>
      <point x="400.118" y="1643.41" type="curve" smooth="yes"/>
      <point x="378.94" y="1643.41"/>
      <point x="169.437" y="1553.2"/>
      <point x="138.246" y="1537.75" type="curve" smooth="yes"/>
      <point x="117.7" y="1527.57"/>
      <point x="89.9978" y="1514.97"/>
      <point x="89.9978" y="1487.29" type="curve" smooth="yes"/>
      <point x="89.9978" y="1466.61"/>
      <point x="104.54" y="1449.21"/>
      <point x="116.647" y="1434.17" type="curve" smooth="yes"/>
      <point x="145.878" y="1397.85"/>
      <point x="174.551" y="1362.81"/>
      <point x="200.142" y="1323.66" type="curve" smooth="yes"/>
      <point x="331.942" y="1122.05"/>
      <point x="385.835" y="882.64"/>
      <point x="385.835" y="643.877" type="curve" smooth="yes"/>
      <point x="385.835" y="402.618"/>
      <point x="330.324" y="161.068"/>
      <point x="197.366" y="-42.5981" type="curve" smooth="yes"/>
      <point x="171.56" y="-82.1283"/>
      <point x="142.666" y="-117.605"/>
      <point x="113.254" y="-154.347" type="curve" smooth="yes"/>
      <point x="101.17" y="-169.442"/>
      <point x="86.6084" y="-186.941"/>
      <point x="86.6084" y="-207.644" type="curve" smooth="yes"/>
      <point x="86.6084" y="-235.649"/>
      <point x="115.035" y="-248.036"/>
      <point x="135.82" y="-257.986" type="curve" smooth="yes"/>
      <point x="166.164" y="-272.512"/>
      <point x="379.87" y="-360.542"/>
      <point x="399.697" y="-360.542" type="curve" smooth="yes"/>
      <point x="415.552" y="-360.542"/>
      <point x="427.986" y="-353.496"/>
      <point x="439.196" y="-342.836" type="curve" smooth="yes"/>
      <point x="694.536" y="-100.02"/>
      <point x="824.302" y="295.986"/>
    </contour>
  </outline>
</glyph>
<glyph name="asterisk" format="2">
  <advance width="1004"/>
  <unicode hex="002A"/>
  <outline>
    <contour>
      <point x="408.873" y="935.583" type="curve" smooth="yes"/>
      <point x="590.868" y="935.583" type="line" smooth="yes"/>
      <point x="647.82" y="935.583"/>
      <point x="602.274" y="1016.65"/>
      <point x="640.418" y="1016.65" type="curve" smooth="yes"/>
      <point x="678.691" y="1016.65"/>
      <point x="749.035" y="981.153"/>
      <point x="789.672" y="981.153" type="curve" smooth="yes"/>
      <point x="811.643" y="981.153"/>
      <point x="827.181" y="993.566"/>
      <point x="838.21" y="1011.68" type="curve" smooth="yes"/>
      <point x="854.085" y="1037.76"/>
      <point x="925.652" y="1149.03"/>
      <point x="925.652" y="1171.04" type="curve" smooth="yes"/>
      <point x="925.652" y="1219.78"/>
      <point x="790.823" y="1211.56"/>
      <point x="790.823" y="1238.13" type="curve" smooth="yes"/>
      <point x="790.823" y="1265.59"/>
      <point x="932.727" y="1258.59"/>
      <point x="932.727" y="1311.05" type="curve" smooth="yes"/>
      <point x="932.727" y="1334.38"/>
      <point x="872.072" y="1430.08"/>
      <point x="856.79" y="1456.11" type="curve" smooth="yes"/>
      <point x="845.302" y="1475.67"/>
      <point x="829.716" y="1488.65"/>
      <point x="806.151" y="1488.65" type="curve" smooth="yes"/>
      <point x="765.574" y="1488.65"/>
      <point x="685.944" y="1453.32"/>
      <point x="648.639" y="1453.32" type="curve" smooth="yes"/>
      <point x="623.774" y="1453.32"/>
      <point x="634.645" y="1501.3"/>
      <point x="634.645" y="1517.83" type="curve" smooth="yes"/>
      <point x="634.645" y="1541.39"/>
      <point x="619.464" y="1551.62"/>
      <point x="597.298" y="1551.62" type="curve" smooth="yes"/>
      <point x="413.082" y="1551.62" type="line" smooth="yes"/>
      <point x="364.942" y="1551.62"/>
      <point x="374.768" y="1508.43"/>
      <point x="374.768" y="1473.92" type="curve" smooth="yes"/>
      <point x="374.768" y="1462.82"/>
      <point x="371.256" y="1452.84"/>
      <point x="358.5" y="1452.84" type="curve" smooth="yes"/>
      <point x="318.769" y="1452.84"/>
      <point x="245.258" y="1490.51"/>
      <point x="203.533" y="1490.51" type="curve" smooth="yes"/>
      <point x="181.298" y="1490.51"/>
      <point x="165.81" y="1477.71"/>
      <point x="154.997" y="1459.22" type="curve" smooth="yes"/>
      <point x="140.702" y="1434.78"/>
      <point x="76.7633" y="1329.63"/>
      <point x="76.7633" y="1309.11" type="curve" smooth="yes"/>
      <point x="76.7633" y="1264.09"/>
      <point x="205.322" y="1267.66"/>
      <point x="205.322" y="1241.33" type="curve" smooth="yes"/>
      <point x="205.322" y="1215.39"/>
      <point x="76.9261" y="1221.16"/>
      <point x="76.9261" y="1179.06" type="curve" smooth="yes"/>
      <point x="76.9261" y="1160.09"/>
      <point x="150.73" y="1043.5"/>
      <point x="165.511" y="1019.14" type="curve" smooth="yes"/>
      <point x="176.77" y="1000.59"/>
      <point x="192.602" y="988.28"/>
      <point x="215.014" y="988.28" type="curve" smooth="yes"/>
      <point x="254.459" y="988.28"/>
      <point x="324.494" y="1020.27"/>
      <point x="360.468" y="1020.27" type="curve" smooth="yes"/>
      <point x="400.073" y="1020.27"/>
      <point x="348.019" y="935.583"/>
    </contour>
  </outline>
</glyph>
<glyph name="plus" format="2">
  <advance width="1108"/>
  <unicode hex="002B"/>
  <outline>
    <contour>
      <point x="357.627" y="714.553" type="line" smooth="yes"/>
      <point x="357.643" y="701.105"/>
      <point x="350.595" y="694.048"/>
      <point x="337.147" y="694.048" type="curve" smooth="yes"/>
      <point x="163.747" y="694.048" type="line" smooth="yes"/>
      <point x="122.844" y="694.048"/>
      <point x="102.246" y="673.63"/>
      <point x="102.246" y="632.654" type="curve" smooth="yes"/>
      <point x="102.246" y="549.37"/>
      <point x="100.556" y="466.078"/>
      <point x="100.556" y="382.805" type="curve" smooth="yes"/>
      <point x="100.556" y="341.191"/>
      <point x="120.015" y="320.578"/>
      <point x="162.054" y="320.578" type="curve" smooth="yes"/>
      <point x="335.928" y="320.578" type="line" smooth="yes"/>
      <point x="349.453" y="320.578"/>
      <point x="356.502" y="313.48"/>
      <point x="356.407" y="299.955" type="curve" smooth="yes"/>
      <point x="356.116" y="258.387"/>
      <point x="355.534" y="216.807"/>
      <point x="355.534" y="175.239" type="curve" smooth="yes"/>
      <point x="355.534" y="133.872"/>
      <point x="375.35" y="113.368"/>
      <point x="416.972" y="113.368" type="curve" smooth="yes"/>
      <point x="680.112" y="113.368" type="line" smooth="yes"/>
      <point x="721.507" y="113.368"/>
      <point x="741.739" y="133.894"/>
      <point x="741.55" y="175.215" type="curve" smooth="yes"/>
      <point x="740.725" y="299.963" type="line" smooth="yes"/>
      <point x="740.635" y="313.482"/>
      <point x="747.684" y="320.578"/>
      <point x="761.204" y="320.578" type="curve" smooth="yes"/>
      <point x="934.116" y="320.578" type="line" smooth="yes"/>
      <point x="976.128" y="320.578"/>
      <point x="995.612" y="341.185"/>
      <point x="995.612" y="382.784" type="curve" smooth="yes"/>
      <point x="995.612" y="466.065"/>
      <point x="993.966" y="549.362"/>
      <point x="993.966" y="632.653" type="curve" smooth="yes"/>
      <point x="993.966" y="673.63"/>
      <point x="973.373" y="694.048"/>
      <point x="932.467" y="694.048" type="curve" smooth="yes"/>
      <point x="760.052" y="694.048" type="line" smooth="yes"/>
      <point x="746.605" y="694.048"/>
      <point x="739.557" y="701.105"/>
      <point x="739.572" y="714.551" type="curve" smooth="yes"/>
      <point x="739.725" y="849.113" type="line" smooth="yes"/>
      <point x="739.725" y="890.203"/>
      <point x="719.415" y="910.622"/>
      <point x="678.285" y="910.622" type="curve" smooth="yes"/>
      <point x="418.906" y="910.622" type="line" smooth="yes"/>
      <point x="377.77" y="910.622"/>
      <point x="357.466" y="890.202"/>
      <point x="357.466" y="849.109" type="curve" smooth="yes"/>
    </contour>
  </outline>
</glyph>
<glyph name="comma" format="2">
  <advance width="709"/>
  <unicode hex="002C"/>
  <outline>
    <contour>
      <point x="539.966" y="192.511" type="curve" smooth="yes"/>
      <point x="311.632" y="192.511" type="line" smooth="yes"/>
      <point x="286.16" y="192.511"/>
      <point x="269.851" y="181.731"/>
      <point x="257.417" y="159.973" type="curve" smooth="yes"/>
      <point x="231.296" y="114.266"/>
      <point x="207.67" y="66.6891"/>
      <point x="182.655" y="20.3247" type="curve" smooth="yes"/>
      <point x="147.933" y="-44.0318"/>
      <point x="111.795" y="-107.567"/>
      <point x="76.7563" y="-171.729" type="curve" smooth="yes"/>
      <point x="68.0955" y="-187.588"/>
      <point x="58.9053" y="-205.239"/>
      <point x="58.9053" y="-223.826" type="curve" smooth="yes"/>
      <point x="58.9053" y="-260.71"/>
      <point x="102.795" y="-264.787"/>
      <point x="130.494" y="-264.787" type="curve" smooth="yes"/>
      <point x="340.719" y="-264.787" type="line" smooth="yes"/>
      <point x="364.903" y="-264.787"/>
      <point x="380.319" y="-255.033"/>
      <point x="393.276" y="-235.127" type="curve" smooth="yes"/>
      <point x="422.862" y="-189.673"/>
      <point x="449.552" y="-141.484"/>
      <point x="477.349" y="-94.8647" type="curve" smooth="yes"/>
      <point x="515.963" y="-30.1026"/>
      <point x="555.547" y="34.373"/>
      <point x="592.858" y="99.8812" type="curve" smooth="yes"/>
      <point x="601.836" y="115.643"/>
      <point x="611.454" y="133.354"/>
      <point x="611.454" y="152.054" type="curve" smooth="yes"/>
      <point x="611.454" y="188.534"/>
      <point x="567.208" y="192.511"/>
    </contour>
  </outline>
</glyph>
<glyph name="hyphen" format="2">
  <advance width="950"/>
  <unicode hex="002D"/>
  <outline>
    <contour>
      <point x="182.42" y="407.487" type="curve" smooth="yes"/>
      <point x="182.42" y="366.101"/>
      <point x="202.261" y="345.571"/>
      <point x="243.898" y="345.571" type="curve" smooth="yes"/>
      <point x="697.236" y="345.571" type="line" smooth="yes"/>
      <point x="738.855" y="345.571"/>
      <point x="758.713" y="366.097"/>
      <point x="758.713" y="407.472" type="curve" smooth="yes"/>
      <point x="758.713" y="491.826"/>
      <point x="757.776" y="576.186"/>
      <point x="757.776" y="660.543" type="curve" smooth="yes"/>
      <point x="757.776" y="701.569"/>
      <point x="737.297" y="721.99"/>
      <point x="696.298" y="721.99" type="curve" smooth="yes"/>
      <point x="244.866" y="721.99" type="line" smooth="yes"/>
      <point x="203.867" y="721.99"/>
      <point x="183.387" y="701.568"/>
      <point x="183.387" y="660.543" type="curve" smooth="yes"/>
      <point x="183.387" y="576.19"/>
      <point x="182.42" y="491.835"/>
    </contour>
  </outline>
</glyph>
<glyph name="period" format="2">
  <advance width="709"/>
  <unicode hex="002E"/>
  <outline>
    <contour>
      <point x="136.057" y="205.92" type="curve" smooth="yes"/>
      <point x="136.057" y="88.8018"/>
      <point x="237.899" y="0"/>
      <point x="352.061" y="0" type="curve" smooth="yes"/>
      <point x="465.821" y="0"/>
      <point x="573.069" y="88.0934"/>
      <point x="573.069" y="206.154" type="curve" smooth="yes"/>
      <point x="573.069" y="321.75"/>
      <point x="467.214" y="422.052"/>
      <point x="352.658" y="422.052" type="curve" smooth="yes"/>
      <point x="237.037" y="422.052"/>
      <point x="136.057" y="321.456"/>
    </contour>
  </outline>
</glyph>
<glyph name="slash" format="2">
  <advance width="768"/>
  <unicode hex="002F"/>
  <outline>
    <contour>
      <point x="745.455" y="1632.2" type="curve" smooth="yes"/>
      <point x="490.591" y="1632.2" type="line" smooth="yes"/>
      <point x="457.608" y="1632.2"/>
      <point x="442.416" y="1617.83"/>
      <point x="431.69" y="1588.13" type="curve" smooth="yes"/>
      <point x="408.513" y="1523.98"/>
      <point x="392.549" y="1454.09"/>
      <point x="373.597" y="1388.38" type="curve" smooth="yes"/>
      <point x="339.966" y="1271.78"/>
      <point x="306.738" y="1155.06"/>
      <point x="273.575" y="1038.33" type="curve" smooth="yes"/>
      <point x="178.8" y="704.715"/>
      <point x="82.0763" y="371.945"/>
      <point x="-16.3901" y="39.4128" type="curve" smooth="yes"/>
      <point x="-19.4915" y="28.9391"/>
      <point x="-21.9507" y="18.1482"/>
      <point x="-21.9507" y="7.16024" type="curve" smooth="yes"/>
      <point x="-21.9507" y="-31.4493"/>
      <point x="10.2932" y="-40.1823"/>
      <point x="42.4595" y="-40.1823" type="curve" smooth="yes"/>
      <point x="292" y="-40.1823" type="line" smooth="yes"/>
      <point x="324.969" y="-40.1823"/>
      <point x="340.166" y="-25.8149"/>
      <point x="350.892" y="3.866" type="curve" smooth="yes"/>
      <point x="374.083" y="68.0444"/>
      <point x="390.049" y="137.972"/>
      <point x="408.996" y="203.712" type="curve" smooth="yes"/>
      <point x="442.618" y="320.374"/>
      <point x="475.828" y="437.154"/>
      <point x="509.064" y="553.926" type="curve" smooth="yes"/>
      <point x="604.075" y="887.738"/>
      <point x="701.938" y="1220.12"/>
      <point x="804.123" y="1551.8" type="curve" smooth="yes"/>
      <point x="807.463" y="1562.64"/>
      <point x="810.16" y="1573.83"/>
      <point x="810.16" y="1585.25" type="curve" smooth="yes"/>
      <point x="810.16" y="1623.81"/>
      <point x="777.329" y="1632.2"/>
    </contour>
  </outline>
</glyph>
<glyph name="zero" format="2">
  <advance width="1356"/>
  <unicode hex="0030"/>
  <outline>
    <contour>
      <point x="675.002" y="4.01666" type="curve" smooth="yes"/>
      <point x="1070.48" y="4.01666"/>
      <point x="1307.7" y="194.857"/>
      <point x="1307.7" y="603.422" type="curve" smooth="yes"/>
      <point x="1307.7" y="1043.55"/>
      <point x="1093.66" y="1219.32"/>
      <point x="664.922" y="1219.32" type="curve" smooth="yes"/>
      <point x="228.584" y="1219.32"/>
      <point x="48.2853" y="1037.24"/>
      <point x="48.2853" y="601.606" type="curve" smooth="yes"/>
      <point x="48.2853" y="185.479"/>
      <point x="270.646" y="4.01666"/>
    </contour>
    <contour>
      <point x="675.945" y="366.509" type="curve" smooth="yes"/>
      <point x="510.338" y="366.509"/>
      <point x="457.029" y="462.372"/>
      <point x="457.029" y="615.21" type="curve" smooth="yes"/>
      <point x="457.029" y="768.53"/>
      <point x="516.344" y="853.598"/>
      <point x="677.418" y="853.598" type="curve" smooth="yes"/>
      <point x="833.138" y="853.598"/>
      <point x="899.942" y="774.076"/>
      <point x="899.942" y="622.196" type="curve" smooth="yes"/>
      <point x="899.942" y="466.69"/>
      <point x="844.849" y="366.509"/>
    </contour>
  </outline>
</glyph>
<glyph name="one" format="2">
  <advance width="786"/>
  <unicode hex="0031"/>
  <outline>
    <contour>
      <point x="29.38" y="1141.24" type="curve" smooth="yes"/>
      <point x="29.38" y="1057.85"/>
      <point x="31.3135" y="974.432"/>
      <point x="31.3135" y="891.029" type="curve" smooth="yes"/>
      <point x="31.3135" y="850.149"/>
      <point x="52.0619" y="829.769"/>
      <point x="92.8019" y="829.769" type="curve" smooth="yes"/>
      <point x="216.382" y="829.769" type="line" smooth="yes"/>
      <point x="229.851" y="829.769"/>
      <point x="236.86" y="822.797"/>
      <point x="236.86" y="809.315" type="curve" smooth="yes"/>
      <point x="236.908" y="717.025" type="line" smooth="yes"/>
      <point x="236.908" y="498.657"/>
      <point x="234.517" y="280.284"/>
      <point x="234.517" y="61.9289" type="curve" smooth="yes"/>
      <point x="234.517" y="20.5238"/>
      <point x="254.294" y="0"/>
      <point x="295.976" y="0" type="curve" smooth="yes"/>
      <point x="621.585" y="0" type="line" smooth="yes"/>
      <point x="663.809" y="0"/>
      <point x="683.057" y="20.6283"/>
      <point x="683.057" y="62.3364" type="curve" smooth="yes"/>
      <point x="683.057" y="280.642"/>
      <point x="678.69" y="499.009"/>
      <point x="678.69" y="717.36" type="curve" smooth="yes"/>
      <point x="678.69" y="858.708"/>
      <point x="680.528" y="1000.06"/>
      <point x="680.528" y="1141.4" type="curve" smooth="yes"/>
      <point x="680.528" y="1182.89"/>
      <point x="660.88" y="1203.45"/>
      <point x="619.051" y="1203.45" type="curve" smooth="yes"/>
      <point x="90.8648" y="1203.45" type="line" smooth="yes"/>
      <point x="48.8276" y="1203.45"/>
      <point x="29.38" y="1182.85"/>
    </contour>
  </outline>
</glyph>
<glyph name="two" format="2">
  <advance width="1122"/>
  <unicode hex="0032"/>
  <outline>
    <contour>
      <point x="224.341" y="0" type="curve" smooth="yes"/>
      <point x="964.031" y="0" type="line" smooth="yes"/>
      <point x="1007.07" y="0"/>
      <point x="1025.52" y="20.6822"/>
      <point x="1025.52" y="62.8725" type="curve" smooth="yes"/>
      <point x="1025.52" y="125.334"/>
      <point x="1026.33" y="210.166"/>
      <point x="1021.79" y="270.977" type="curve" smooth="yes"/>
      <point x="1015.32" y="357.49"/>
      <point x="903.717" y="291.754"/>
      <point x="903.717" y="331.046" type="curve" smooth="yes"/>
      <point x="903.717" y="337.505"/>
      <point x="907.169" y="343.646"/>
      <point x="910.247" y="349.053" type="curve" smooth="yes"/>
      <point x="988.618" y="486.746"/>
      <point x="1059.9" y="635.611"/>
      <point x="1059.9" y="797.832" type="curve" smooth="yes"/>
      <point x="1059.9" y="1069.2"/>
      <point x="799.06" y="1217.58"/>
      <point x="554.687" y="1217.58" type="curve" smooth="yes"/>
      <point x="531.901" y="1217.54" type="line" smooth="yes"/>
      <point x="283.708" y="1217.54"/>
      <point x="46.3819" y="1068.97"/>
      <point x="46.3819" y="798.83" type="curve" smooth="yes"/>
      <point x="46.3819" y="667.963"/>
      <point x="114.468" y="522.125"/>
      <point x="226.984" y="450.847" type="curve" smooth="yes"/>
      <point x="236.182" y="445.02"/>
      <point x="245.926" y="440.717"/>
      <point x="257.021" y="440.717" type="curve" smooth="yes"/>
      <point x="273.35" y="440.717"/>
      <point x="284.533" y="448.77"/>
      <point x="296.31" y="458.963" type="curve" smooth="yes"/>
      <point x="340.998" y="497.637"/>
      <point x="398.651" y="554.495"/>
      <point x="439.921" y="597.436" type="curve" smooth="yes"/>
      <point x="453.087" y="611.135"/>
      <point x="464.176" y="624.904"/>
      <point x="464.176" y="644.912" type="curve" smooth="yes"/>
      <point x="464.176" y="683.369"/>
      <point x="424.417" y="708.978"/>
      <point x="424.417" y="767.602" type="curve" smooth="yes"/>
      <point x="424.417" y="826.937"/>
      <point x="468.541" y="895.648"/>
      <point x="534.464" y="895.648" type="curve" smooth="yes"/>
      <point x="622.831" y="895.648"/>
      <point x="638.832" y="838.521"/>
      <point x="638.832" y="762.709" type="curve" smooth="yes"/>
      <point x="638.832" y="465.625"/>
      <point x="144.77" y="113.058"/>
      <point x="144.77" y="35.3751" type="curve" smooth="yes"/>
      <point x="144.77" y="1.4988"/>
      <point x="201.747" y="0"/>
    </contour>
  </outline>
</glyph>
<glyph name="three" format="2">
  <advance width="1028"/>
  <unicode hex="0033"/>
  <outline>
    <contour>
      <point x="850.643" y="1202.45" type="curve" smooth="yes"/>
      <point x="208.911" y="1202.45" type="line" smooth="yes"/>
      <point x="166.873" y="1202.45"/>
      <point x="147.426" y="1181.84"/>
      <point x="147.426" y="1140.23" type="curve" smooth="yes"/>
      <point x="147.426" y="1085.95"/>
      <point x="147.012" y="1030.96"/>
      <point x="148.88" y="976.736" type="curve" smooth="yes"/>
      <point x="150.294" y="935.69"/>
      <point x="168.256" y="915.614"/>
      <point x="210.368" y="915.614" type="curve" smooth="yes"/>
      <point x="391.833" y="915.614" type="line" smooth="yes"/>
      <point x="401.119" y="915.614"/>
      <point x="414.671" y="913.936"/>
      <point x="414.671" y="901.476" type="curve" smooth="yes"/>
      <point x="414.671" y="881.784"/>
      <point x="240.78" y="549.899"/>
      <point x="240.78" y="539.557" type="curve" smooth="yes"/>
      <point x="240.78" y="525.138"/>
      <point x="269.296" y="532.363"/>
      <point x="278.607" y="532.363" type="curve" smooth="yes"/>
      <point x="345.977" y="532.363"/>
      <point x="490.367" y="517.096"/>
      <point x="490.367" y="424.513" type="curve" smooth="yes"/>
      <point x="490.367" y="373.141"/>
      <point x="444.145" y="352.282"/>
      <point x="399.1" y="352.282" type="curve" smooth="yes"/>
      <point x="321.796" y="352.282"/>
      <point x="302.746" y="405.835"/>
      <point x="265.812" y="405.835" type="curve" smooth="yes"/>
      <point x="245.48" y="405.835"/>
      <point x="230.961" y="386.262"/>
      <point x="220.124" y="371.664" type="curve" smooth="yes"/>
      <point x="172.268" y="307.195"/>
      <point x="123.764" y="241.097"/>
      <point x="78.7269" y="174.669" type="curve" smooth="yes"/>
      <point x="71.0033" y="163.277"/>
      <point x="64.1627" y="150.9"/>
      <point x="64.1627" y="136.713" type="curve" smooth="yes"/>
      <point x="64.1627" y="118.334"/>
      <point x="75.7605" y="105.649"/>
      <point x="89.9035" y="95.5995" type="curve" smooth="yes"/>
      <point x="187.537" y="26.2235"/>
      <point x="353.974" y="-14.0605"/>
      <point x="472.983" y="-14.0605" type="curve" smooth="yes"/>
      <point x="717.824" y="-14.0605"/>
      <point x="940.593" y="146.488"/>
      <point x="940.593" y="406.071" type="curve" smooth="yes"/>
      <point x="940.593" y="571.88"/>
      <point x="870.728" y="679.383"/>
      <point x="724.749" y="753.87" type="curve" smooth="yes"/>
      <point x="717.805" y="757.414"/>
      <point x="710.288" y="761.88"/>
      <point x="710.288" y="770.813" type="curve" smooth="yes"/>
      <point x="710.288" y="799.976"/>
      <point x="922.281" y="1112.57"/>
      <point x="922.281" y="1161.93" type="curve" smooth="yes"/>
      <point x="922.281" y="1198.5"/>
      <point x="877.954" y="1202.45"/>
    </contour>
  </outline>
</glyph>
<glyph name="four" format="2">
  <advance width="1235"/>
  <unicode hex="0034"/>
  <outline>
    <contour>
      <point x="643.604" y="0" type="curve" smooth="yes"/>
      <point x="965.265" y="0" type="line" smooth="yes"/>
      <point x="1008.11" y="0"/>
      <point x="1026.75" y="20.6049"/>
      <point x="1026.75" y="62.7003" type="curve" smooth="yes"/>
      <point x="1026.75" y="110.376"/>
      <point x="1024.36" y="158.096"/>
      <point x="1024.36" y="205.779" type="curve" smooth="yes"/>
      <point x="1024.36" y="266.057"/>
      <point x="1186.34" y="170.843"/>
      <point x="1186.34" y="289.202" type="curve" smooth="yes"/>
      <point x="1186.34" y="332.405"/>
      <point x="1186.26" y="376.447"/>
      <point x="1184.44" y="419.591" type="curve" smooth="yes"/>
      <point x="1182.71" y="460.46"/>
      <point x="1164.97" y="480.443"/>
      <point x="1122.92" y="480.443" type="curve" smooth="yes"/>
      <point x="1041.74" y="480.443" type="line" smooth="yes"/>
      <point x="1026.58" y="480.443"/>
      <point x="1022.71" y="487.085"/>
      <point x="1021.27" y="500.784" type="curve" smooth="yes"/>
      <point x="1018.98" y="522.552"/>
      <point x="1021.01" y="546.98"/>
      <point x="1020.91" y="569.021" type="curve" smooth="yes"/>
      <point x="1020.6" y="716.869" type="line" smooth="yes"/>
      <point x="1020.6" y="862.631"/>
      <point x="1023.35" y="1008.4"/>
      <point x="1023.35" y="1154.14" type="curve" smooth="yes"/>
      <point x="1023.35" y="1195.83"/>
      <point x="1004.04" y="1216.46"/>
      <point x="961.858" y="1216.46" type="curve" smooth="yes"/>
      <point x="612.359" y="1216.46" type="line" smooth="yes"/>
      <point x="587.992" y="1216.46"/>
      <point x="571.083" y="1205.96"/>
      <point x="558.846" y="1185.18" type="curve" smooth="yes"/>
      <point x="488.424" y="1065.59"/>
      <point x="422.85" y="942.479"/>
      <point x="355.003" y="821.36" type="curve" smooth="yes"/>
      <point x="260.923" y="653.409"/>
      <point x="164.911" y="486.639"/>
      <point x="69.9454" y="319.206" type="curve" smooth="yes"/>
      <point x="61.0627" y="303.545"/>
      <point x="51.7571" y="285.739"/>
      <point x="51.7571" y="267.216" type="curve" smooth="yes"/>
      <point x="51.7571" y="230.582"/>
      <point x="95.7787" y="226.548"/>
      <point x="123.181" y="226.548" type="curve" smooth="yes"/>
      <point x="561.904" y="226.548" type="line" smooth="yes"/>
      <point x="575.424" y="226.548"/>
      <point x="582.404" y="219.557"/>
      <point x="582.384" y="206.036" type="curve" smooth="yes"/>
      <point x="582.164" y="61.5333" type="line" smooth="yes"/>
      <point x="582.164" y="20.4251"/>
      <point x="602.441" y="0"/>
    </contour>
    <contour>
      <point x="420.073" y="480.443" type="line"/>
      <point x="474.496" y="576.854"/>
      <point x="528.601" y="673.444"/>
      <point x="582.715" y="770.029" type="curve"/>
      <point x="582.718" y="734.685" type="line"/>
      <point x="582.719" y="703.097" type="line"/>
      <point x="582.648" y="480.443" type="line"/>
    </contour>
  </outline>
</glyph>
<glyph name="five" format="2">
  <advance width="1092"/>
  <unicode hex="0035"/>
  <outline>
    <contour>
      <point x="542.228" y="-14.1143" type="curve" smooth="yes"/>
      <point x="776.014" y="-14.1143"/>
      <point x="1030.73" y="153.531"/>
      <point x="1030.73" y="406.53" type="curve" smooth="yes"/>
      <point x="1030.73" y="592.621"/>
      <point x="882.242" y="712.681"/>
      <point x="715.223" y="756.601" type="curve" smooth="yes"/>
      <point x="664.809" y="769.858"/>
      <point x="617.374" y="772.324"/>
      <point x="566.121" y="777.582" type="curve" smooth="yes"/>
      <point x="534.314" y="780.846"/>
      <point x="545.327" y="830.392" name=".hr01"/>
      <point x="545.162" y="854.061" type="curve" smooth="yes"/>
      <point x="545.067" y="867.655"/>
      <point x="552.047" y="874.684"/>
      <point x="565.641" y="874.684" type="curve" smooth="yes"/>
      <point x="847.41" y="874.684" type="line" smooth="yes"/>
      <point x="889.888" y="874.684"/>
      <point x="907.23" y="894.753"/>
      <point x="908.898" y="935.873" type="curve" smooth="yes"/>
      <point x="911.641" y="1003.5"/>
      <point x="910.597" y="1072.5"/>
      <point x="910.597" y="1140.24" type="curve" smooth="yes"/>
      <point x="910.597" y="1181.84"/>
      <point x="891.147" y="1202.45"/>
      <point x="849.112" y="1202.45" type="curve" smooth="yes"/>
      <point x="231.031" y="1202.45" type="line" smooth="yes"/>
      <point x="188.964" y="1202.45"/>
      <point x="169.545" y="1181.84"/>
      <point x="169.545" y="1140.21" type="curve" smooth="yes"/>
      <point x="169.545" y="948.903"/>
      <point x="171.636" y="757.564"/>
      <point x="171.636" y="566.231" type="curve" smooth="yes"/>
      <point x="171.636" y="534.643"/>
      <point x="178.521" y="500.248"/>
      <point x="217.091" y="500.248" type="curve" smooth="yes"/>
      <point x="230.27" y="500.248"/>
      <point x="242.81" y="503.979"/>
      <point x="255.221" y="507.974" type="curve" smooth="yes"/>
      <point x="309.242" y="525.364"/>
      <point x="360.86" y="540.349"/>
      <point x="418.235" y="540.349" type="curve" smooth="yes"/>
      <point x="477.811" y="540.349"/>
      <point x="580.447" y="530.552"/>
      <point x="580.447" y="450.483" type="curve" smooth="yes"/>
      <point x="580.447" y="373.889"/>
      <point x="482.154" y="356.566"/>
      <point x="423.189" y="356.566" type="curve" smooth="yes"/>
      <point x="376.733" y="356.566"/>
      <point x="332.859" y="365.216"/>
      <point x="288.862" y="379.507" type="curve" smooth="yes"/>
      <point x="278.784" y="382.781"/>
      <point x="268.792" y="385.6"/>
      <point x="258.091" y="385.6" type="curve" smooth="yes"/>
      <point x="236.312" y="385.6"/>
      <point x="223.077" y="375.203"/>
      <point x="209.91" y="359.018" type="curve" smooth="yes"/>
      <point x="168.971" y="308.695"/>
      <point x="118.381" y="239.893"/>
      <point x="81.9815" y="186.07" type="curve" smooth="yes"/>
      <point x="73.8876" y="174.102"/>
      <point x="66.3289" y="161.592"/>
      <point x="66.3289" y="146.592" type="curve" smooth="yes"/>
      <point x="66.3289" y="126.709"/>
      <point x="79.2766" y="114.482"/>
      <point x="94.5051" y="104.049" type="curve" smooth="yes"/>
      <point x="209.415" y="25.3243"/>
      <point x="404.238" y="-14.1143"/>
    </contour>
  </outline>
</glyph>
<glyph name="six" format="2">
  <advance width="1223"/>
  <unicode hex="0036"/>
  <outline>
    <contour>
      <point x="622.354" y="-14.0605" type="curve" smooth="yes"/>
      <point x="898.547" y="-14.0605"/>
      <point x="1183.15" y="123.065"/>
      <point x="1183.15" y="435.363" type="curve" smooth="yes"/>
      <point x="1183.15" y="697.662"/>
      <point x="999.072" y="822.812"/>
      <point x="752.634" y="822.812" type="curve" smooth="yes"/>
      <point x="701.105" y="822.812"/>
      <point x="651.629" y="815.222"/>
      <point x="602.853" y="798.559" type="curve" smooth="yes"/>
      <point x="588.449" y="793.639"/>
      <point x="559.666" y="782.148"/>
      <point x="543.688" y="782.148" type="curve" smooth="yes"/>
      <point x="540.379" y="782.148"/>
      <point x="535.513" y="782.812"/>
      <point x="535.513" y="787.227" type="curve" smooth="yes"/>
      <point x="535.513" y="798.906"/>
      <point x="569.144" y="831.049"/>
      <point x="574.561" y="836.523" type="curve" smooth="yes"/>
      <point x="631.339" y="893.896"/>
      <point x="700.699" y="930.202"/>
      <point x="774.562" y="960.322" type="curve" smooth="yes"/>
      <point x="796.916" y="969.437"/>
      <point x="838.789" y="984.803"/>
      <point x="838.789" y="1015.11" type="curve" smooth="yes"/>
      <point x="838.789" y="1038.16"/>
      <point x="816.174" y="1059.68"/>
      <point x="801.272" y="1074.37" type="curve" smooth="yes"/>
      <point x="750.195" y="1124.73"/>
      <point x="680.005" y="1192.27"/>
      <point x="625.91" y="1237.93" type="curve" smooth="yes"/>
      <point x="613.936" y="1248.04"/>
      <point x="602.721" y="1255.19"/>
      <point x="586.459" y="1255.19" type="curve" smooth="yes"/>
      <point x="577" y="1255.19"/>
      <point x="567.899" y="1252.46"/>
      <point x="559.43" y="1248.41" type="curve" smooth="yes"/>
      <point x="272.124" y="1111.08"/>
      <point x="41.8103" y="855.416"/>
      <point x="41.8103" y="522.887" type="curve" smooth="yes"/>
      <point x="41.8103" y="179.369"/>
      <point x="293.899" y="-14.0605"/>
    </contour>
    <contour>
      <point x="609.346" y="326.577" type="curve" smooth="yes"/>
      <point x="559.04" y="326.577"/>
      <point x="493.849" y="345.695"/>
      <point x="493.849" y="406.53" type="curve" smooth="yes"/>
      <point x="493.849" y="415.563"/>
      <point x="494.101" y="425.513"/>
      <point x="494.903" y="434.502" type="curve" smooth="yes"/>
      <point x="500.177" y="493.59"/>
      <point x="568.984" y="505.406"/>
      <point x="616.976" y="505.406" type="curve" smooth="yes"/>
      <point x="671.073" y="505.406"/>
      <point x="728.254" y="490.755"/>
      <point x="728.254" y="425.511" type="curve" smooth="yes"/>
      <point x="728.254" y="356.961"/>
      <point x="671.001" y="326.577"/>
    </contour>
  </outline>
</glyph>
<glyph name="seven" format="2">
  <advance width="1053"/>
  <unicode hex="0037"/>
  <outline>
    <contour>
      <point x="940.927" y="1202.45" type="curve" smooth="yes"/>
      <point x="115.249" y="1202.45" type="line" smooth="yes"/>
      <point x="72.9095" y="1202.45"/>
      <point x="53.7524" y="1181.78"/>
      <point x="53.7524" y="1140.01" type="curve" smooth="yes"/>
      <point x="53.7524" y="1059.85"/>
      <point x="51.9031" y="975.752"/>
      <point x="56.2224" y="895.955" type="curve" smooth="yes"/>
      <point x="58.4505" y="854.79"/>
      <point x="74.6372" y="834.759"/>
      <point x="117.725" y="834.759" type="curve" smooth="yes"/>
      <point x="372.216" y="834.759" type="line" smooth="yes"/>
      <point x="382.256" y="834.759"/>
      <point x="394.165" y="832.366"/>
      <point x="394.165" y="819.758" type="curve" smooth="yes"/>
      <point x="394.165" y="815.363"/>
      <point x="392.871" y="811.054"/>
      <point x="391.349" y="806.98" type="curve" smooth="yes"/>
      <point x="300.909" y="564.867"/>
      <point x="202.378" y="325.986"/>
      <point x="109.681" y="84.8182" type="curve" smooth="yes"/>
      <point x="104.717" y="71.9045"/>
      <point x="100.176" y="58.4598"/>
      <point x="100.176" y="44.4362" type="curve" smooth="yes"/>
      <point x="100.176" y="6.72169"/>
      <point x="136.376" y="0"/>
      <point x="166.723" y="0" type="curve" smooth="yes"/>
      <point x="524.942" y="0" type="line" smooth="yes"/>
      <point x="554.069" y="0"/>
      <point x="571.156" y="12.9044"/>
      <point x="582.223" y="39.2758" type="curve" smooth="yes"/>
      <point x="601.392" y="84.9516"/>
      <point x="618" y="132.23"/>
      <point x="635.721" y="178.517" type="curve" smooth="yes"/>
      <point x="755.328" y="492.109" type="line" smooth="yes"/>
      <point x="835.036" y="701.201"/>
      <point x="917.909" y="909.038"/>
      <point x="998.067" y="1117.92" type="curve" smooth="yes"/>
      <point x="1002.96" y="1130.67"/>
      <point x="1007.34" y="1144.04"/>
      <point x="1007.34" y="1157.88" type="curve" smooth="yes"/>
      <point x="1007.34" y="1195.62"/>
      <point x="971.374" y="1202.45"/>
    </contour>
  </outline>
</glyph>
<glyph name="eight" format="2">
  <advance width="1073"/>
  <unicode hex="0038"/>
  <outline>
    <contour>
      <point x="23.7587" y="407.529" type="curve" smooth="yes"/>
      <point x="23.7587" y="146.143"/>
      <point x="286.475" y="-14.1831"/>
      <point x="524.49" y="-14.1831" type="curve" smooth="yes"/>
      <point x="546.652" y="-14.1628" type="line" smooth="yes"/>
      <point x="788.337" y="-14.1628"/>
      <point x="1047.19" y="148.255"/>
      <point x="1047.19" y="411.8" type="curve" smooth="yes"/>
      <point x="1047.19" y="617.27"/>
      <point x="873.214" y="705.87"/>
      <point x="873.214" y="729.721" type="curve" smooth="yes"/>
      <point x="873.214" y="736.179"/>
      <point x="877.474" y="741.205"/>
      <point x="881.528" y="745.698" type="curve" smooth="yes"/>
      <point x="939.962" y="810.461"/>
      <point x="954.144" y="861.974"/>
      <point x="954.144" y="948.564" type="curve" smooth="yes"/>
      <point x="954.144" y="1129.13"/>
      <point x="703.045" y="1217.55"/>
      <point x="554.525" y="1217.55" type="curve" smooth="yes"/>
      <point x="385.345" y="1217.55"/>
      <point x="147.647" y="1131.76"/>
      <point x="147.647" y="928.594" type="curve" smooth="yes"/>
      <point x="147.647" y="854.941"/>
      <point x="159.27" y="806.242"/>
      <point x="202.07" y="745.788" type="curve" smooth="yes"/>
      <point x="205.175" y="741.402"/>
      <point x="208.17" y="736.758"/>
      <point x="208.17" y="731.156" type="curve" smooth="yes"/>
      <point x="208.17" y="708.481"/>
      <point x="23.7587" y="612.665"/>
    </contour>
    <contour>
      <point x="446.041" y="427.842" type="curve" smooth="yes"/>
      <point x="446.041" y="483.234"/>
      <point x="471.503" y="536.431"/>
      <point x="533.923" y="536.431" type="curve" smooth="yes"/>
      <point x="603.19" y="536.431"/>
      <point x="616.828" y="478.063"/>
      <point x="616.828" y="420.517" type="curve" smooth="yes"/>
      <point x="616.828" y="363.304"/>
      <point x="600.222" y="305.58"/>
      <point x="532.122" y="305.58" type="curve" smooth="yes"/>
      <point x="462.989" y="305.58"/>
      <point x="446.041" y="370.739"/>
    </contour>
    <contour>
      <point x="456.468" y="895.648" type="curve" smooth="yes"/>
      <point x="456.468" y="945.594"/>
      <point x="475.132" y="990.509"/>
      <point x="532.138" y="990.509" type="curve" smooth="yes"/>
      <point x="588.602" y="990.509"/>
      <point x="606.841" y="946.07"/>
      <point x="606.841" y="896.646" type="curve" smooth="yes"/>
      <point x="606.841" y="849.85"/>
      <point x="590.755" y="803.82"/>
      <point x="536.078" y="803.82" type="curve" smooth="yes"/>
      <point x="481.698" y="803.82"/>
      <point x="456.468" y="845.646"/>
    </contour>
  </outline>
</glyph>
<glyph name="nine" format="2">
  <advance width="1223"/>
  <unicode hex="0039"/>
  <outline>
    <contour>
      <point x="483.948" y="389.545" type="curve" smooth="yes"/>
      <point x="512.606" y="389.545"/>
      <point x="540.314" y="392.252"/>
      <point x="568.548" y="396.979" type="curve" smooth="yes"/>
      <point x="580.256" y="398.939"/>
      <point x="592.279" y="401.898"/>
      <point x="604.242" y="401.898" type="curve" smooth="yes"/>
      <point x="605.613" y="401.898"/>
      <point x="611.575" y="402.157"/>
      <point x="611.575" y="399.186" type="curve" smooth="yes"/>
      <point x="611.575" y="393.012"/>
      <point x="580.668" y="374.429"/>
      <point x="578.669" y="373.156" type="curve" smooth="yes"/>
      <point x="498.743" y="322.246"/>
      <point x="414.258" y="292.62"/>
      <point x="325.357" y="262.324" type="curve" smooth="yes"/>
      <point x="303.281" y="254.801"/>
      <point x="261.288" y="242.419"/>
      <point x="261.288" y="211.939" type="curve" smooth="yes"/>
      <point x="261.288" y="189.145"/>
      <point x="283.29" y="168.445"/>
      <point x="297.566" y="153.904" type="curve" smooth="yes"/>
      <point x="327.846" y="123.06"/>
      <point x="361.102" y="94.1518"/>
      <point x="392.677" y="64.567" type="curve" smooth="yes"/>
      <point x="419.689" y="39.2576"/>
      <point x="446.223" y="12.1272"/>
      <point x="474.392" y="-11.8044" type="curve" smooth="yes"/>
      <point x="486.495" y="-22.0868"/>
      <point x="497.87" y="-29.285"/>
      <point x="514.334" y="-29.285" type="curve" smooth="yes"/>
      <point x="524.199" y="-29.285"/>
      <point x="533.581" y="-26.3801"/>
      <point x="542.431" y="-22.2248" type="curve" smooth="yes"/>
      <point x="872.827" y="132.899"/>
      <point x="1196.32" y="347.082"/>
      <point x="1196.32" y="752.925" type="curve" smooth="yes"/>
      <point x="1196.32" y="1062.08"/>
      <point x="893.617" y="1245.57"/>
      <point x="612.015" y="1245.57" type="curve" smooth="yes"/>
      <point x="338.122" y="1245.57"/>
      <point x="42.4635" y="1094.04"/>
      <point x="42.4635" y="785.856" type="curve" smooth="yes"/>
      <point x="42.4635" y="537.081"/>
      <point x="249.599" y="389.545"/>
    </contour>
    <contour>
      <point x="600.279" y="668.102" type="curve" smooth="yes"/>
      <point x="525.484" y="668.102"/>
      <point x="465.759" y="706.068"/>
      <point x="465.759" y="786.485" type="curve" smooth="yes"/>
      <point x="465.759" y="874.637"/>
      <point x="533.535" y="906.705"/>
      <point x="612.04" y="906.705" type="curve" smooth="yes"/>
      <point x="667.201" y="906.705"/>
      <point x="745.613" y="874.078"/>
      <point x="745.613" y="808.81" type="curve" smooth="yes"/>
      <point x="745.613" y="793.274"/>
      <point x="748.087" y="772.926"/>
      <point x="745.581" y="757.914" type="curve" smooth="yes"/>
      <point x="736.316" y="702.413"/>
      <point x="649.402" y="668.102"/>
    </contour>
  </outline>
</glyph>
<glyph name="colon" format="2">
  <advance width="627"/>
  <unicode hex="003A"/>
  <outline>
    <contour>
      <point x="93.9923" y="859.712" type="curve" smooth="yes"/>
      <point x="93.9923" y="742.372"/>
      <point x="192.297" y="651.137"/>
      <point x="308.169" y="651.137" type="curve" smooth="yes"/>
      <point x="423.486" y="651.137"/>
      <point x="527.25" y="741.494"/>
      <point x="527.25" y="859.712" type="curve" smooth="yes"/>
      <point x="527.25" y="973.374"/>
      <point x="421.018" y="1071.39"/>
      <point x="309.04" y="1071.39" type="curve" smooth="yes"/>
      <point x="195.92" y="1071.39"/>
      <point x="93.9923" y="973.726"/>
    </contour>
    <contour>
      <point x="92.084" y="205.897" type="curve" smooth="yes"/>
      <point x="92.084" y="88.7892"/>
      <point x="193.909" y="0"/>
      <point x="308.062" y="0" type="curve" smooth="yes"/>
      <point x="421.831" y="0"/>
      <point x="529.096" y="88.1054"/>
      <point x="529.096" y="206.176" type="curve" smooth="yes"/>
      <point x="529.096" y="321.767"/>
      <point x="423.246" y="422.052"/>
      <point x="308.699" y="422.052" type="curve" smooth="yes"/>
      <point x="193.069" y="422.052"/>
      <point x="92.084" y="321.438"/>
    </contour>
  </outline>
</glyph>
<glyph name="semicolon" format="2">
  <advance width="627"/>
  <unicode hex="003B"/>
  <outline>
    <contour>
      <point x="191.336" y="765.898" type="curve" smooth="yes"/>
      <point x="191.336" y="648.361"/>
      <point x="291.817" y="555.323"/>
      <point x="407.901" y="555.323" type="curve" smooth="yes"/>
      <point x="525.527" y="555.323"/>
      <point x="608.611" y="651.711"/>
      <point x="608.611" y="765.898" type="curve" smooth="yes"/>
      <point x="608.611" y="877.162"/>
      <point x="519.477" y="976.387"/>
      <point x="405.811" y="976.387" type="curve" smooth="yes"/>
      <point x="295.475" y="976.387"/>
      <point x="191.336" y="877.17"/>
    </contour>
    <contour>
      <point x="457.514" y="193.513" type="curve" smooth="yes"/>
      <point x="231.761" y="193.513" type="line" smooth="yes"/>
      <point x="204.939" y="193.513"/>
      <point x="188.525" y="182.054"/>
      <point x="176.384" y="158.682" type="curve" smooth="yes"/>
      <point x="152.555" y="112.809"/>
      <point x="131.381" y="65.0613"/>
      <point x="108.782" y="18.5255" type="curve" smooth="yes"/>
      <point x="77.4052" y="-46.0852"/>
      <point x="44.7464" y="-110.053"/>
      <point x="13.2215" y="-174.573" type="curve" smooth="yes"/>
      <point x="5.93135" y="-189.493"/>
      <point x="-1.32725" y="-205.708"/>
      <point x="-1.32725" y="-222.671" type="curve" smooth="yes"/>
      <point x="-1.32725" y="-259.729"/>
      <point x="39.6697" y="-264.787"/>
      <point x="68.2597" y="-264.787" type="curve" smooth="yes"/>
      <point x="280.22" y="-264.787" type="line" smooth="yes"/>
      <point x="305.697" y="-264.787"/>
      <point x="322.019" y="-254.002"/>
      <point x="334.446" y="-232.231" type="curve" smooth="yes"/>
      <point x="393.821" y="-128.209"/>
      <point x="458.072" y="-3.37269"/>
      <point x="511.947" y="104.244" type="curve" smooth="yes"/>
      <point x="519.302" y="118.935"/>
      <point x="526.602" y="134.97"/>
      <point x="526.602" y="151.763" type="curve" smooth="yes"/>
      <point x="526.602" y="188.412"/>
      <point x="485.756" y="193.513"/>
    </contour>
  </outline>
</glyph>
<glyph name="less" format="2">
  <advance width="911"/>
  <unicode hex="003C"/>
  <outline>
    <contour>
      <point x="777.765" y="958.272" type="curve" smooth="yes"/>
      <point x="777.765" y="983.532"/>
      <point x="776.211" y="1035.7"/>
      <point x="739.842" y="1035.7" type="curve" smooth="yes"/>
      <point x="718.599" y="1035.7"/>
      <point x="696.084" y="1019.93"/>
      <point x="679.685" y="1008.08" type="curve" smooth="yes"/>
      <point x="572.352" y="930.542"/>
      <point x="467.076" y="849.699"/>
      <point x="360.988" y="770.443" type="curve" smooth="yes"/>
      <point x="273.665" y="705.205"/>
      <point x="184.678" y="641.468"/>
      <point x="98.6019" y="574.647" type="curve" smooth="yes"/>
      <point x="83.151" y="562.653"/>
      <point x="65.2997" y="546.708"/>
      <point x="65.2997" y="525.324" type="curve" smooth="yes"/>
      <point x="65.2997" y="503.963"/>
      <point x="83.117" y="488.021"/>
      <point x="98.5503" y="476.032" type="curve" smooth="yes"/>
      <point x="184.967" y="408.9"/>
      <point x="274.493" y="344.985"/>
      <point x="362.429" y="279.808" type="curve" smooth="yes"/>
      <point x="469.269" y="200.619"/>
      <point x="575.586" y="120.09"/>
      <point x="684.036" y="43.1395" type="curve" smooth="yes"/>
      <point x="700.466" y="31.4815"/>
      <point x="722.846" y="16.1188"/>
      <point x="743.963" y="16.1188" type="curve" smooth="yes"/>
      <point x="779.109" y="16.1188"/>
      <point x="781.579" y="64.5407"/>
      <point x="781.579" y="89.4914" type="curve" smooth="yes"/>
      <point x="781.579" y="197.855"/>
      <point x="778.147" y="306.263"/>
      <point x="778.147" y="414.644" type="curve" smooth="yes"/>
      <point x="778.147" y="435.397"/>
      <point x="823.823" y="491.784"/>
      <point x="823.823" y="525.267" type="curve" smooth="yes"/>
      <point x="823.823" y="564.281"/>
      <point x="780.212" y="602.106"/>
      <point x="777.17" y="636.992" type="curve" smooth="yes"/>
      <point x="774.921" y="662.786"/>
      <point x="777.096" y="690.949"/>
      <point x="777.096" y="716.975" type="curve" smooth="yes"/>
      <point x="777.096" y="797.408"/>
      <point x="777.765" y="877.841"/>
    </contour>
  </outline>
</glyph>
<glyph name="equal" format="2">
  <advance width="1079"/>
  <unicode hex="003D"/>
  <outline>
    <contour>
      <point x="105.707" y="875.719" type="curve" smooth="yes"/>
      <point x="106.001" y="637.993" type="line" smooth="yes"/>
      <point x="106.001" y="596.774"/>
      <point x="126.169" y="576.285"/>
      <point x="167.5" y="576.285" type="curve" smooth="yes"/>
      <point x="910.656" y="576.285" type="line" smooth="yes"/>
      <point x="951.986" y="576.285"/>
      <point x="972.154" y="596.774"/>
      <point x="972.154" y="637.992" type="curve" smooth="yes"/>
      <point x="972.447" y="875.721" type="line" smooth="yes"/>
      <point x="972.447" y="917.055"/>
      <point x="952.486" y="937.58"/>
      <point x="910.95" y="937.58" type="curve" smooth="yes"/>
      <point x="167.205" y="937.58" type="line" smooth="yes"/>
      <point x="125.666" y="937.58"/>
      <point x="105.707" y="917.055"/>
    </contour>
    <contour>
      <point x="102.08" y="207.963" type="curve" smooth="yes"/>
      <point x="102.08" y="166.034"/>
      <point x="121.019" y="145.437"/>
      <point x="163.57" y="145.437" type="curve" smooth="yes"/>
      <point x="914.568" y="145.437" type="line" smooth="yes"/>
      <point x="957.113" y="145.437"/>
      <point x="976.058" y="166.033"/>
      <point x="976.058" y="207.958" type="curve" smooth="yes"/>
      <point x="976.058" y="286.774"/>
      <point x="975.815" y="366.616"/>
      <point x="973.199" y="445.365" type="curve" smooth="yes"/>
      <point x="971.837" y="486.34"/>
      <point x="953.634" y="506.405"/>
      <point x="911.702" y="506.405" type="curve" smooth="yes"/>
      <point x="166.449" y="506.405" type="line" smooth="yes"/>
      <point x="124.518" y="506.405"/>
      <point x="106.315" y="486.341"/>
      <point x="104.952" y="445.367" type="curve" smooth="yes"/>
      <point x="102.333" y="366.62"/>
      <point x="102.08" y="286.777"/>
    </contour>
  </outline>
</glyph>
<glyph name="greater" format="2">
  <advance width="911"/>
  <unicode hex="003E"/>
  <outline>
    <contour>
      <point x="135.964" y="417.561" type="curve" smooth="yes"/>
      <point x="135.964" y="308.397"/>
      <point x="132.54" y="199.208"/>
      <point x="132.54" y="90.0619" type="curve" smooth="yes"/>
      <point x="132.54" y="65.1775"/>
      <point x="134.951" y="16.4796"/>
      <point x="170.083" y="16.4796" type="curve" smooth="yes"/>
      <point x="191.299" y="16.4796"/>
      <point x="213.822" y="32.0936"/>
      <point x="230.271" y="43.8587" type="curve" smooth="yes"/>
      <point x="338.399" y="121.199"/>
      <point x="444.372" y="202.128"/>
      <point x="550.875" y="281.71" type="curve" smooth="yes"/>
      <point x="638.535" y="347.212"/>
      <point x="727.781" y="411.463"/>
      <point x="813.921" y="478.906" type="curve" smooth="yes"/>
      <point x="829.268" y="490.921"/>
      <point x="846.924" y="506.86"/>
      <point x="846.924" y="528.141" type="curve" smooth="yes"/>
      <point x="846.924" y="549.527"/>
      <point x="829.083" y="565.448"/>
      <point x="813.617" y="577.425" type="curve" smooth="yes"/>
      <point x="727.814" y="643.87"/>
      <point x="639.098" y="707.225"/>
      <point x="552.046" y="772.081" type="curve" smooth="yes"/>
      <point x="446.287" y="850.875"/>
      <point x="341.333" y="931.25"/>
      <point x="234.337" y="1008.33" type="curve" smooth="yes"/>
      <point x="217.944" y="1020.14"/>
      <point x="195.481" y="1035.83"/>
      <point x="174.272" y="1035.83" type="curve" smooth="yes"/>
      <point x="137.645" y="1035.83"/>
      <point x="136.673" y="983.842"/>
      <point x="136.321" y="958.479" type="curve" smooth="yes"/>
      <point x="135.207" y="878.078"/>
      <point x="136.987" y="797.411"/>
      <point x="136.987" y="716.977" type="curve" smooth="yes"/>
      <point x="136.987" y="703.44"/>
      <point x="138.91" y="640.124"/>
      <point x="134.725" y="631.833" type="curve" smooth="yes"/>
      <point x="122.795" y="608.196"/>
      <point x="89.4652" y="553.91"/>
      <point x="89.4652" y="528.384" type="curve" smooth="yes"/>
      <point x="89.4652" y="494.67"/>
      <point x="135.964" y="438.313"/>
    </contour>
  </outline>
</glyph>
<glyph name="question" format="2">
  <advance width="913"/>
  <unicode hex="003F"/>
  <outline>
    <contour>
      <point x="618.397" y="455.477" type="line"/>
      <point x="618.79" y="454.728"/>
      <point x="620.639" y="451.746"/>
      <point x="621.524" y="451.746" type="curve"/>
      <point x="621.829" y="451.746"/>
      <point x="622.407" y="452.753"/>
      <point x="622.417" y="453.09" type="curve"/>
      <point x="625.499" y="559.299"/>
      <point x="646.787" y="701.516"/>
      <point x="708.505" y="790.805" type="curve" smooth="yes"/>
      <point x="727.496" y="818.28"/>
      <point x="749.753" y="844.087"/>
      <point x="769.407" y="871.229" type="curve" smooth="yes"/>
      <point x="854.582" y="988.856"/>
      <point x="885.95" y="1071.76"/>
      <point x="889.07" y="1218.35" type="curve"/>
      <point x="889.146" y="1230.02" type="line" smooth="yes"/>
      <point x="889.146" y="1501.84"/>
      <point x="764.946" y="1625.29"/>
      <point x="493.513" y="1625.29" type="curve" smooth="yes"/>
      <point x="264.724" y="1625.29"/>
      <point x="92.4432" y="1493.2"/>
      <point x="26.2206" y="1275.44" type="curve" smooth="yes"/>
      <point x="24.2688" y="1269.02"/>
      <point x="23.0595" y="1262.3"/>
      <point x="23.0595" y="1255.58" type="curve" smooth="yes"/>
      <point x="23.0595" y="1231.39"/>
      <point x="37.9025" y="1217.92"/>
      <point x="57.8897" y="1207.45" type="curve" smooth="yes"/>
      <point x="97.8338" y="1186.55"/>
      <point x="139.664" y="1168.14"/>
      <point x="180.311" y="1148.55" type="curve" smooth="yes"/>
      <point x="220.992" y="1128.93"/>
      <point x="261.446" y="1107.88"/>
      <point x="302.649" y="1089.46" type="curve" smooth="yes"/>
      <point x="312.983" y="1084.84"/>
      <point x="323.567" y="1080.7"/>
      <point x="335.089" y="1080.7" type="curve" smooth="yes"/>
      <point x="396.161" y="1080.7"/>
      <point x="361.127" y="1189.76"/>
      <point x="430.534" y="1225.48" type="curve" smooth="yes"/>
      <point x="434.674" y="1227.61"/>
      <point x="440.198" y="1229.64"/>
      <point x="443.514" y="1233.29" type="curve"/>
      <point x="439.052" y="1231.12"/>
      <point x="434.378" y="1226.35"/>
      <point x="434.378" y="1221.13" type="curve" smooth="yes"/>
      <point x="434.378" y="1212.29"/>
      <point x="438.515" y="1203.91"/>
      <point x="438.515" y="1194.79" type="curve" smooth="yes"/>
      <point x="438.515" y="1100.82"/>
      <point x="386.443" y="1055.9"/>
      <point x="336.985" y="984.516" type="curve" smooth="yes"/>
      <point x="230.817" y="831.272"/>
      <point x="203.325" y="681.886"/>
      <point x="203.325" y="499.41" type="curve" smooth="yes"/>
      <point x="203.325" y="470.197"/>
      <point x="217.771" y="455.477"/>
      <point x="247.085" y="455.477" type="curve" smooth="yes"/>
    </contour>
    <contour>
      <point x="406.868" y="-78.383" type="curve" smooth="yes"/>
      <point x="531.406" y="-78.383"/>
      <point x="632.031" y="-12.0829"/>
      <point x="632.031" y="121.387" type="curve" smooth="yes"/>
      <point x="632.031" y="248.174"/>
      <point x="536.404" y="328.576"/>
      <point x="413.632" y="328.576" type="curve" smooth="yes"/>
      <point x="294.516" y="328.576"/>
      <point x="177.694" y="249.75"/>
      <point x="177.694" y="121.387" type="curve" smooth="yes"/>
      <point x="177.694" y="-12.6813"/>
      <point x="282.889" y="-78.383"/>
    </contour>
  </outline>
</glyph>
<glyph name="at" format="2">
  <advance width="1540"/>
  <unicode hex="0040"/>
  <outline>
    <contour>
      <point x="734.847" y="-508.872" type="curve" smooth="yes"/>
      <point x="909.853" y="-508.872"/>
      <point x="1157.98" y="-439.007"/>
      <point x="1286.2" y="-315.714" type="curve" smooth="yes"/>
      <point x="1297.35" y="-304.989"/>
      <point x="1305.94" y="-292.984"/>
      <point x="1305.94" y="-276.846" type="curve" smooth="yes"/>
      <point x="1305.94" y="-262.717"/>
      <point x="1299.23" y="-250.58"/>
      <point x="1291.32" y="-239.393" type="curve" smooth="yes"/>
      <point x="1258.94" y="-193.565"/>
      <point x="1224.35" y="-145.438"/>
      <point x="1188.83" y="-102.082" type="curve" smooth="yes"/>
      <point x="1176" y="-86.4147"/>
      <point x="1162.89" y="-72.507"/>
      <point x="1140.98" y="-72.507" type="curve" smooth="yes"/>
      <point x="1124.81" y="-72.507"/>
      <point x="1111" y="-80.4467"/>
      <point x="1097.73" y="-88.7012" type="curve" smooth="yes"/>
      <point x="1005.85" y="-145.863"/>
      <point x="910.514" y="-186.104"/>
      <point x="800.306" y="-186.104" type="curve" smooth="yes"/>
      <point x="639.725" y="-186.104"/>
      <point x="495.404" y="-112.324"/>
      <point x="402.403" y="18.3331" type="curve" smooth="yes"/>
      <point x="398.504" y="23.8102"/>
      <point x="350.272" y="90.8361"/>
      <point x="350.272" y="99.2085" type="curve" smooth="yes"/>
      <point x="350.272" y="100.984"/>
      <point x="353.049" y="99.2627"/>
      <point x="354.825" y="99.2627" type="curve" smooth="yes"/>
      <point x="370.888" y="99.2627"/>
      <point x="461.953" y="-31.1388"/>
      <point x="627.815" y="-31.1388" type="curve" smooth="yes"/>
      <point x="787.442" y="-31.1388"/>
      <point x="913.558" y="129.184"/>
      <point x="929.73" y="129.184" type="curve" smooth="yes"/>
      <point x="937.161" y="129.184"/>
      <point x="942.377" y="123.409"/>
      <point x="946.923" y="118.405" type="curve" smooth="yes"/>
      <point x="1026.31" y="31.0096"/>
      <point x="1122.74" y="-15.065"/>
      <point x="1241.92" y="-15.065" type="curve" smooth="yes"/>
      <point x="1601.77" y="-15.065"/>
      <point x="1732.69" y="416.27"/>
      <point x="1732.69" y="709.648" type="curve" smooth="yes"/>
      <point x="1732.69" y="1200.73"/>
      <point x="1516.07" y="1551.62"/>
      <point x="987.313" y="1551.62" type="curve" smooth="yes"/>
      <point x="283.834" y="1551.62"/>
      <point x="-78.895" y="1051.67"/>
      <point x="-78.895" y="383.384" type="curve" smooth="yes"/>
      <point x="-78.895" y="-7.2874"/>
      <point x="106.133" y="-361.442"/>
      <point x="500.107" y="-473.638" type="curve" smooth="yes"/>
      <point x="574.626" y="-494.859"/>
      <point x="657.239" y="-508.872"/>
    </contour>
    <contour>
      <point x="951.014" y="958.55" type="line"/>
      <point x="891.569" y="1036.25"/>
      <point x="863.501" y="1057.45"/>
      <point x="763.1" y="1057.45" type="curve" smooth="yes"/>
      <point x="523.656" y="1057.45"/>
      <point x="369.119" y="889.748"/>
      <point x="312.755" y="668.711" type="curve"/>
      <point x="368.605" y="1015.29"/>
      <point x="559.751" y="1229.47"/>
      <point x="924.585" y="1229.47" type="curve" smooth="yes"/>
      <point x="1097.64" y="1229.47"/>
      <point x="1244.34" y="1169.16"/>
      <point x="1310.19" y="998.499" type="curve"/>
      <point x="971.824" y="998.499" type="line"/>
    </contour>
    <contour>
      <point x="729.555" y="503.416" type="curve" smooth="yes"/>
      <point x="729.555" y="572.008"/>
      <point x="748.417" y="721.99"/>
      <point x="841.664" y="721.99" type="curve" smooth="yes"/>
      <point x="877.712" y="721.99"/>
      <point x="892.125" y="668.866"/>
      <point x="906.485" y="643.154" type="curve"/>
      <point x="865.683" y="350.569" type="line"/>
      <point x="837.056" y="340.081"/>
      <point x="827.616" y="305.487"/>
      <point x="809.72" y="305.487" type="curve" smooth="yes"/>
      <point x="739.618" y="305.487"/>
      <point x="729.555" y="453.606"/>
    </contour>
    <contour>
      <point x="1351.66" y="784.619" type="curve"/>
      <point x="1353" y="759.122"/>
      <point x="1353.32" y="733.596"/>
      <point x="1353.32" y="708.067" type="curve" smooth="yes"/>
      <point x="1353.32" y="594.489"/>
      <point x="1339.5" y="481.331"/>
      <point x="1319.04" y="369.749" type="curve"/>
      <point x="1315.09" y="381.574"/>
      <point x="1313.83" y="393.992"/>
      <point x="1313.83" y="406.404" type="curve" smooth="yes"/>
      <point x="1313.83" y="417.419"/>
      <point x="1314.55" y="428.522"/>
      <point x="1315.46" y="439.496" type="curve" smooth="yes"/>
      <point x="1325" y="554.603"/>
      <point x="1338.82" y="669.824"/>
    </contour>
  </outline>
</glyph>
<glyph name="A" format="2">
  <advance width="1493"/>
  <unicode hex="0041"/>
  <anchor x="746" y="0" name="bottom"/>
  <anchor x="1288" y="19" name="ogonek"/>
  <anchor x="746" y="1507" name="top"/>
  <outline>
    <contour>
      <point x="116.12" y="0" type="curve" smooth="yes"/>
      <point x="425.807" y="0" type="line" smooth="yes"/>
      <point x="500.7" y="0"/>
      <point x="483.853" y="97.3285"/>
      <point x="521.938" y="97.3285" type="curve" smooth="yes"/>
      <point x="891.562" y="97.3285" type="line" smooth="yes"/>
      <point x="930.537" y="97.3285"/>
      <point x="907.866" y="0"/>
      <point x="985.165" y="0" type="curve" smooth="yes"/>
      <point x="1376.63" y="0" type="line" smooth="yes"/>
      <point x="1404.22" y="0"/>
      <point x="1446.75" y="4.45766"/>
      <point x="1446.75" y="41.5026" type="curve" smooth="yes"/>
      <point x="1446.75" y="59.0142"/>
      <point x="1438.71" y="75.7912"/>
      <point x="1430.91" y="90.9421" type="curve" smooth="yes"/>
      <point x="1314.27" y="317.648"/>
      <point x="1195.7" y="542.957"/>
      <point x="1081.88" y="771.167" type="curve" smooth="yes"/>
      <point x="1010.78" y="913.714"/>
      <point x="940.196" y="1056.52"/>
      <point x="869.143" y="1199.09" type="curve" smooth="yes"/>
      <point x="833.677" y="1270.25"/>
      <point x="799.334" y="1342.46"/>
      <point x="762.108" y="1412.7" type="curve" smooth="yes"/>
      <point x="758.613" y="1419.29"/>
      <point x="752.984" y="1422.95"/>
      <point x="745.44" y="1422.95" type="curve" smooth="yes"/>
      <point x="737.897" y="1422.95"/>
      <point x="732.272" y="1419.29"/>
      <point x="728.785" y="1412.69" type="curve" smooth="yes"/>
      <point x="691.657" y="1342.45"/>
      <point x="657.417" y="1270.24"/>
      <point x="622.05" y="1199.07" type="curve" smooth="yes"/>
      <point x="551.195" y="1056.49"/>
      <point x="480.808" y="913.687"/>
      <point x="409.905" y="771.136" type="curve" smooth="yes"/>
      <point x="296.394" y="542.919"/>
      <point x="178.139" y="317.594"/>
      <point x="61.8041" y="90.8806" type="curve" smooth="yes"/>
      <point x="54.0399" y="75.7498"/>
      <point x="46.0378" y="59.0059"/>
      <point x="46.0378" y="41.5305" type="curve" smooth="yes"/>
      <point x="46.0378" y="4.48035"/>
      <point x="88.506" y="0"/>
    </contour>
    <contour>
      <point x="635.528" y="393.541" type="line"/>
      <point x="720.029" y="593.712" type="line"/>
      <point x="794.292" y="393.541" type="line"/>
    </contour>
  </outline>
</glyph>
<glyph name="B" format="2">
  <advance width="1432"/>
  <unicode hex="0042"/>
  <anchor x="741" y="0" name="bottom"/>
  <anchor x="741" y="1374" name="top"/>
  <outline>
    <contour>
      <point x="105.521" y="1310.6" type="curve" smooth="yes"/>
      <point x="105.521" y="1247.13"/>
      <point x="108.509" y="1183.36"/>
      <point x="109.609" y="1119.87" type="curve" smooth="yes"/>
      <point x="111.935" y="985.638"/>
      <point x="113.096" y="851.388"/>
      <point x="113.096" y="717.138" type="curve" smooth="yes"/>
      <point x="113.096" y="569.486"/>
      <point x="111.691" y="421.833"/>
      <point x="108.882" y="274.207" type="curve" smooth="yes"/>
      <point x="107.546" y="204.026"/>
      <point x="103.914" y="133.481"/>
      <point x="103.914" y="63.3344" type="curve" smooth="yes"/>
      <point x="103.914" y="20.8053"/>
      <point x="121.723" y="0"/>
      <point x="165.411" y="0" type="curve" smooth="yes"/>
      <point x="744.991" y="0" type="line" smooth="yes"/>
      <point x="1038.09" y="0"/>
      <point x="1367.83" y="80.3626"/>
      <point x="1367.83" y="437.386" type="curve" smooth="yes"/>
      <point x="1367.83" y="577.306"/>
      <point x="1296.86" y="657.242"/>
      <point x="1184.41" y="728.55" type="curve" smooth="yes"/>
      <point x="1178.11" y="732.541"/>
      <point x="1169.21" y="737.857"/>
      <point x="1169.21" y="746.618" type="curve" smooth="yes"/>
      <point x="1169.21" y="754.329"/>
      <point x="1175.71" y="760.323"/>
      <point x="1180.63" y="765.266" type="curve" smooth="yes"/>
      <point x="1255.54" y="840.556"/>
      <point x="1290.49" y="925.85"/>
      <point x="1290.49" y="1032.47" type="curve" smooth="yes"/>
      <point x="1290.49" y="1309.54"/>
      <point x="902.472" y="1373.88"/>
      <point x="691.516" y="1373.88" type="curve" smooth="yes"/>
      <point x="167.023" y="1373.78" type="line" smooth="yes"/>
      <point x="123.561" y="1373.78"/>
      <point x="105.521" y="1353.01"/>
    </contour>
    <contour>
      <point x="708.117" y="391.543" type="curve" smooth="yes"/>
      <point x="564.243" y="391.543" type="line"/>
      <point x="564.691" y="565.305" type="line"/>
      <point x="703.227" y="565.305" type="line" smooth="yes"/>
      <point x="759.957" y="565.305"/>
      <point x="896.977" y="570.12"/>
      <point x="896.977" y="487.433" type="curve" smooth="yes"/>
      <point x="896.977" y="393.731"/>
      <point x="775.8" y="391.543"/>
    </contour>
    <contour>
      <point x="708.14" y="867.697" type="curve" smooth="yes"/>
      <point x="564.693" y="867.697" type="line"/>
      <point x="564.229" y="1046.45" type="line"/>
      <point x="700.232" y="1046.45" type="line" smooth="yes"/>
      <point x="756.6" y="1046.45"/>
      <point x="820.269" y="1017.94"/>
      <point x="820.269" y="953.077" type="curve" smooth="yes"/>
      <point x="820.269" y="891.163"/>
      <point x="761.197" y="867.697"/>
    </contour>
  </outline>
</glyph>
<glyph name="C" format="2">
  <advance width="1335"/>
  <unicode hex="0043"/>
  <anchor x="736" y="0" name="bottom"/>
  <anchor x="704" y="1427" name="top"/>
  <outline>
    <contour>
      <point x="1084.03" y="474.147" type="curve" smooth="yes"/>
      <point x="1066.43" y="474.147"/>
      <point x="1050.12" y="467.571"/>
      <point x="1033.96" y="461.487" type="curve" smooth="yes"/>
      <point x="970.851" y="437.72"/>
      <point x="902.924" y="426.51"/>
      <point x="835.456" y="426.51" type="curve" smooth="yes"/>
      <point x="653.209" y="426.51"/>
      <point x="536.51" y="509.221"/>
      <point x="536.51" y="701.034" type="curve" smooth="yes"/>
      <point x="536.51" y="864.98"/>
      <point x="681.936" y="947.565"/>
      <point x="830.351" y="947.565" type="curve" smooth="yes"/>
      <point x="898.546" y="947.565"/>
      <point x="943.087" y="932.276"/>
      <point x="1004.13" y="904.168" type="curve" smooth="yes"/>
      <point x="1017.35" y="898.082"/>
      <point x="1030.86" y="892.152"/>
      <point x="1045.74" y="892.152" type="curve" smooth="yes"/>
      <point x="1074.35" y="892.152"/>
      <point x="1086.15" y="913.792"/>
      <point x="1096.54" y="936.644" type="curve" smooth="yes"/>
      <point x="1112.02" y="970.697"/>
      <point x="1211.75" y="1216.53"/>
      <point x="1211.75" y="1235.81" type="curve" smooth="yes"/>
      <point x="1211.75" y="1259.81"/>
      <point x="1198.19" y="1270.75"/>
      <point x="1179.49" y="1282.3" type="curve" smooth="yes"/>
      <point x="1161.07" y="1293.67"/>
      <point x="1138.48" y="1302.62"/>
      <point x="1118.56" y="1311.17" type="curve" smooth="yes"/>
      <point x="999.594" y="1362.23"/>
      <point x="869.863" y="1388.12"/>
      <point x="740.465" y="1388.12" type="curve" smooth="yes"/>
      <point x="319.394" y="1388.12"/>
      <point x="65.6575" y="1119.44"/>
      <point x="65.6575" y="702.239" type="curve" smooth="yes"/>
      <point x="65.6575" y="256.757"/>
      <point x="362.306" y="-14.2526"/>
      <point x="801.626" y="-14.2526" type="curve" smooth="yes"/>
      <point x="931.996" y="-14.2526"/>
      <point x="1135.41" y="28.9638"/>
      <point x="1239.68" y="109.954" type="curve" smooth="yes"/>
      <point x="1254.32" y="121.323"/>
      <point x="1264.3" y="132.234"/>
      <point x="1264.3" y="151.895" type="curve" smooth="yes"/>
      <point x="1264.3" y="174.789"/>
      <point x="1161.98" y="388.28"/>
      <point x="1144.18" y="423.851" type="curve" smooth="yes"/>
      <point x="1131.15" y="449.895"/>
      <point x="1116.72" y="474.147"/>
    </contour>
  </outline>
</glyph>
<glyph name="D" format="2">
  <advance width="1507"/>
  <unicode hex="0044"/>
  <anchor x="791" y="0" name="bottom"/>
  <anchor x="334" y="687" name="center"/>
  <anchor x="609" y="1374" name="top"/>
  <outline>
    <contour>
      <point x="165.454" y="0" type="curve" smooth="yes"/>
      <point x="687.959" y="0" type="line" smooth="yes"/>
      <point x="1083.18" y="0"/>
      <point x="1440.45" y="216.779"/>
      <point x="1440.45" y="647.146" type="curve" smooth="yes"/>
      <point x="1440.45" y="1154.48"/>
      <point x="1084.5" y="1373.78"/>
      <point x="615.378" y="1373.78" type="curve" smooth="yes"/>
      <point x="167.162" y="1373.78" type="line" smooth="yes"/>
      <point x="123.497" y="1373.78"/>
      <point x="105.659" y="1353"/>
      <point x="105.659" y="1310.5" type="curve" smooth="yes"/>
      <point x="105.659" y="1240"/>
      <point x="109.143" y="1169.14"/>
      <point x="110.37" y="1098.61" type="curve" smooth="yes"/>
      <point x="112.582" y="971.466"/>
      <point x="113.687" y="844.303"/>
      <point x="113.687" y="717.139" type="curve" smooth="yes"/>
      <point x="113.687" y="571.853"/>
      <point x="112.245" y="426.567"/>
      <point x="109.361" y="281.31" type="curve" smooth="yes"/>
      <point x="107.922" y="208.82"/>
      <point x="103.955" y="135.898"/>
      <point x="103.955" y="63.4487" type="curve" smooth="yes"/>
      <point x="103.955" y="20.8046"/>
      <point x="121.509" y="0"/>
    </contour>
    <contour>
      <point x="564.922" y="441.494" type="line"/>
      <point x="565.537" y="607.853"/>
      <point x="565.595" y="774.215"/>
      <point x="565.096" y="940.576" type="curve"/>
      <point x="698.297" y="940.78" type="line" smooth="yes"/>
      <point x="873.305" y="940.78"/>
      <point x="970.942" y="860.436"/>
      <point x="970.942" y="680.624" type="curve" smooth="yes"/>
      <point x="970.942" y="465.052"/>
      <point x="792.158" y="441.494"/>
      <point x="619.065" y="441.494" type="curve" smooth="yes"/>
    </contour>
  </outline>
</glyph>
<glyph name="E" format="2">
  <advance width="1210"/>
  <unicode hex="0045"/>
  <anchor x="633" y="0" name="bottom"/>
  <anchor x="964" y="19" name="ogonek"/>
  <anchor x="633" y="1440" name="top"/>
  <anchor x="122" y="1374" name="topleft"/>
  <outline>
    <contour>
      <point x="104.914" y="1310.91" type="curve" smooth="yes"/>
      <point x="104.914" y="1113.07"/>
      <point x="111.127" y="915.082"/>
      <point x="111.127" y="717.135" type="curve" smooth="yes"/>
      <point x="111.127" y="569.412"/>
      <point x="109.974" y="421.689"/>
      <point x="107.67" y="273.984" type="curve" smooth="yes"/>
      <point x="106.575" y="203.727"/>
      <point x="103.597" y="133.225"/>
      <point x="103.597" y="62.9917" type="curve" smooth="yes"/>
      <point x="103.597" y="20.6809"/>
      <point x="121.844" y="0"/>
      <point x="165.087" y="0" type="curve" smooth="yes"/>
      <point x="1087.79" y="0" type="line" smooth="yes"/>
      <point x="1131.17" y="0"/>
      <point x="1149.28" y="20.7465"/>
      <point x="1149.28" y="63.1187" type="curve" smooth="yes"/>
      <point x="1149.28" y="119.478"/>
      <point x="1146.65" y="176.109"/>
      <point x="1145.6" y="232.488" type="curve" smooth="yes"/>
      <point x="1144.69" y="281.763"/>
      <point x="1145.47" y="331.509"/>
      <point x="1143.27" y="380.704" type="curve" smooth="yes"/>
      <point x="1141.45" y="421.538"/>
      <point x="1123.84" y="441.494"/>
      <point x="1081.76" y="441.494" type="curve" smooth="yes"/>
      <point x="583.166" y="441.494" type="line" smooth="yes"/>
      <point x="569.648" y="441.494"/>
      <point x="562.687" y="448.478"/>
      <point x="562.687" y="461.988" type="curve" smooth="yes"/>
      <point x="562.687" y="482.135"/>
      <point x="553.037" y="529.368"/>
      <point x="583.199" y="529.368" type="curve" smooth="yes"/>
      <point x="981.639" y="529.368" type="line" smooth="yes"/>
      <point x="1023.1" y="529.368"/>
      <point x="1043.14" y="549.879"/>
      <point x="1043.14" y="591.169" type="curve" smooth="yes"/>
      <point x="1042.95" y="781.061" type="line" smooth="yes"/>
      <point x="1042.95" y="822.26"/>
      <point x="1022.75" y="842.744"/>
      <point x="981.455" y="842.744" type="curve" smooth="yes"/>
      <point x="583.232" y="842.744" type="line" smooth="yes"/>
      <point x="552.654" y="842.744"/>
      <point x="562.727" y="892.693"/>
      <point x="562.727" y="913.095" type="curve" smooth="yes"/>
      <point x="562.727" y="926.603"/>
      <point x="569.692" y="933.586"/>
      <point x="583.207" y="933.586" type="curve" smooth="yes"/>
      <point x="1057.44" y="933.586" type="line" smooth="yes"/>
      <point x="1099.62" y="933.586"/>
      <point x="1117.22" y="953.593"/>
      <point x="1118.94" y="994.537" type="curve" smooth="yes"/>
      <point x="1121" y="1043.54"/>
      <point x="1120.08" y="1093.09"/>
      <point x="1120.84" y="1142.16" type="curve" smooth="yes"/>
      <point x="1121.72" y="1198.34"/>
      <point x="1123.98" y="1254.7"/>
      <point x="1123.98" y="1310.87" type="curve" smooth="yes"/>
      <point x="1123.98" y="1353.12"/>
      <point x="1105.62" y="1373.78"/>
      <point x="1062.49" y="1373.78" type="curve" smooth="yes"/>
      <point x="166.408" y="1373.78" type="line" smooth="yes"/>
      <point x="123.349" y="1373.78"/>
      <point x="104.914" y="1353.13"/>
    </contour>
  </outline>
</glyph>
<glyph name="F" format="2">
  <advance width="1208"/>
  <unicode hex="0046"/>
  <anchor x="615" y="0" name="bottom"/>
  <anchor x="615" y="1374" name="top"/>
  <outline>
    <contour>
      <point x="104.909" y="1310.92" type="curve" smooth="yes"/>
      <point x="104.909" y="1113.07"/>
      <point x="111.109" y="915.083"/>
      <point x="111.109" y="717.135" type="curve" smooth="yes"/>
      <point x="111.109" y="569.411"/>
      <point x="109.959" y="421.688"/>
      <point x="107.659" y="273.982" type="curve" smooth="yes"/>
      <point x="106.566" y="203.725"/>
      <point x="103.594" y="133.223"/>
      <point x="103.594" y="62.9886" type="curve" smooth="yes"/>
      <point x="103.594" y="20.6804"/>
      <point x="121.844" y="0"/>
      <point x="165.084" y="0" type="curve" smooth="yes"/>
      <point x="500.701" y="0" type="line" smooth="yes"/>
      <point x="541.57" y="0"/>
      <point x="562.136" y="20.3713"/>
      <point x="562.136" y="61.311" type="curve" smooth="yes"/>
      <point x="562.617" y="396.059" type="line" smooth="yes"/>
      <point x="562.617" y="409.546"/>
      <point x="569.621" y="416.521"/>
      <point x="583.097" y="416.521" type="curve" smooth="yes"/>
      <point x="1001.95" y="416.521" type="line" smooth="yes"/>
      <point x="1043.74" y="416.521"/>
      <point x="1063.45" y="437.09"/>
      <point x="1063.45" y="478.567" type="curve" smooth="yes"/>
      <point x="1063.45" y="572.085"/>
      <point x="1062.54" y="665.612"/>
      <point x="1062.54" y="759.137" type="curve" smooth="yes"/>
      <point x="1062.54" y="800.309"/>
      <point x="1042.29" y="820.786"/>
      <point x="1001.04" y="820.786" type="curve" smooth="yes"/>
      <point x="583.223" y="820.786" type="line" smooth="yes"/>
      <point x="569.729" y="820.786"/>
      <point x="562.749" y="827.763"/>
      <point x="562.743" y="841.257" type="curve" smooth="yes"/>
      <point x="562.709" y="913.096" type="line" smooth="yes"/>
      <point x="562.703" y="926.603"/>
      <point x="569.682" y="933.586"/>
      <point x="583.189" y="933.586" type="curve" smooth="yes"/>
      <point x="1089.92" y="933.586" type="line" smooth="yes"/>
      <point x="1132.28" y="933.586"/>
      <point x="1149.5" y="953.567"/>
      <point x="1151.43" y="994.506" type="curve" smooth="yes"/>
      <point x="1153.62" y="1041.1"/>
      <point x="1152.58" y="1088.38"/>
      <point x="1153.34" y="1135.08" type="curve" smooth="yes"/>
      <point x="1154.29" y="1193.58"/>
      <point x="1156.8" y="1252.29"/>
      <point x="1156.8" y="1310.77" type="curve" smooth="yes"/>
      <point x="1156.8" y="1353.09"/>
      <point x="1138.56" y="1373.78"/>
      <point x="1095.3" y="1373.78" type="curve" smooth="yes"/>
      <point x="166.402" y="1373.78" type="line" smooth="yes"/>
      <point x="123.347" y="1373.78"/>
      <point x="104.909" y="1353.13"/>
    </contour>
  </outline>
</glyph>
<glyph name="G" format="2">
  <advance width="1542"/>
  <unicode hex="0047"/>
  <anchor x="748" y="0" name="bottom"/>
  <anchor x="834" y="1374" name="top"/>
  <outline>
    <contour>
      <point x="1460.9" y="203.304" type="curve" smooth="yes"/>
      <point x="1460.9" y="374.449"/>
      <point x="1454.46" y="545.764"/>
      <point x="1454.46" y="717.032" type="curve" smooth="yes"/>
      <point x="1454.49" y="752.068" type="line" smooth="yes"/>
      <point x="1454.49" y="793.297"/>
      <point x="1434.29" y="813.8"/>
      <point x="1392.96" y="813.8" type="curve" smooth="yes"/>
      <point x="856.997" y="813.8" type="line" smooth="yes"/>
      <point x="816.152" y="813.8"/>
      <point x="795.553" y="793.199"/>
      <point x="795.557" y="752.354" type="curve" smooth="yes"/>
      <point x="795.573" y="574.828" type="line" smooth="yes"/>
      <point x="795.577" y="533.991"/>
      <point x="816.176" y="513.394"/>
      <point x="857.013" y="513.394" type="curve" smooth="yes"/>
      <point x="1054.45" y="513.394" type="line" smooth="yes"/>
      <point x="1066.85" y="513.394"/>
      <point x="1074.97" y="505.167"/>
      <point x="1074.97" y="492.715" type="curve" smooth="yes"/>
      <point x="1074.97" y="480.385"/>
      <point x="1071.47" y="474.318"/>
      <point x="1059.51" y="470.438" type="curve" smooth="yes"/>
      <point x="1000.84" y="451.396"/>
      <point x="920.648" y="442.445"/>
      <point x="859.036" y="442.445" type="curve" smooth="yes"/>
      <point x="690.556" y="442.445"/>
      <point x="536.278" y="467.341"/>
      <point x="536.278" y="671.736" type="curve" smooth="yes"/>
      <point x="536.278" y="909.163"/>
      <point x="728.862" y="929.626"/>
      <point x="918.535" y="929.626" type="curve" smooth="yes"/>
      <point x="1017.74" y="929.626"/>
      <point x="1113.18" y="912.924"/>
      <point x="1209.26" y="889.708" type="curve" smooth="yes"/>
      <point x="1217.25" y="887.777"/>
      <point x="1225.28" y="886.282"/>
      <point x="1233.54" y="886.282" type="curve" smooth="yes"/>
      <point x="1266.09" y="886.282"/>
      <point x="1277.36" y="906.295"/>
      <point x="1286.63" y="933.839" type="curve" smooth="yes"/>
      <point x="1296.99" y="964.598"/>
      <point x="1376.92" y="1255.53"/>
      <point x="1376.92" y="1269.7" type="curve" smooth="yes"/>
      <point x="1376.92" y="1298.8"/>
      <point x="1359.25" y="1310.62"/>
      <point x="1334.53" y="1319.87" type="curve" smooth="yes"/>
      <point x="1209.39" y="1366.71"/>
      <point x="1009.67" y="1386.91"/>
      <point x="875.548" y="1386.91" type="curve" smooth="yes"/>
      <point x="362.785" y="1386.91"/>
      <point x="66.6746" y="1151.25"/>
      <point x="66.6746" y="621.198" type="curve" smooth="yes"/>
      <point x="66.6746" y="161.728"/>
      <point x="476.967" y="-14.1083"/>
      <point x="877.582" y="-14.1083" type="curve" smooth="yes"/>
      <point x="1029.07" y="-14.1083"/>
      <point x="1330.86" y="53.4618"/>
      <point x="1441.71" y="158.625" type="curve" smooth="yes"/>
      <point x="1456.1" y="172.281"/>
      <point x="1460.9" y="183.38"/>
    </contour>
  </outline>
</glyph>
<glyph name="H" format="2">
  <advance width="1583"/>
  <unicode hex="0048"/>
  <anchor x="793" y="0" name="bottom"/>
  <anchor x="793" y="687" name="center"/>
  <anchor x="793" y="1374" name="top"/>
  <anchor x="99" y="1374" name="topleft"/>
  <outline>
    <contour>
      <point x="1415.51" y="1373.78" type="curve" smooth="yes"/>
      <point x="1080.02" y="1373.78" type="line" smooth="yes"/>
      <point x="1037.25" y="1373.78"/>
      <point x="1020.94" y="1353.9"/>
      <point x="1018.61" y="1312.98" type="curve" smooth="yes"/>
      <point x="1015.8" y="1263.8"/>
      <point x="1017.72" y="1213.19"/>
      <point x="1017.36" y="1163.85" type="curve" smooth="yes"/>
      <point x="1016.69" y="1069.95"/>
      <point x="1015.98" y="976.041"/>
      <point x="1015.98" y="882.14" type="curve" smooth="yes"/>
      <point x="1015.98" y="868.675"/>
      <point x="1008.93" y="861.708"/>
      <point x="995.493" y="861.708" type="curve" smooth="yes"/>
      <point x="586.387" y="861.708" type="line" smooth="yes"/>
      <point x="572.953" y="861.708"/>
      <point x="565.904" y="868.675"/>
      <point x="565.904" y="882.14" type="curve" smooth="yes"/>
      <point x="565.904" y="976.041"/>
      <point x="565.192" y="1069.95"/>
      <point x="564.519" y="1163.85" type="curve" smooth="yes"/>
      <point x="564.165" y="1213.19"/>
      <point x="566.08" y="1263.8"/>
      <point x="563.272" y="1312.98" type="curve" smooth="yes"/>
      <point x="560.936" y="1353.9"/>
      <point x="544.629" y="1373.78"/>
      <point x="501.865" y="1373.78" type="curve" smooth="yes"/>
      <point x="167.365" y="1373.78" type="line" smooth="yes"/>
      <point x="123.614" y="1373.78"/>
      <point x="105.858" y="1352.96"/>
      <point x="105.858" y="1310.39" type="curve" smooth="yes"/>
      <point x="105.858" y="1246.74"/>
      <point x="109.22" y="1182.72"/>
      <point x="110.455" y="1119.05" type="curve" smooth="yes"/>
      <point x="113.054" y="985.095"/>
      <point x="114.353" y="851.118"/>
      <point x="114.353" y="717.141" type="curve" smooth="yes"/>
      <point x="114.353" y="569.535"/>
      <point x="112.776" y="421.929"/>
      <point x="109.626" y="274.357" type="curve" smooth="yes"/>
      <point x="108.13" y="204.232"/>
      <point x="104.056" y="133.648"/>
      <point x="104.056" y="63.566" type="curve" smooth="yes"/>
      <point x="104.056" y="20.8677"/>
      <point x="121.55" y="0"/>
      <point x="165.557" y="0" type="curve" smooth="yes"/>
      <point x="501.261" y="0" type="line" smooth="yes"/>
      <point x="543.978" y="0"/>
      <point x="560.301" y="19.8619"/>
      <point x="562.668" y="60.7368" type="curve" smooth="yes"/>
      <point x="565.532" y="110.198"/>
      <point x="563.661" y="161.083"/>
      <point x="564.064" y="210.703" type="curve" smooth="yes"/>
      <point x="564.831" y="305.122"/>
      <point x="565.723" y="399.556"/>
      <point x="565.723" y="493.979" type="curve" smooth="yes"/>
      <point x="565.723" y="507.431"/>
      <point x="572.797" y="514.392"/>
      <point x="586.207" y="514.392" type="curve" smooth="yes"/>
      <point x="995.673" y="514.392" type="line" smooth="yes"/>
      <point x="1009.08" y="514.392"/>
      <point x="1016.16" y="507.431"/>
      <point x="1016.16" y="493.979" type="curve" smooth="yes"/>
      <point x="1016.16" y="399.556"/>
      <point x="1017.05" y="305.122"/>
      <point x="1017.82" y="210.703" type="curve" smooth="yes"/>
      <point x="1018.22" y="161.083"/>
      <point x="1016.35" y="110.198"/>
      <point x="1019.21" y="60.7368" type="curve" smooth="yes"/>
      <point x="1021.58" y="19.8619"/>
      <point x="1037.9" y="0"/>
      <point x="1080.62" y="0" type="curve" smooth="yes"/>
      <point x="1417.32" y="0" type="line" smooth="yes"/>
      <point x="1461.33" y="0"/>
      <point x="1478.82" y="20.8686"/>
      <point x="1478.82" y="63.5691" type="curve" smooth="yes"/>
      <point x="1478.82" y="133.65"/>
      <point x="1474.74" y="204.234"/>
      <point x="1473.24" y="274.359" type="curve" smooth="yes"/>
      <point x="1470.09" y="421.93"/>
      <point x="1468.51" y="569.536"/>
      <point x="1468.51" y="717.141" type="curve" smooth="yes"/>
      <point x="1468.51" y="851.117"/>
      <point x="1469.81" y="985.094"/>
      <point x="1472.41" y="1119.05" type="curve" smooth="yes"/>
      <point x="1473.65" y="1182.72"/>
      <point x="1477.02" y="1246.74"/>
      <point x="1477.02" y="1310.39" type="curve" smooth="yes"/>
      <point x="1477.02" y="1352.95"/>
      <point x="1459.26" y="1373.78"/>
    </contour>
  </outline>
</glyph>
<glyph name="I" format="2">
  <advance width="733"/>
  <unicode hex="0049"/>
  <anchor x="369" y="0" name="bottom"/>
  <anchor x="513" y="19" name="ogonek"/>
  <anchor x="369" y="1440" name="top"/>
  <anchor x="-13" y="1374" name="topleft"/>
  <outline>
    <contour>
      <point x="138.412" y="1311.69" type="curve" smooth="yes"/>
      <point x="138.412" y="1113.52"/>
      <point x="141.26" y="915.32"/>
      <point x="141.26" y="717.13" type="curve" smooth="yes"/>
      <point x="141.26" y="498.797"/>
      <point x="137.808" y="280.454"/>
      <point x="137.808" y="62.1492" type="curve" smooth="yes"/>
      <point x="137.808" y="20.5679"/>
      <point x="157.282" y="0"/>
      <point x="199.275" y="0" type="curve" smooth="yes"/>
      <point x="534.845" y="0" type="line" smooth="yes"/>
      <point x="576.838" y="0"/>
      <point x="596.312" y="20.5679"/>
      <point x="596.312" y="62.1492" type="curve" smooth="yes"/>
      <point x="596.312" y="280.454"/>
      <point x="592.86" y="498.797"/>
      <point x="592.86" y="717.13" type="curve" smooth="yes"/>
      <point x="592.86" y="915.32"/>
      <point x="595.708" y="1113.52"/>
      <point x="595.708" y="1311.69" type="curve" smooth="yes"/>
      <point x="595.708" y="1353.22"/>
      <point x="576.152" y="1373.78"/>
      <point x="534.24" y="1373.78" type="curve" smooth="yes"/>
      <point x="199.88" y="1373.78" type="line" smooth="yes"/>
      <point x="157.968" y="1373.78"/>
      <point x="138.412" y="1353.22"/>
    </contour>
  </outline>
</glyph>
<glyph name="J" format="2">
  <advance width="831"/>
  <unicode hex="004A"/>
  <anchor x="299" y="0" name="bottom"/>
  <anchor x="530" y="1440" name="top"/>
  <outline>
    <contour>
      <point x="723.35" y="716.701" type="curve" smooth="yes"/>
      <point x="723.35" y="914.961"/>
      <point x="727.227" y="1113.23"/>
      <point x="727.227" y="1311.46" type="curve" smooth="yes"/>
      <point x="727.227" y="1353.16"/>
      <point x="707.975" y="1373.78"/>
      <point x="665.751" y="1373.78" type="curve" smooth="yes"/>
      <point x="326.413" y="1373.78" type="line" smooth="yes"/>
      <point x="281.511" y="1373.78"/>
      <point x="267.988" y="1353.51"/>
      <point x="264.954" y="1311.91" type="curve" smooth="yes"/>
      <point x="260.872" y="1255.95"/>
      <point x="265.72" y="1178.91"/>
      <point x="265.97" y="1120.6" type="curve" smooth="yes"/>
      <point x="266.549" y="985.967"/>
      <point x="266.84" y="851.337"/>
      <point x="266.84" y="716.707" type="curve" smooth="yes"/>
      <point x="266.84" y="604.988"/>
      <point x="266.239" y="493.269"/>
      <point x="266.239" y="381.551" type="curve" smooth="yes"/>
      <point x="266.239" y="277.355"/>
      <point x="239.703" y="199.39"/>
      <point x="132.064" y="169.844" type="curve" smooth="yes"/>
      <point x="109.705" y="163.707"/>
      <point x="87.8519" y="162.042"/>
      <point x="65.2957" y="157.822" type="curve" smooth="yes"/>
      <point x="23.4183" y="149.988"/>
      <point x="11.0396" y="139.07"/>
      <point x="6.98389" y="95.9125" type="curve" smooth="yes"/>
      <point x="3.03445" y="53.8869"/>
      <point x="5.34985" y="8.90252"/>
      <point x="4.43896" y="-33.4795" type="curve" smooth="yes"/>
      <point x="3.05106" y="-98.056"/>
      <point x="-0.258689" y="-162.994"/>
      <point x="-0.258689" y="-227.548" type="curve" smooth="yes"/>
      <point x="-0.258689" y="-265.213"/>
      <point x="13.2029" y="-289.33"/>
      <point x="54.1518" y="-289.33" type="curve"/>
      <point x="62.3356" y="-289.013" type="line"/>
      <point x="461.678" y="-253.809"/>
      <point x="721.887" y="-43.3383"/>
      <point x="724.632" y="375.555" type="curve" smooth="yes"/>
      <point x="725.377" y="489.216"/>
      <point x="723.35" y="603.017"/>
    </contour>
  </outline>
</glyph>
<glyph name="K" format="2">
  <advance width="1466"/>
  <unicode hex="004B"/>
  <anchor x="612" y="0" name="bottom"/>
  <anchor x="779" y="1374" name="top"/>
  <outline>
    <contour>
      <point x="508.54" y="1373.78" type="curve" smooth="yes"/>
      <point x="167.115" y="1373.78" type="line" smooth="yes"/>
      <point x="123.595" y="1373.78"/>
      <point x="105.612" y="1353"/>
      <point x="105.612" y="1310.55" type="curve" smooth="yes"/>
      <point x="105.612" y="1246.87"/>
      <point x="108.692" y="1182.87"/>
      <point x="109.825" y="1119.15" type="curve" smooth="yes"/>
      <point x="112.206" y="985.163"/>
      <point x="113.396" y="851.151"/>
      <point x="113.396" y="717.139" type="curve" smooth="yes"/>
      <point x="113.396" y="569.497"/>
      <point x="111.952" y="421.855"/>
      <point x="109.065" y="274.241" type="curve" smooth="yes"/>
      <point x="107.693" y="204.073"/>
      <point x="103.961" y="133.519"/>
      <point x="103.961" y="63.3869" type="curve" smooth="yes"/>
      <point x="103.961" y="20.8188"/>
      <point x="121.706" y="0"/>
      <point x="165.459" y="0" type="curve" smooth="yes"/>
      <point x="508.108" y="0" type="line" smooth="yes"/>
      <point x="550.942" y="0"/>
      <point x="567.191" y="20.0099"/>
      <point x="569.525" y="60.9363" type="curve" smooth="yes"/>
      <point x="571.526" y="96.0094"/>
      <point x="570.039" y="132.159"/>
      <point x="570.261" y="167.35" type="curve" smooth="yes"/>
      <point x="570.74" y="243.356"/>
      <point x="571.403" y="319.372"/>
      <point x="571.403" y="395.381" type="curve" smooth="yes"/>
      <point x="571.403" y="400.151"/>
      <point x="570.872" y="429.599"/>
      <point x="582.818" y="429.599" type="curve" smooth="yes"/>
      <point x="592.073" y="429.599"/>
      <point x="603.874" y="413.231"/>
      <point x="608.332" y="407.572" type="curve" smooth="yes"/>
      <point x="680.693" y="315.707"/>
      <point x="748.817" y="219.742"/>
      <point x="819.46" y="126.465" type="curve" smooth="yes"/>
      <point x="843.858" y="94.2494"/>
      <point x="867.412" y="59.9198"/>
      <point x="893.475" y="29.1265" type="curve" smooth="yes"/>
      <point x="907.167" y="12.9489"/>
      <point x="920.537" y="5.02078"/>
      <point x="942.249" y="5.02078" type="curve" smooth="yes"/>
      <point x="1319.41" y="5.02078" type="line" smooth="yes"/>
      <point x="1344.68" y="5.02078"/>
      <point x="1396.29" y="7.1421"/>
      <point x="1396.29" y="43.3695" type="curve" smooth="yes"/>
      <point x="1396.29" y="64.6943"/>
      <point x="1380.68" y="86.8777"/>
      <point x="1369.01" y="103.417" type="curve" smooth="yes"/>
      <point x="1325.27" y="165.413"/>
      <point x="947.758" y="680.612"/>
      <point x="947.758" y="699.218" type="curve" smooth="yes"/>
      <point x="947.758" y="706.145"/>
      <point x="952.562" y="711.003"/>
      <point x="957.65" y="714.934" type="curve" smooth="yes"/>
      <point x="1158.32" y="869.959"/>
      <point x="1300.18" y="1053.15"/>
      <point x="1364.44" y="1302.2" type="curve" smooth="yes"/>
      <point x="1366.48" y="1310.13"/>
      <point x="1367.89" y="1318.3"/>
      <point x="1367.89" y="1326.51" type="curve" smooth="yes"/>
      <point x="1367.89" y="1363.25"/>
      <point x="1338.53" y="1373.78"/>
      <point x="1306.67" y="1373.78" type="curve" smooth="yes"/>
      <point x="981.022" y="1373.78" type="line" smooth="yes"/>
      <point x="943.784" y="1373.78"/>
      <point x="927.936" y="1356.24"/>
      <point x="918.37" y="1322.2" type="curve" smooth="yes"/>
      <point x="866.802" y="1138.71"/>
      <point x="776.059" y="1004.76"/>
      <point x="599.827" y="920.638" type="curve" smooth="yes"/>
      <point x="595.513" y="918.579"/>
      <point x="590.706" y="916.743"/>
      <point x="585.843" y="916.743" type="curve" smooth="yes"/>
      <point x="573.734" y="916.743"/>
      <point x="571.715" y="929.581"/>
      <point x="571.715" y="938.797" type="curve" smooth="yes"/>
      <point x="571.715" y="1023.57"/>
      <point x="571.158" y="1108.35"/>
      <point x="570.694" y="1193.12" type="curve" smooth="yes"/>
      <point x="570.477" y="1232.69"/>
      <point x="572.196" y="1273.36"/>
      <point x="569.958" y="1312.8" type="curve" smooth="yes"/>
      <point x="567.634" y="1353.76"/>
      <point x="551.419" y="1373.78"/>
    </contour>
  </outline>
</glyph>
<glyph name="L" format="2">
  <advance width="1180"/>
  <unicode hex="004C"/>
  <anchor x="598" y="0" name="bottom"/>
  <anchor x="598" y="687" name="center"/>
  <anchor x="325" y="1440" name="top"/>
  <anchor x="1088" y="1374" name="topright"/>
  <outline>
    <contour>
      <point x="104.831" y="1310.96" type="curve" smooth="yes"/>
      <point x="104.831" y="1113.09"/>
      <point x="110.859" y="915.095"/>
      <point x="110.859" y="717.135" type="curve" smooth="yes"/>
      <point x="110.859" y="569.402"/>
      <point x="109.741" y="421.67"/>
      <point x="107.505" y="273.954" type="curve" smooth="yes"/>
      <point x="106.442" y="203.688"/>
      <point x="103.552" y="133.19"/>
      <point x="103.552" y="62.9453" type="curve" smooth="yes"/>
      <point x="103.552" y="20.7017"/>
      <point x="121.898" y="0"/>
      <point x="165.041" y="0" type="curve" smooth="yes"/>
      <point x="1057.84" y="0" type="line" smooth="yes"/>
      <point x="1101.16" y="0"/>
      <point x="1119.33" y="20.7348"/>
      <point x="1119.33" y="63.0726" type="curve" smooth="yes"/>
      <point x="1119.33" y="121.792"/>
      <point x="1116.66" y="180.777"/>
      <point x="1115.62" y="239.516" type="curve" smooth="yes"/>
      <point x="1114.79" y="286.292"/>
      <point x="1116.22" y="334.059"/>
      <point x="1113.48" y="380.686" type="curve" smooth="yes"/>
      <point x="1111.08" y="421.582"/>
      <point x="1094.71" y="441.494"/>
      <point x="1051.97" y="441.494" type="curve" smooth="yes"/>
      <point x="582.929" y="441.494" type="line" smooth="yes"/>
      <point x="569.414" y="441.494"/>
      <point x="562.448" y="448.477"/>
      <point x="562.448" y="461.985" type="curve" smooth="yes"/>
      <point x="562.512" y="716.736" type="line"/>
      <point x="562.164" y="1312.42" type="line" smooth="yes"/>
      <point x="562.164" y="1353.4"/>
      <point x="541.665" y="1373.78"/>
      <point x="500.728" y="1373.78" type="curve" smooth="yes"/>
      <point x="166.323" y="1373.78" type="line" smooth="yes"/>
      <point x="123.358" y="1373.78"/>
      <point x="104.831" y="1353.11"/>
    </contour>
  </outline>
</glyph>
<glyph name="M" format="2">
  <advance width="1737"/>
  <unicode hex="004D"/>
  <anchor x="870" y="0" name="bottom"/>
  <anchor x="870" y="1374" name="top"/>
  <outline>
    <contour>
      <point x="165.756" y="0" type="curve" smooth="yes"/>
      <point x="485.44" y="0" type="line" smooth="yes"/>
      <point x="526.287" y="0"/>
      <point x="545.927" y="20.061"/>
      <point x="546.873" y="60.5715" type="curve" smooth="yes"/>
      <point x="547.781" y="99.4166"/>
      <point x="547.972" y="138.297"/>
      <point x="548.521" y="177.149" type="curve" smooth="yes"/>
      <point x="548.613" y="183.664"/>
      <point x="548.759" y="205.558"/>
      <point x="560.768" y="205.558" type="curve" smooth="yes"/>
      <point x="569.115" y="205.558"/>
      <point x="578.02" y="196.563"/>
      <point x="583.413" y="191.519" type="curve" smooth="yes"/>
      <point x="663.409" y="116.702"/>
      <point x="737.022" y="32.9407"/>
      <point x="819.29" y="-39.1825" type="curve" smooth="yes"/>
      <point x="831.911" y="-50.2465"/>
      <point x="844.708" y="-60.4426"/>
      <point x="862.462" y="-60.4426" type="curve" smooth="yes"/>
      <point x="881.269" y="-60.4426"/>
      <point x="893.79" y="-49.3654"/>
      <point x="906.555" y="-37.2066" type="curve" smooth="yes"/>
      <point x="925.697" y="-18.9735"/>
      <point x="943.389" y="1.9718"/>
      <point x="961.503" y="21.303" type="curve" smooth="yes"/>
      <point x="1019.33" y="83.0179"/>
      <point x="1075.66" y="146.854"/>
      <point x="1134.76" y="207.279" type="curve" smooth="yes"/>
      <point x="1140.01" y="212.641"/>
      <point x="1149.55" y="223.365"/>
      <point x="1158.28" y="223.365" type="curve" smooth="yes"/>
      <point x="1170.44" y="223.365"/>
      <point x="1169.99" y="199.638"/>
      <point x="1170.31" y="193.559" type="curve" smooth="yes"/>
      <point x="1172.63" y="149.378"/>
      <point x="1169.61" y="104.691"/>
      <point x="1171.98" y="60.5037" type="curve" smooth="yes"/>
      <point x="1174.16" y="19.8079"/>
      <point x="1191.17" y="0"/>
      <point x="1233.38" y="0" type="curve" smooth="yes"/>
      <point x="1571.12" y="0" type="line" smooth="yes"/>
      <point x="1611.12" y="0"/>
      <point x="1632.69" y="18.6224"/>
      <point x="1632.69" y="59.4103" type="curve"/>
      <point x="1632.61" y="63.8073" type="line"/>
      <point x="1625.06" y="297.862"/>
      <point x="1619.84" y="531.797"/>
      <point x="1619.84" y="765.99" type="curve" smooth="yes"/>
      <point x="1619.84" y="931.004"/>
      <point x="1622.27" y="1095.99"/>
      <point x="1626.7" y="1260.94" type="curve" smooth="yes"/>
      <point x="1626.88" y="1272.99" type="line" smooth="yes"/>
      <point x="1626.88" y="1294.53"/>
      <point x="1626.2" y="1353.1"/>
      <point x="1593.21" y="1353.1" type="curve" smooth="yes"/>
      <point x="1568.4" y="1353.1"/>
      <point x="1537.46" y="1322.33"/>
      <point x="1521.37" y="1306.29" type="curve" smooth="yes"/>
      <point x="1296.82" y="1082.42"/>
      <point x="1084.11" y="847.028"/>
      <point x="862.537" y="620.382" type="curve" smooth="yes"/>
      <point x="858.55" y="616.303"/>
      <point x="853.597" y="612.38"/>
      <point x="847.559" y="612.38" type="curve" smooth="yes"/>
      <point x="841.378" y="612.38"/>
      <point x="836.407" y="616.504"/>
      <point x="832.443" y="620.76" type="curve" smooth="yes"/>
      <point x="623.895" y="844.634"/>
      <point x="425.376" y="1077.96"/>
      <point x="214.117" y="1299.46" type="curve" smooth="yes"/>
      <point x="198.262" y="1316.08"/>
      <point x="166.2" y="1349.84"/>
      <point x="140.901" y="1349.84" type="curve" smooth="yes"/>
      <point x="108.198" y="1349.84"/>
      <point x="107.728" y="1289.38"/>
      <point x="107.728" y="1268.3" type="curve" smooth="yes"/>
      <point x="107.923" y="1255.26" type="line" smooth="yes"/>
      <point x="112.869" y="1075.89"/>
      <point x="115.689" y="896.484"/>
      <point x="115.689" y="717.041" type="curve" smooth="yes"/>
      <point x="115.689" y="499.24"/>
      <point x="111.681" y="281.476"/>
      <point x="104.252" y="63.8047" type="curve"/>
      <point x="104.174" y="59.4638" type="line"/>
      <point x="104.174" y="18.656"/>
      <point x="125.726" y="0"/>
    </contour>
  </outline>
</glyph>
<glyph name="N" format="2">
  <advance width="1577"/>
  <unicode hex="004E"/>
  <anchor x="789" y="0" name="bottom"/>
  <anchor x="725" y="1374" name="top"/>
  <outline>
    <contour>
      <point x="1470.4" y="-42.1922" type="curve" smooth="yes"/>
      <point x="1474.34" y="-42.1922"/>
      <point x="1476.2" y="-39.9992"/>
      <point x="1476.2" y="-36.1801" type="curve" smooth="yes"/>
      <point x="1476.2" y="44.5381"/>
      <point x="1470.8" y="126.018"/>
      <point x="1468.82" y="206.802" type="curve" smooth="yes"/>
      <point x="1464.65" y="376.918"/>
      <point x="1462.56" y="547.085"/>
      <point x="1462.56" y="717.252" type="curve" smooth="yes"/>
      <point x="1462.56" y="849.079"/>
      <point x="1463.82" y="980.906"/>
      <point x="1466.33" y="1112.71" type="curve" smooth="yes"/>
      <point x="1467.58" y="1178.5"/>
      <point x="1471.03" y="1244.64"/>
      <point x="1471.03" y="1310.39" type="curve" smooth="yes"/>
      <point x="1471.03" y="1352.96"/>
      <point x="1453.28" y="1373.78"/>
      <point x="1409.53" y="1373.78" type="curve" smooth="yes"/>
      <point x="1069.89" y="1373.78" type="line" smooth="yes"/>
      <point x="1028.53" y="1373.78"/>
      <point x="1008.48" y="1353.34"/>
      <point x="1008.48" y="1312.13" type="curve" smooth="yes"/>
      <point x="1008.48" y="1181.12"/>
      <point x="1011.3" y="1050.09"/>
      <point x="1011.3" y="919.092" type="curve" smooth="yes"/>
      <point x="1011.3" y="910.617"/>
      <point x="1010.53" y="894.781"/>
      <point x="998.075" y="894.781" type="curve" smooth="yes"/>
      <point x="975.422" y="894.781"/>
      <point x="144.181" y="1416.93"/>
      <point x="111.033" y="1416.93" type="curve" smooth="yes"/>
      <point x="105.249" y="1416.93"/>
      <point x="102.82" y="1414.05"/>
      <point x="102.82" y="1408.44" type="curve" smooth="yes"/>
      <point x="102.82" y="1334.32"/>
      <point x="107.363" y="1259.62"/>
      <point x="109.032" y="1185.45" type="curve" smooth="yes"/>
      <point x="112.544" y="1029.34"/>
      <point x="114.299" y="873.193"/>
      <point x="114.299" y="717.042" type="curve" smooth="yes"/>
      <point x="114.299" y="569.457"/>
      <point x="112.731" y="421.872"/>
      <point x="109.595" y="274.32" type="curve" smooth="yes"/>
      <point x="108.105" y="204.203"/>
      <point x="104.049" y="133.631"/>
      <point x="104.049" y="63.5575" type="curve" smooth="yes"/>
      <point x="104.049" y="20.866"/>
      <point x="121.548" y="0"/>
      <point x="165.549" y="0" type="curve" smooth="yes"/>
      <point x="511.172" y="0" type="line" smooth="yes"/>
      <point x="552.772" y="0"/>
      <point x="572.585" y="20.4773"/>
      <point x="572.585" y="61.8251" type="curve" smooth="yes"/>
      <point x="572.585" y="190.774"/>
      <point x="568.782" y="319.753"/>
      <point x="568.782" y="448.686" type="curve" smooth="yes"/>
      <point x="568.782" y="457.214"/>
      <point x="569.526" y="472.96"/>
      <point x="582.025" y="472.96" type="curve" smooth="yes"/>
      <point x="603.297" y="472.96"/>
      <point x="1441.58" y="-42.1922"/>
    </contour>
  </outline>
</glyph>
<glyph name="O" format="2">
  <advance width="1589"/>
  <unicode hex="004F"/>
  <anchor x="796" y="0" name="bottom"/>
  <anchor x="796" y="687" name="center"/>
  <anchor x="1232" y="19" name="ogonek"/>
  <anchor x="796" y="1409" name="top"/>
  <anchor x="24" y="1374" name="topleft"/>
  <anchor x="912" y="1531" name="topright"/>
  <outline>
    <contour>
      <point x="67.219" y="685.067" type="curve" smooth="yes"/>
      <point x="67.219" y="288.404"/>
      <point x="404.554" y="-14.0605"/>
      <point x="792.94" y="-14.0605" type="curve" smooth="yes"/>
      <point x="1179.75" y="-14.0605"/>
      <point x="1520.64" y="282.403"/>
      <point x="1520.64" y="679.526" type="curve" smooth="yes"/>
      <point x="1520.64" y="1073.66"/>
      <point x="1176.66" y="1389.58"/>
      <point x="788.933" y="1389.58" type="curve" smooth="yes"/>
      <point x="403.422" y="1389.58"/>
      <point x="67.219" y="1075.81"/>
    </contour>
    <contour>
      <point x="535.965" y="692.86" type="curve" smooth="yes"/>
      <point x="535.965" y="843.338"/>
      <point x="645.906" y="947.565"/>
      <point x="794.924" y="947.565" type="curve" smooth="yes"/>
      <point x="949.314" y="947.565"/>
      <point x="1052.15" y="837.634"/>
      <point x="1052.15" y="685.067" type="curve" smooth="yes"/>
      <point x="1052.15" y="543.059"/>
      <point x="960.981" y="426.51"/>
      <point x="812.649" y="426.51" type="curve" smooth="yes"/>
      <point x="657.445" y="426.51"/>
      <point x="535.965" y="534.118"/>
    </contour>
  </outline>
</glyph>
<glyph name="P" format="2">
  <advance width="1391"/>
  <unicode hex="0050"/>
  <anchor x="716" y="0" name="bottom"/>
  <anchor x="716" y="1374" name="top"/>
  <outline>
    <contour>
      <point x="105.473" y="1310.66" type="curve" smooth="yes"/>
      <point x="105.473" y="1244.82"/>
      <point x="108.462" y="1178.7"/>
      <point x="109.546" y="1112.84" type="curve" smooth="yes"/>
      <point x="111.718" y="980.951"/>
      <point x="112.803" y="849.044"/>
      <point x="112.803" y="717.137" type="curve" smooth="yes"/>
      <point x="112.803" y="571.816"/>
      <point x="111.486" y="426.495"/>
      <point x="108.854" y="281.198" type="curve" smooth="yes"/>
      <point x="107.539" y="208.66"/>
      <point x="103.918" y="135.776"/>
      <point x="103.918" y="63.2726" type="curve" smooth="yes"/>
      <point x="103.918" y="20.7877"/>
      <point x="121.798" y="0"/>
      <point x="165.414" y="0" type="curve" smooth="yes"/>
      <point x="501.069" y="0" type="line" smooth="yes"/>
      <point x="545.205" y="0"/>
      <point x="559.119" y="19.9882"/>
      <point x="562.491" y="61.0285" type="curve" smooth="yes"/>
      <point x="567.191" y="118.236"/>
      <point x="563.563" y="207.746"/>
      <point x="563.563" y="268.181" type="curve" smooth="yes"/>
      <point x="563.563" y="281.622"/>
      <point x="570.654" y="288.578"/>
      <point x="584.045" y="288.578" type="curve" smooth="yes"/>
      <point x="775.029" y="288.553" type="line" smooth="yes"/>
      <point x="1114.85" y="288.553"/>
      <point x="1342.51" y="486.096"/>
      <point x="1342.51" y="834.759" type="curve" smooth="yes"/>
      <point x="1342.51" y="1221.91"/>
      <point x="1016.18" y="1373.83"/>
      <point x="673.907" y="1373.83" type="curve" smooth="yes"/>
      <point x="166.974" y="1373.78" type="line" smooth="yes"/>
      <point x="123.54" y="1373.78"/>
      <point x="105.473" y="1353.06"/>
    </contour>
    <contour>
      <point x="720.608" y="635.17" type="curve" smooth="yes"/>
      <point x="564.479" y="635.17" type="line"/>
      <point x="564.573" y="757.279"/>
      <point x="564.457" y="879.388"/>
      <point x="564.13" y="1001.5" type="curve"/>
      <point x="720.674" y="1001.5" type="line" smooth="yes"/>
      <point x="828.689" y="1001.5"/>
      <point x="889.618" y="952.384"/>
      <point x="889.618" y="840.986" type="curve" smooth="yes"/>
      <point x="889.618" y="720.175"/>
      <point x="857.22" y="635.17"/>
    </contour>
  </outline>
</glyph>
<glyph name="Q" format="2">
  <advance width="1589"/>
  <unicode hex="0051"/>
  <anchor x="816" y="0" name="bottom"/>
  <anchor x="816" y="1374" name="top"/>
  <outline>
    <contour>
      <point x="67.219" y="685.067" type="curve" smooth="yes"/>
      <point x="67.219" y="288.423"/>
      <point x="404.534" y="-14.0605"/>
      <point x="792.94" y="-14.0605" type="curve" smooth="yes"/>
      <point x="822.225" y="-14.0605"/>
      <point x="851.772" y="-8.93922"/>
      <point x="880.597" y="-8.93922" type="curve" smooth="yes"/>
      <point x="930.909" y="-8.93922"/>
      <point x="900.062" y="-135.267"/>
      <point x="985.845" y="-136.207" type="curve" smooth="yes"/>
      <point x="1282.86" y="-139.46" type="line" smooth="yes"/>
      <point x="1307.99" y="-139.736"/>
      <point x="1359.14" y="-138.041"/>
      <point x="1359.14" y="-101.144" type="curve" smooth="yes"/>
      <point x="1359.14" y="-53.3953"/>
      <point x="1229.5" y="91.8514"/>
      <point x="1229.5" y="116.424" type="curve" smooth="yes"/>
      <point x="1229.5" y="123.357"/>
      <point x="1234.23" y="128.188"/>
      <point x="1239.27" y="132.197" type="curve" smooth="yes"/>
      <point x="1413.21" y="270.445"/>
      <point x="1521.66" y="453.481"/>
      <point x="1521.66" y="680.322" type="curve" smooth="yes"/>
      <point x="1521.66" y="1073.56"/>
      <point x="1179.91" y="1387.82"/>
      <point x="792.943" y="1387.82" type="curve" smooth="yes"/>
      <point x="405.467" y="1387.82"/>
      <point x="67.219" y="1079.72"/>
    </contour>
    <contour>
      <point x="950.227" y="530.366" type="line"/>
      <point x="713.332" y="523.378" type="line"/>
      <point x="744.113" y="433.713" type="line"/>
      <point x="617.12" y="460.51"/>
      <point x="536.72" y="566.287"/>
      <point x="536.72" y="694.707" type="curve" smooth="yes"/>
      <point x="536.72" y="844.967"/>
      <point x="646.366" y="947.565"/>
      <point x="794.924" y="947.565" type="curve" smooth="yes"/>
      <point x="949.311" y="947.565"/>
      <point x="1052.15" y="837.637"/>
      <point x="1052.15" y="685.067" type="curve" smooth="yes"/>
      <point x="1052.15" y="613.765"/>
      <point x="1028.44" y="540.873"/>
      <point x="976.472" y="490.399" type="curve"/>
    </contour>
  </outline>
</glyph>
<glyph name="R" format="2">
  <advance width="1391"/>
  <unicode hex="0052"/>
  <anchor x="776" y="0" name="bottom"/>
  <anchor x="642" y="1440" name="top"/>
  <outline>
    <contour>
      <point x="636.251" y="1373.78" type="curve" smooth="yes"/>
      <point x="166.974" y="1373.78" type="line" smooth="yes"/>
      <point x="123.596" y="1373.78"/>
      <point x="105.473" y="1353.03"/>
      <point x="105.473" y="1310.66" type="curve" smooth="yes"/>
      <point x="105.473" y="1246.95"/>
      <point x="108.374" y="1182.96"/>
      <point x="109.44" y="1119.22" type="curve" smooth="yes"/>
      <point x="111.683" y="985.206"/>
      <point x="112.803" y="851.172"/>
      <point x="112.803" y="717.137" type="curve" smooth="yes"/>
      <point x="112.803" y="569.472"/>
      <point x="111.443" y="421.807"/>
      <point x="108.725" y="274.167" type="curve" smooth="yes"/>
      <point x="107.433" y="203.972"/>
      <point x="103.918" y="133.436"/>
      <point x="103.918" y="63.2726" type="curve" smooth="yes"/>
      <point x="103.918" y="20.7884"/>
      <point x="121.818" y="0"/>
      <point x="165.414" y="0" type="curve" smooth="yes"/>
      <point x="501.069" y="0" type="line" smooth="yes"/>
      <point x="543.92" y="0"/>
      <point x="560.357" y="19.9643"/>
      <point x="562.491" y="61.0285" type="curve" smooth="yes"/>
      <point x="567.109" y="149.911"/>
      <point x="563.808" y="241.418"/>
      <point x="563.808" y="330.55" type="curve" smooth="yes"/>
      <point x="563.808" y="338.616"/>
      <point x="568.733" y="342.572"/>
      <point x="576.503" y="342.572" type="curve" smooth="yes"/>
      <point x="583.809" y="342.572"/>
      <point x="589.612" y="339.446"/>
      <point x="594.001" y="333.709" type="curve" smooth="yes"/>
      <point x="648.559" y="262.385"/>
      <point x="701.896" y="177.428"/>
      <point x="753.981" y="102.792" type="curve" smooth="yes"/>
      <point x="771.459" y="77.747"/>
      <point x="788.251" y="49.456"/>
      <point x="807.683" y="26.08" type="curve" smooth="yes"/>
      <point x="822.268" y="8.53438"/>
      <point x="834.095" y="0"/>
      <point x="857.905" y="0" type="curve" smooth="yes"/>
      <point x="1220.24" y="0" type="line" smooth="yes"/>
      <point x="1243.29" y="0"/>
      <point x="1305.57" y="0.725038"/>
      <point x="1305.57" y="36.2018" type="curve" smooth="yes"/>
      <point x="1305.57" y="60.1383"/>
      <point x="1279.85" y="87.9022"/>
      <point x="1264.97" y="104.232" type="curve" smooth="yes"/>
      <point x="1183.88" y="193.239"/>
      <point x="1098.04" y="278.329"/>
      <point x="1018.42" y="368.667" type="curve" smooth="yes"/>
      <point x="1014.44" y="373.174"/>
      <point x="1009.99" y="378.65"/>
      <point x="1009.99" y="385.062" type="curve" smooth="yes"/>
      <point x="1009.99" y="393.845"/>
      <point x="1018.64" y="398.634"/>
      <point x="1025.15" y="402.258" type="curve" smooth="yes"/>
      <point x="1057.6" y="420.309"/>
      <point x="1087.41" y="437.923"/>
      <point x="1115.68" y="462.354" type="curve" smooth="yes"/>
      <point x="1229.32" y="560.552"/>
      <point x="1281.7" y="712.255"/>
      <point x="1281.7" y="859.712" type="curve" smooth="yes"/>
      <point x="1281.7" y="1256.68"/>
      <point x="983.744" y="1373.78"/>
    </contour>
    <contour>
      <point x="683.298" y="690.057" type="curve" smooth="yes"/>
      <point x="564.507" y="690.057" type="line"/>
      <point x="564.13" y="1001.5" type="line"/>
      <point x="683.261" y="1001.5" type="line" smooth="yes"/>
      <point x="771.856" y="1001.5"/>
      <point x="812.048" y="953.998"/>
      <point x="812.048" y="867.538" type="curve" smooth="yes"/>
      <point x="812.048" y="775.271"/>
      <point x="794.865" y="690.057"/>
    </contour>
  </outline>
</glyph>
<glyph name="S" format="2">
  <advance width="977"/>
  <unicode hex="0053"/>
  <anchor x="458" y="-32" name="bottom"/>
  <anchor x="458" y="1347" name="top"/>
  <outline>
    <contour>
      <point x="867.349" y="1293.64" type="curve" smooth="yes"/>
      <point x="867.349" y="1321.43"/>
      <point x="852.049" y="1335.18"/>
      <point x="827.476" y="1344.27" type="curve" smooth="yes"/>
      <point x="750.367" y="1372.79"/>
      <point x="660.55" y="1381.09"/>
      <point x="578.935" y="1381.09" type="curve" smooth="yes"/>
      <point x="298.215" y="1381.09"/>
      <point x="86.4713" y="1277.49"/>
      <point x="86.4713" y="965.268" type="curve" smooth="yes"/>
      <point x="86.4713" y="624.295"/>
      <point x="302.763" y="675.987"/>
      <point x="397.066" y="484.473" type="curve" smooth="yes"/>
      <point x="405.396" y="467.556"/>
      <point x="413.114" y="448.34"/>
      <point x="413.114" y="429.156" type="curve" smooth="yes"/>
      <point x="413.114" y="391.577"/>
      <point x="381.261" y="387.429"/>
      <point x="352.228" y="387.429" type="curve" smooth="yes"/>
      <point x="298.126" y="387.429"/>
      <point x="245.525" y="391.292"/>
      <point x="192.476" y="402.072" type="curve" smooth="yes"/>
      <point x="182.687" y="404.061"/>
      <point x="172.942" y="405.809"/>
      <point x="162.912" y="405.809" type="curve" smooth="yes"/>
      <point x="124.573" y="405.809"/>
      <point x="112.899" y="381.991"/>
      <point x="106.173" y="348.272" type="curve" smooth="yes"/>
      <point x="88.5215" y="259.787"/>
      <point x="75.5089" y="169.143"/>
      <point x="60.7189" y="80.0553" type="curve" smooth="yes"/>
      <point x="59.8784" y="74.9928"/>
      <point x="59.3091" y="69.9096"/>
      <point x="59.3091" y="64.7712" type="curve" smooth="yes"/>
      <point x="59.3091" y="35.8762"/>
      <point x="74.8585" y="21.8416"/>
      <point x="100.974" y="13.6195" type="curve" smooth="yes"/>
      <point x="180.587" y="-11.4458"/>
      <point x="273.218" y="-15.594"/>
      <point x="356.201" y="-15.594" type="curve" smooth="yes"/>
      <point x="647.773" y="-15.594"/>
      <point x="914.303" y="55.8002"/>
      <point x="914.303" y="402.185" type="curve" smooth="yes"/>
      <point x="914.115" y="418.275" type="line"/>
      <point x="906.016" y="616.158"/>
      <point x="852.034" y="656.048"/>
      <point x="708.471" y="765.269" type="curve" smooth="yes"/>
      <point x="667.122" y="796.726"/>
      <point x="631.936" y="830.041"/>
      <point x="606.585" y="876.063" type="curve" smooth="yes"/>
      <point x="597.341" y="892.846"/>
      <point x="587.764" y="913.281"/>
      <point x="587.764" y="932.906" type="curve" smooth="yes"/>
      <point x="587.764" y="970.946"/>
      <point x="626.879" y="972.818"/>
      <point x="655.111" y="972.818" type="curve" smooth="yes"/>
      <point x="690.515" y="972.818"/>
      <point x="724.389" y="962.151"/>
      <point x="758.123" y="962.151" type="curve" smooth="yes"/>
      <point x="793.992" y="962.151"/>
      <point x="804.639" y="983.8"/>
      <point x="811.984" y="1015.25" type="curve" smooth="yes"/>
      <point x="832.064" y="1101.21"/>
      <point x="848.225" y="1189.36"/>
      <point x="865.388" y="1276.02" type="curve" smooth="yes"/>
      <point x="866.541" y="1281.84"/>
      <point x="867.349" y="1287.69"/>
    </contour>
  </outline>
</glyph>
<glyph name="T" format="2">
  <advance width="1112"/>
  <unicode hex="0054"/>
  <anchor x="555" y="0" name="bottom"/>
  <anchor x="555" y="687" name="center"/>
  <anchor x="555" y="1374" name="top"/>
  <outline>
    <contour>
      <point x="50.9379" y="1310.91" type="curve" smooth="yes"/>
      <point x="50.9379" y="1251.38"/>
      <point x="53.2659" y="1191.65"/>
      <point x="54.1464" y="1132.1" type="curve" smooth="yes"/>
      <point x="54.8213" y="1086.47"/>
      <point x="53.5223" y="1040.07"/>
      <point x="55.8449" y="994.551" type="curve" smooth="yes"/>
      <point x="57.936" y="953.563"/>
      <point x="74.7411" y="933.586"/>
      <point x="117.349" y="933.586" type="curve" smooth="yes"/>
      <point x="297.617" y="933.586" type="line" smooth="yes"/>
      <point x="311.023" y="933.586"/>
      <point x="318.093" y="926.63"/>
      <point x="318.093" y="913.182" type="curve" smooth="yes"/>
      <point x="318.421" y="717.242" type="line" smooth="yes"/>
      <point x="318.421" y="498.883"/>
      <point x="314.785" y="280.513"/>
      <point x="314.785" y="62.1845" type="curve" smooth="yes"/>
      <point x="314.785" y="20.5903"/>
      <point x="334.234" y="0"/>
      <point x="376.253" y="0" type="curve" smooth="yes"/>
      <point x="711.827" y="0" type="line" smooth="yes"/>
      <point x="753.747" y="0"/>
      <point x="773.292" y="20.5714"/>
      <point x="773.292" y="62.1106" type="curve" smooth="yes"/>
      <point x="773.292" y="280.468"/>
      <point x="770.016" y="498.859"/>
      <point x="770.016" y="717.242" type="curve" smooth="yes"/>
      <point x="770.311" y="913.174" type="line" smooth="yes"/>
      <point x="770.311" y="926.628"/>
      <point x="777.373" y="933.586"/>
      <point x="790.788" y="933.586" type="curve" smooth="yes"/>
      <point x="994.651" y="933.586" type="line" smooth="yes"/>
      <point x="1037.26" y="933.586"/>
      <point x="1054.06" y="953.563"/>
      <point x="1056.16" y="994.551" type="curve" smooth="yes"/>
      <point x="1058.48" y="1040.07"/>
      <point x="1057.18" y="1086.47"/>
      <point x="1057.85" y="1132.1" type="curve" smooth="yes"/>
      <point x="1058.73" y="1191.65"/>
      <point x="1061.06" y="1251.38"/>
      <point x="1061.06" y="1310.91" type="curve" smooth="yes"/>
      <point x="1061.06" y="1353.09"/>
      <point x="1042.6" y="1373.78"/>
      <point x="999.57" y="1373.78" type="curve" smooth="yes"/>
      <point x="112.43" y="1373.78" type="line" smooth="yes"/>
      <point x="69.3962" y="1373.78"/>
      <point x="50.9379" y="1353.09"/>
    </contour>
  </outline>
</glyph>
<glyph name="U" format="2">
  <advance width="1430"/>
  <unicode hex="0055"/>
  <anchor x="714" y="0" name="bottom"/>
  <anchor x="1079" y="19" name="ogonek"/>
  <anchor x="714" y="1440" name="top"/>
  <anchor x="1271" y="1297" name="topright"/>
  <outline>
    <contour>
      <point x="549.09" y="716.867" type="line" smooth="yes"/>
      <point x="549.09" y="849.301"/>
      <point x="548.777" y="981.735"/>
      <point x="548.154" y="1114.17" type="curve" smooth="yes"/>
      <point x="547.872" y="1174.13"/>
      <point x="551.835" y="1255.44"/>
      <point x="546.987" y="1312.82" type="curve" smooth="yes"/>
      <point x="543.522" y="1353.81"/>
      <point x="529.725" y="1373.78"/>
      <point x="485.57" y="1373.78" type="curve" smooth="yes"/>
      <point x="150.104" y="1373.78" type="line" smooth="yes"/>
      <point x="106.572" y="1373.78"/>
      <point x="88.6023" y="1353"/>
      <point x="88.6023" y="1310.56" type="curve" smooth="yes"/>
      <point x="88.6023" y="1244.72"/>
      <point x="91.7683" y="1178.55"/>
      <point x="92.9195" y="1112.68" type="curve" smooth="yes"/>
      <point x="95.2252" y="980.75"/>
      <point x="96.3839" y="848.799"/>
      <point x="96.3839" y="716.847" type="curve" smooth="yes"/>
      <point x="96.3839" y="660.676"/>
      <point x="95.7531" y="604.505"/>
      <point x="95.7531" y="548.335" type="curve" smooth="yes"/>
      <point x="95.7531" y="159.499"/>
      <point x="354.051" y="-14.0911"/>
      <point x="719.249" y="-14.0911" type="curve" smooth="yes"/>
      <point x="1033.98" y="-14.0911"/>
      <point x="1334.25" y="218.089"/>
      <point x="1334.25" y="548.335" type="curve" smooth="yes"/>
      <point x="1334.25" y="604.505"/>
      <point x="1333.62" y="660.676"/>
      <point x="1333.62" y="716.847" type="curve" smooth="yes"/>
      <point x="1333.62" y="848.799"/>
      <point x="1334.77" y="980.75"/>
      <point x="1337.08" y="1112.68" type="curve" smooth="yes"/>
      <point x="1338.23" y="1178.55"/>
      <point x="1341.4" y="1244.72"/>
      <point x="1341.4" y="1310.56" type="curve" smooth="yes"/>
      <point x="1341.4" y="1353"/>
      <point x="1323.43" y="1373.78"/>
      <point x="1279.9" y="1373.78" type="curve" smooth="yes"/>
      <point x="950.394" y="1373.78" type="line" smooth="yes"/>
      <point x="906.253" y="1373.78"/>
      <point x="892.452" y="1353.82"/>
      <point x="888.979" y="1312.83" type="curve" smooth="yes"/>
      <point x="884.117" y="1255.46"/>
      <point x="888.062" y="1174.14"/>
      <point x="887.77" y="1114.18" type="curve" smooth="yes"/>
      <point x="887.125" y="981.743"/>
      <point x="886.8" y="849.305"/>
      <point x="886.8" y="716.867" type="curve" smooth="yes"/>
      <point x="886.963" y="554.325" type="line" smooth="yes"/>
      <point x="886.963" y="448.58"/>
      <point x="808.728" y="406.53"/>
      <point x="713.03" y="406.53" type="curve" smooth="yes"/>
      <point x="610.669" y="406.53"/>
      <point x="548.605" y="445.26"/>
      <point x="548.933" y="554.325" type="curve" smooth="yes"/>
    </contour>
  </outline>
</glyph>
<glyph name="V" format="2">
  <advance width="1405"/>
  <unicode hex="0056"/>
  <anchor x="703" y="0" name="bottom"/>
  <anchor x="703" y="1374" name="top"/>
  <outline>
    <contour>
      <point x="496.903" y="1373.78" type="curve" smooth="yes"/>
      <point x="134.956" y="1373.78" type="line" smooth="yes"/>
      <point x="106.439" y="1373.78"/>
      <point x="66.2298" y="1368.7"/>
      <point x="66.2298" y="1331.3" type="curve" smooth="yes"/>
      <point x="66.2298" y="1315.02"/>
      <point x="72.8647" y="1299.4"/>
      <point x="79.623" y="1284.97" type="curve" smooth="yes"/>
      <point x="184.439" y="1061.21"/>
      <point x="291.457" y="838.758"/>
      <point x="394.114" y="613.939" type="curve" smooth="yes"/>
      <point x="478.48" y="429.175"/>
      <point x="558.706" y="241.293"/>
      <point x="647.534" y="58.708" type="curve" smooth="yes"/>
      <point x="656.89" y="39.4752"/>
      <point x="676.204" y="-1.63076"/>
      <point x="703.036" y="-1.63076" type="curve" smooth="yes"/>
      <point x="729.875" y="-1.63076"/>
      <point x="749.172" y="39.5012"/>
      <point x="758.518" y="58.7396" type="curve" smooth="yes"/>
      <point x="847.221" y="241.325"/>
      <point x="927.318" y="429.205"/>
      <point x="1011.56" y="613.968" type="curve" smooth="yes"/>
      <point x="1114.06" y="838.786"/>
      <point x="1220.92" y="1061.25"/>
      <point x="1325.58" y="1285" type="curve" smooth="yes"/>
      <point x="1332.32" y="1299.42"/>
      <point x="1338.94" y="1315.03"/>
      <point x="1338.94" y="1331.29" type="curve" smooth="yes"/>
      <point x="1338.94" y="1368.69"/>
      <point x="1298.76" y="1373.78"/>
      <point x="1270.23" y="1373.78" type="curve" smooth="yes"/>
      <point x="957.442" y="1373.78" type="line" smooth="yes"/>
      <point x="925.826" y="1373.78"/>
      <point x="913.498" y="1360.99"/>
      <point x="900.195" y="1334.56" type="curve" smooth="yes"/>
      <point x="883.578" y="1301.55"/>
      <point x="872.156" y="1261.81"/>
      <point x="858.86" y="1227.06" type="curve" smooth="yes"/>
      <point x="820.069" y="1125.66"/>
      <point x="784.33" y="1022.3"/>
      <point x="743.328" y="921.853" type="curve" smooth="yes"/>
      <point x="740.884" y="915.866"/>
      <point x="733.891" y="895.743"/>
      <point x="723.981" y="895.743" type="curve" smooth="yes"/>
      <point x="714.024" y="895.743"/>
      <point x="707.23" y="916.106"/>
      <point x="704.872" y="922.087" type="curve" smooth="yes"/>
      <point x="665.369" y="1022.27"/>
      <point x="631.218" y="1125.36"/>
      <point x="594.049" y="1226.51" type="curve" smooth="yes"/>
      <point x="581.319" y="1261.15"/>
      <point x="570.533" y="1300.84"/>
      <point x="554.451" y="1333.78" type="curve" smooth="yes"/>
      <point x="541.287" y="1360.73"/>
      <point x="529.026" y="1373.78"/>
    </contour>
  </outline>
</glyph>
<glyph name="W" format="2">
  <advance width="2019"/>
  <unicode hex="0057"/>
  <anchor x="1011" y="0" name="bottom"/>
  <anchor x="1011" y="1409" name="top"/>
  <outline>
    <contour>
      <point x="635.893" y="-6.57107" type="curve" smooth="yes"/>
      <point x="660.885" y="-6.57107"/>
      <point x="681.474" y="26.2449"/>
      <point x="692.869" y="44.3216" type="curve" smooth="yes"/>
      <point x="816.124" y="239.84"/>
      <point x="923.674" y="445.361"/>
      <point x="1044.83" y="642.043" type="curve" smooth="yes"/>
      <point x="1048.55" y="648.077"/>
      <point x="1054.41" y="658.085"/>
      <point x="1062.98" y="658.085" type="curve" smooth="yes"/>
      <point x="1071.81" y="658.085"/>
      <point x="1077.33" y="647.359"/>
      <point x="1080.77" y="641.098" type="curve" smooth="yes"/>
      <point x="1185.01" y="451.249"/>
      <point x="1275.37" y="253.326"/>
      <point x="1381.54" y="64.3906" type="curve" smooth="yes"/>
      <point x="1392.2" y="45.432"/>
      <point x="1413.9" y="5.2991"/>
      <point x="1440.2" y="5.2991" type="curve" smooth="yes"/>
      <point x="1468.3" y="5.2991"/>
      <point x="1485.52" y="52.5117"/>
      <point x="1493.06" y="73.1152" type="curve" smooth="yes"/>
      <point x="1569.74" y="282.738"/>
      <point x="1641.83" y="494.005"/>
      <point x="1719.34" y="703.376" type="curve" smooth="yes"/>
      <point x="1792.06" y="899.804"/>
      <point x="1869.75" y="1093.73"/>
      <point x="1946.86" y="1288.41" type="curve" smooth="yes"/>
      <point x="1952.04" y="1301.48"/>
      <point x="1956.73" y="1315.25"/>
      <point x="1956.73" y="1329.51" type="curve" smooth="yes"/>
      <point x="1956.73" y="1367.23"/>
      <point x="1920.15" y="1373.78"/>
      <point x="1889.91" y="1373.78" type="curve" smooth="yes"/>
      <point x="1573.53" y="1373.78" type="line" smooth="yes"/>
      <point x="1543.57" y="1373.78"/>
      <point x="1527.99" y="1360.9"/>
      <point x="1516.24" y="1334.41" type="curve" smooth="yes"/>
      <point x="1502.98" y="1304.53"/>
      <point x="1492.57" y="1272.35"/>
      <point x="1481.01" y="1241.71" type="curve" smooth="yes"/>
      <point x="1444.41" y="1144.74"/>
      <point x="1411.51" y="1045.46"/>
      <point x="1372.79" y="949.434" type="curve" smooth="yes"/>
      <point x="1370.33" y="943.32"/>
      <point x="1364.01" y="924.508"/>
      <point x="1354.13" y="924.508" type="curve" smooth="yes"/>
      <point x="1344.47" y="924.508"/>
      <point x="1337.45" y="942.379"/>
      <point x="1334.64" y="948.468" type="curve" smooth="yes"/>
      <point x="1290.34" y="1044.74"/>
      <point x="1252.02" y="1144.98"/>
      <point x="1210.83" y="1242.72" type="curve" smooth="yes"/>
      <point x="1197.79" y="1273.67"/>
      <point x="1185.91" y="1306.11"/>
      <point x="1171.34" y="1336.3" type="curve" smooth="yes"/>
      <point x="1159.17" y="1361.5"/>
      <point x="1143.64" y="1373.78"/>
      <point x="1114.78" y="1373.78" type="curve" smooth="yes"/>
      <point x="803.212" y="1373.78" type="line" smooth="yes"/>
      <point x="775.142" y="1373.78"/>
      <point x="733.435" y="1369"/>
      <point x="733.435" y="1332.13" type="curve" smooth="yes"/>
      <point x="733.435" y="1290.37"/>
      <point x="819.986" y="1163.52"/>
      <point x="819.986" y="1142.75" type="curve" smooth="yes"/>
      <point x="819.986" y="1136.26"/>
      <point x="744.117" y="941.531"/>
      <point x="735.103" y="920.452" type="curve" smooth="yes"/>
      <point x="732.496" y="914.355"/>
      <point x="725.837" y="895.874"/>
      <point x="716.051" y="895.874" type="curve" smooth="yes"/>
      <point x="706.275" y="895.874"/>
      <point x="699.562" y="914.306"/>
      <point x="696.93" y="920.404" type="curve" smooth="yes"/>
      <point x="651.284" y="1026.14"/>
      <point x="611.874" y="1135.52"/>
      <point x="568.435" y="1242.3" type="curve" smooth="yes"/>
      <point x="555.849" y="1273.24"/>
      <point x="544.371" y="1305.71"/>
      <point x="530.128" y="1335.86" type="curve" smooth="yes"/>
      <point x="518.078" y="1361.36"/>
      <point x="502.522" y="1373.78"/>
      <point x="473.413" y="1373.78" type="curve" smooth="yes"/>
      <point x="132.281" y="1373.78" type="line" smooth="yes"/>
      <point x="102.767" y="1373.78"/>
      <point x="64.5029" y="1367.94"/>
      <point x="64.5029" y="1330.44" type="curve" smooth="yes"/>
      <point x="64.5029" y="1315.13"/>
      <point x="70.1439" y="1300.39"/>
      <point x="76.116" y="1286.58" type="curve" smooth="yes"/>
      <point x="167.237" y="1075.87"/>
      <point x="259.01" y="866.071"/>
      <point x="345.392" y="653.3" type="curve" smooth="yes"/>
      <point x="426.278" y="454.064"/>
      <point x="501.801" y="252.45"/>
      <point x="583.609" y="53.6635" type="curve" smooth="yes"/>
      <point x="591.921" y="33.4668"/>
      <point x="608.65" y="-6.57107"/>
    </contour>
  </outline>
</glyph>
<glyph name="X" format="2">
  <advance width="1350"/>
  <unicode hex="0058"/>
  <anchor x="677" y="0" name="bottom"/>
  <anchor x="677" y="1374" name="top"/>
  <outline>
    <contour>
      <point x="374.217" y="707.683" type="curve" smooth="yes"/>
      <point x="374.217" y="689.714"/>
      <point x="45.5842" y="157.438"/>
      <point x="7.38817" y="94.5037" type="curve" smooth="yes"/>
      <point x="-2.31934" y="78.5091"/>
      <point x="-13.3252" y="59.2774"/>
      <point x="-13.3252" y="39.929" type="curve" smooth="yes"/>
      <point x="-13.3252" y="3.42284"/>
      <point x="32.8122" y="0"/>
      <point x="59.614" y="0" type="curve" smooth="yes"/>
      <point x="480.082" y="0" type="line" smooth="yes"/>
      <point x="510.041" y="0"/>
      <point x="526.756" y="13.2423"/>
      <point x="537.761" y="40.3622" type="curve" smooth="yes"/>
      <point x="565.653" y="109.098"/>
      <point x="585.457" y="181.477"/>
      <point x="613.373" y="250.158" type="curve" smooth="yes"/>
      <point x="616" y="256.62"/>
      <point x="621.055" y="271.567"/>
      <point x="630.715" y="271.567" type="curve" smooth="yes"/>
      <point x="639.437" y="271.567"/>
      <point x="646.376" y="259.737"/>
      <point x="650.231" y="253.863" type="curve" smooth="yes"/>
      <point x="698.169" y="180.812"/>
      <point x="737.682" y="101.32"/>
      <point x="786.984" y="29.2323" type="curve" smooth="yes"/>
      <point x="800.412" y="9.59847"/>
      <point x="814.865" y="0"/>
      <point x="839.281" y="0" type="curve" smooth="yes"/>
      <point x="1287.79" y="0" type="line" smooth="yes"/>
      <point x="1314.37" y="0"/>
      <point x="1361.29" y="3.21535"/>
      <point x="1361.29" y="39.6668" type="curve" smooth="yes"/>
      <point x="1361.29" y="59.3736"/>
      <point x="1349.68" y="78.9869"/>
      <point x="1339.63" y="95.1279" type="curve" smooth="yes"/>
      <point x="1301.83" y="155.824"/>
      <point x="978.352" y="664.776"/>
      <point x="978.352" y="682.652" type="curve" smooth="yes"/>
      <point x="978.352" y="700.296"/>
      <point x="1302.09" y="1217.58"/>
      <point x="1339.77" y="1279.05" type="curve" smooth="yes"/>
      <point x="1349.61" y="1295.1"/>
      <point x="1360.84" y="1314.47"/>
      <point x="1360.84" y="1333.95" type="curve" smooth="yes"/>
      <point x="1360.84" y="1370.43"/>
      <point x="1314.41" y="1373.78"/>
      <point x="1287.7" y="1373.78" type="curve" smooth="yes"/>
      <point x="881.518" y="1373.78" type="line" smooth="yes"/>
      <point x="851.891" y="1373.78"/>
      <point x="835.871" y="1360.93"/>
      <point x="824.276" y="1334.58" type="curve" smooth="yes"/>
      <point x="794.576" y="1267.08"/>
      <point x="773.965" y="1195.14"/>
      <point x="744.798" y="1127.41" type="curve" smooth="yes"/>
      <point x="742.022" y="1120.96"/>
      <point x="736.869" y="1106.83"/>
      <point x="727.365" y="1106.83" type="curve" smooth="yes"/>
      <point x="718.728" y="1106.83"/>
      <point x="711.972" y="1118.21"/>
      <point x="708.114" y="1124.06" type="curve" smooth="yes"/>
      <point x="660.86" y="1195.77"/>
      <point x="621.867" y="1273.78"/>
      <point x="573.369" y="1344.6" type="curve" smooth="yes"/>
      <point x="559.952" y="1364.2"/>
      <point x="545.474" y="1373.78"/>
      <point x="521.105" y="1373.78" type="curve" smooth="yes"/>
      <point x="78.461" y="1373.78" type="line" smooth="yes"/>
      <point x="51.7759" y="1373.78"/>
      <point x="5.24705" y="1370.46"/>
      <point x="5.24705" y="1333.99" type="curve" smooth="yes"/>
      <point x="5.24705" y="1314.45"/>
      <point x="16.5647" y="1295.05"/>
      <point x="26.4446" y="1278.97" type="curve" smooth="yes"/>
      <point x="62.7682" y="1219.88"/>
      <point x="374.217" y="724.753"/>
    </contour>
  </outline>
</glyph>
<glyph name="Y" format="2">
  <advance width="1341"/>
  <unicode hex="0059"/>
  <anchor x="669" y="0" name="bottom"/>
  <anchor x="737" y="1450" name="top"/>
  <anchor x="-20" y="1374" name="topleft"/>
  <outline>
    <contour>
      <point x="432.398" y="360.118" type="curve" smooth="yes"/>
      <point x="432.398" y="260.809"/>
      <point x="429.845" y="161.483"/>
      <point x="429.845" y="62.1837" type="curve" smooth="yes"/>
      <point x="429.845" y="20.5858"/>
      <point x="449.286" y="0"/>
      <point x="491.312" y="0" type="curve" smooth="yes"/>
      <point x="826.887" y="0" type="line" smooth="yes"/>
      <point x="868.815" y="0"/>
      <point x="888.353" y="20.5668"/>
      <point x="888.353" y="62.11" type="curve" smooth="yes"/>
      <point x="888.353" y="161.367"/>
      <point x="886.053" y="260.647"/>
      <point x="886.053" y="359.912" type="curve" smooth="yes"/>
      <point x="886.053" y="360.953"/>
      <point x="887.596" y="367.76"/>
      <point x="888.013" y="368.766" type="curve" smooth="yes"/>
      <point x="921.191" y="448.813"/>
      <point x="962.951" y="527.528"/>
      <point x="1000.12" y="605.955" type="curve" smooth="yes"/>
      <point x="1070.35" y="754.124"/>
      <point x="1141.06" y="902.07"/>
      <point x="1213.28" y="1049.28" type="curve" smooth="yes"/>
      <point x="1251.78" y="1127.77"/>
      <point x="1292.25" y="1205.42"/>
      <point x="1330.25" y="1284.11" type="curve" smooth="yes"/>
      <point x="1337.39" y="1298.89"/>
      <point x="1344.61" y="1314.89"/>
      <point x="1344.61" y="1331.71" type="curve" smooth="yes"/>
      <point x="1344.61" y="1368.74"/>
      <point x="1303.64" y="1373.78"/>
      <point x="1275.34" y="1373.78" type="curve" smooth="yes"/>
      <point x="853.76" y="1373.78" type="line" smooth="yes"/>
      <point x="819.492" y="1373.78"/>
      <point x="805.114" y="1358.91"/>
      <point x="794.445" y="1328.25" type="curve" smooth="yes"/>
      <point x="783.714" y="1297.4"/>
      <point x="777.115" y="1263.16"/>
      <point x="768.73" y="1231.46" type="curve" smooth="yes"/>
      <point x="743.171" y="1134.84"/>
      <point x="720.39" y="1036.78"/>
      <point x="692.605" y="940.834" type="curve" smooth="yes"/>
      <point x="691.253" y="936.164"/>
      <point x="683.686" y="903.441"/>
      <point x="673.022" y="903.441" type="curve" smooth="yes"/>
      <point x="662.395" y="903.441"/>
      <point x="654.444" y="935.825"/>
      <point x="653" y="940.563" type="curve" smooth="yes"/>
      <point x="624.863" y="1032.88"/>
      <point x="601.578" y="1127.35"/>
      <point x="575.618" y="1220.37" type="curve" smooth="yes"/>
      <point x="565.682" y="1255.97"/>
      <point x="557.723" y="1294.48"/>
      <point x="545.133" y="1329.07" type="curve" smooth="yes"/>
      <point x="534.176" y="1359.18"/>
      <point x="519.846" y="1373.78"/>
      <point x="486.046" y="1373.78" type="curve" smooth="yes"/>
      <point x="64.6778" y="1373.78" type="line" smooth="yes"/>
      <point x="35.9817" y="1373.78"/>
      <point x="-3.93519" y="1368.34"/>
      <point x="-3.93519" y="1331.21" type="curve" smooth="yes"/>
      <point x="-3.93519" y="1315.01"/>
      <point x="2.61288" y="1299.55"/>
      <point x="9.25045" y="1285.15" type="curve" smooth="yes"/>
      <point x="45.5522" y="1206.39"/>
      <point x="84.1883" y="1128.58"/>
      <point x="120.918" y="1049.99" type="curve" smooth="yes"/>
      <point x="189.807" y="902.584"/>
      <point x="257.164" y="754.466"/>
      <point x="323.991" y="606.114" type="curve" smooth="yes"/>
      <point x="359.396" y="527.517"/>
      <point x="398.96" y="448.672"/>
      <point x="430.607" y="368.616" type="curve" smooth="yes"/>
      <point x="431.024" y="367.561"/>
      <point x="432.398" y="361.211"/>
    </contour>
  </outline>
</glyph>
<glyph name="Z" format="2">
  <advance width="1094"/>
  <unicode hex="005A"/>
  <anchor x="571" y="0" name="bottom"/>
  <anchor x="571" y="1374" name="top"/>
  <outline>
    <contour>
      <point x="91.3693" y="0" type="curve" smooth="yes"/>
      <point x="974.955" y="0" type="line" smooth="yes"/>
      <point x="1018.1" y="0"/>
      <point x="1036.44" y="20.7023"/>
      <point x="1036.44" y="62.9495" type="curve" smooth="yes"/>
      <point x="1036.44" y="122.72"/>
      <point x="1033.94" y="182.718"/>
      <point x="1032.96" y="242.505" type="curve" smooth="yes"/>
      <point x="1032.22" y="288.334"/>
      <point x="1033.44" y="334.925"/>
      <point x="1031.04" y="380.638" type="curve" smooth="yes"/>
      <point x="1028.88" y="421.552"/>
      <point x="1012.06" y="441.494"/>
      <point x="969.534" y="441.494" type="curve" smooth="yes"/>
      <point x="717.464" y="441.494" type="line" smooth="yes"/>
      <point x="707.755" y="441.494"/>
      <point x="695.156" y="443.56"/>
      <point x="695.156" y="456.1" type="curve" smooth="yes"/>
      <point x="695.156" y="460.922"/>
      <point x="696.796" y="465.64"/>
      <point x="698.632" y="470.024" type="curve" smooth="yes"/>
      <point x="813.348" y="743.998"/>
      <point x="936.931" y="1013.96"/>
      <point x="1054.56" y="1286.59" type="curve" smooth="yes"/>
      <point x="1060.55" y="1300.46"/>
      <point x="1066.29" y="1315.15"/>
      <point x="1066.29" y="1330.54" type="curve" smooth="yes"/>
      <point x="1066.29" y="1367.95"/>
      <point x="1027.99" y="1373.78"/>
      <point x="998.51" y="1373.78" type="curve" smooth="yes"/>
      <point x="117.352" y="1373.78" type="line" smooth="yes"/>
      <point x="74.3714" y="1373.78"/>
      <point x="55.8601" y="1353.1"/>
      <point x="55.8601" y="1310.95" type="curve" smooth="yes"/>
      <point x="55.8601" y="1251.41"/>
      <point x="58.1243" y="1191.68"/>
      <point x="58.9807" y="1132.13" type="curve" smooth="yes"/>
      <point x="59.637" y="1086.49"/>
      <point x="58.3221" y="1040.09"/>
      <point x="60.6326" y="994.564" type="curve" smooth="yes"/>
      <point x="62.7132" y="953.567"/>
      <point x="79.5183" y="933.586"/>
      <point x="122.135" y="933.586" type="curve" smooth="yes"/>
      <point x="376.004" y="933.586" type="line" smooth="yes"/>
      <point x="385.696" y="933.586"/>
      <point x="398.331" y="931.536"/>
      <point x="398.331" y="918.999" type="curve" smooth="yes"/>
      <point x="398.331" y="914.157"/>
      <point x="396.672" y="909.418"/>
      <point x="394.82" y="905.02" type="curve" smooth="yes"/>
      <point x="309.14" y="701.551"/>
      <point x="220.21" y="499.113"/>
      <point x="130.311" y="297.475" type="curve" smooth="yes"/>
      <point x="99.042" y="227.339"/>
      <point x="66.1108" y="157.803"/>
      <point x="35.4193" y="87.4392" type="curve" smooth="yes"/>
      <point x="29.3263" y="73.4705"/>
      <point x="23.4517" y="58.6513"/>
      <point x="23.4517" y="43.1243" type="curve" smooth="yes"/>
      <point x="23.4517" y="5.74075"/>
      <point x="61.9765" y="0"/>
    </contour>
  </outline>
</glyph>
<glyph name="bracketleft" format="2">
  <advance width="938"/>
  <unicode hex="005B"/>
  <outline>
    <contour>
      <point x="130.114" y="1593.61" type="curve" smooth="yes"/>
      <point x="130.114" y="1499.51"/>
      <point x="133.677" y="1405.13"/>
      <point x="134.987" y="1311.01" type="curve" smooth="yes"/>
      <point x="137.741" y="1113.19"/>
      <point x="139.116" y="915.342"/>
      <point x="139.116" y="717.498" type="curve" smooth="yes"/>
      <point x="139.116" y="494.598"/>
      <point x="137.371" y="271.698"/>
      <point x="133.887" y="48.8258" type="curve" smooth="yes"/>
      <point x="132.23" y="-57.1848"/>
      <point x="127.728" y="-163.567"/>
      <point x="127.728" y="-269.542" type="curve" smooth="yes"/>
      <point x="127.728" y="-311.796"/>
      <point x="146.017" y="-332.49"/>
      <point x="189.196" y="-332.49" type="curve" smooth="yes"/>
      <point x="804.681" y="-332.49" type="line" smooth="yes"/>
      <point x="848.191" y="-332.49"/>
      <point x="866.148" y="-311.735"/>
      <point x="866.148" y="-269.307" type="curve" smooth="yes"/>
      <point x="866.148" y="-216.812"/>
      <point x="863.446" y="-163.995"/>
      <point x="862.263" y="-111.484" type="curve" smooth="yes"/>
      <point x="861.383" y="-72.4178"/>
      <point x="862.777" y="-31.9706"/>
      <point x="859.783" y="6.89401" type="curve" smooth="yes"/>
      <point x="856.661" y="47.4278"/>
      <point x="841.114" y="67.2432"/>
      <point x="798.304" y="67.2432" type="curve" smooth="yes"/>
      <point x="601.98" y="67.2432" type="line" smooth="yes"/>
      <point x="588.614" y="67.2432"/>
      <point x="581.501" y="74.1913"/>
      <point x="581.501" y="87.6179" type="curve" smooth="yes"/>
      <point x="581.501" y="297.467"/>
      <point x="579.933" y="507.324"/>
      <point x="579.933" y="717.179" type="curve" smooth="yes"/>
      <point x="579.933" y="889.157"/>
      <point x="580.989" y="1061.14"/>
      <point x="580.989" y="1233.11" type="curve" smooth="yes"/>
      <point x="580.989" y="1246.55"/>
      <point x="588.078" y="1253.5"/>
      <point x="601.467" y="1253.5" type="curve" smooth="yes"/>
      <point x="796.283" y="1253.5" type="line" smooth="yes"/>
      <point x="839.214" y="1253.5"/>
      <point x="854.767" y="1273.38"/>
      <point x="857.766" y="1314.04" type="curve" smooth="yes"/>
      <point x="860.666" y="1353.36"/>
      <point x="859.141" y="1394.26"/>
      <point x="859.913" y="1433.77" type="curve" smooth="yes"/>
      <point x="860.952" y="1486.9"/>
      <point x="863.373" y="1540.28"/>
      <point x="863.373" y="1593.4" type="curve" smooth="yes"/>
      <point x="863.373" y="1635.69"/>
      <point x="845.154" y="1656.4"/>
      <point x="801.9" y="1656.4" type="curve" smooth="yes"/>
      <point x="191.585" y="1656.4" type="line" smooth="yes"/>
      <point x="148.626" y="1656.4"/>
      <point x="130.114" y="1635.74"/>
    </contour>
  </outline>
</glyph>
<glyph name="backslash" format="2">
  <advance width="768"/>
  <unicode hex="005C"/>
  <outline>
    <contour>
      <point x="305.715" y="1632.2" type="curve" smooth="yes"/>
      <point x="0.409586" y="1632.2" type="line" smooth="yes"/>
      <point x="-31.428" y="1632.2"/>
      <point x="-64.3213" y="1623.85"/>
      <point x="-64.3213" y="1585.3" type="curve" smooth="yes"/>
      <point x="-64.3213" y="1573.83"/>
      <point x="-61.5988" y="1562.6"/>
      <point x="-58.233" y="1551.73" type="curve" smooth="yes"/>
      <point x="44.3652" y="1220.2"/>
      <point x="142.716" y="888.027"/>
      <point x="237.668" y="554.222" type="curve" smooth="yes"/>
      <point x="337.448" y="203.964" type="line" smooth="yes"/>
      <point x="356.294" y="138.196"/>
      <point x="372.102" y="68.2514"/>
      <point x="395.148" y="4.02468" type="curve" smooth="yes"/>
      <point x="405.835" y="-25.7615"/>
      <point x="421.021" y="-40.1823"/>
      <point x="454.092" y="-40.1823" type="curve" smooth="yes"/>
      <point x="754.049" y="-40.1823" type="line" smooth="yes"/>
      <point x="786.092" y="-40.1823"/>
      <point x="818.602" y="-31.6072"/>
      <point x="818.602" y="6.9905" type="curve" smooth="yes"/>
      <point x="818.602" y="18.1779"/>
      <point x="816.035" y="29.1528"/>
      <point x="812.827" y="39.7977" type="curve" smooth="yes"/>
      <point x="712.771" y="371.85"/>
      <point x="616.306" y="704.497"/>
      <point x="522.04" y="1038.24" type="curve" smooth="yes"/>
      <point x="489.061" y="1155.01"/>
      <point x="456.036" y="1271.76"/>
      <point x="422.544" y="1388.37" type="curve" smooth="yes"/>
      <point x="403.673" y="1454.08"/>
      <point x="387.759" y="1523.99"/>
      <point x="364.611" y="1588.13" type="curve" smooth="yes"/>
      <point x="353.894" y="1617.83"/>
      <point x="338.695" y="1632.2"/>
    </contour>
  </outline>
</glyph>
<glyph name="bracketright" format="2">
  <advance width="938"/>
  <unicode hex="005D"/>
  <outline>
    <contour>
      <point x="811.288" y="-269.538" type="curve" smooth="yes"/>
      <point x="811.288" y="-163.564"/>
      <point x="806.772" y="-57.1807"/>
      <point x="805.11" y="48.8287" type="curve" smooth="yes"/>
      <point x="801.616" y="271.7"/>
      <point x="799.866" y="494.599"/>
      <point x="799.866" y="717.498" type="curve" smooth="yes"/>
      <point x="799.866" y="915.342"/>
      <point x="801.245" y="1113.19"/>
      <point x="804.007" y="1311.01" type="curve" smooth="yes"/>
      <point x="805.321" y="1405.13"/>
      <point x="808.895" y="1499.51"/>
      <point x="808.895" y="1593.6" type="curve" smooth="yes"/>
      <point x="808.895" y="1635.74"/>
      <point x="790.388" y="1656.4"/>
      <point x="747.423" y="1656.4" type="curve" smooth="yes"/>
      <point x="137.108" y="1656.4" type="line" smooth="yes"/>
      <point x="93.8601" y="1656.4"/>
      <point x="75.6357" y="1635.69"/>
      <point x="75.6357" y="1593.4" type="curve" smooth="yes"/>
      <point x="75.6357" y="1540.66"/>
      <point x="78.0345" y="1487.67"/>
      <point x="79.0645" y="1434.92" type="curve" smooth="yes"/>
      <point x="79.8304" y="1395.69"/>
      <point x="78.3086" y="1355.08"/>
      <point x="81.196" y="1316.04" type="curve" smooth="yes"/>
      <point x="84.2036" y="1275.38"/>
      <point x="99.7399" y="1255.51"/>
      <point x="142.679" y="1255.51" type="curve" smooth="yes"/>
      <point x="337.516" y="1255.51" type="line" smooth="yes"/>
      <point x="350.906" y="1255.51"/>
      <point x="357.994" y="1248.55"/>
      <point x="357.994" y="1235.11" type="curve" smooth="yes"/>
      <point x="357.994" y="1062.47"/>
      <point x="359.048" y="889.818"/>
      <point x="359.048" y="717.169" type="curve" smooth="yes"/>
      <point x="359.048" y="508.655"/>
      <point x="357.514" y="300.14"/>
      <point x="357.514" y="91.6317" type="curve" smooth="yes"/>
      <point x="357.514" y="78.204"/>
      <point x="350.403" y="71.2554"/>
      <point x="337.036" y="71.2554" type="curve" smooth="yes"/>
      <point x="140.773" y="71.2554" type="line" smooth="yes"/>
      <point x="97.9734" y="71.2554"/>
      <point x="82.3942" y="51.4361"/>
      <point x="79.2933" y="10.8968" type="curve" smooth="yes"/>
      <point x="76.2767" y="-28.5402"/>
      <point x="77.6822" y="-69.5601"/>
      <point x="76.794" y="-109.198" type="curve" smooth="yes"/>
      <point x="75.6002" y="-162.472"/>
      <point x="72.8677" y="-216.054"/>
      <point x="72.8677" y="-269.312" type="curve" smooth="yes"/>
      <point x="72.8677" y="-311.736"/>
      <point x="90.8309" y="-332.49"/>
      <point x="134.335" y="-332.49" type="curve" smooth="yes"/>
      <point x="749.82" y="-332.49" type="line" smooth="yes"/>
      <point x="793.005" y="-332.49"/>
      <point x="811.288" y="-311.794"/>
    </contour>
  </outline>
</glyph>
<glyph name="asciicircum" format="2">
  <advance width="1176"/>
  <unicode hex="005E"/>
  <outline>
    <contour>
      <point x="912.313" y="1094.02" type="curve" smooth="yes"/>
      <point x="912.313" y="1113.7"/>
      <point x="891.371" y="1137.29"/>
      <point x="878.874" y="1150.77" type="curve" smooth="yes"/>
      <point x="796.167" y="1240.02"/>
      <point x="713.416" y="1329.85"/>
      <point x="628.42" y="1416.91" type="curve" smooth="yes"/>
      <point x="616.658" y="1428.96"/>
      <point x="601.875" y="1440.1"/>
      <point x="584.255" y="1440.1" type="curve" smooth="yes"/>
      <point x="566.523" y="1440.1"/>
      <point x="551.653" y="1428.8"/>
      <point x="539.926" y="1416.57" type="curve" smooth="yes"/>
      <point x="456.018" y="1329.13"/>
      <point x="373.948" y="1239.58"/>
      <point x="291.522" y="1150.72" type="curve" smooth="yes"/>
      <point x="279.019" y="1137.24"/>
      <point x="257.949" y="1113.58"/>
      <point x="257.949" y="1093.89" type="curve" smooth="yes"/>
      <point x="257.949" y="1064.19"/>
      <point x="309.447" y="1063.44"/>
      <point x="329.233" y="1063.44" type="curve" smooth="yes"/>
      <point x="449.09" y="1063.44" type="line" smooth="yes"/>
      <point x="469.192" y="1063.44"/>
      <point x="468.366" y="1045.61"/>
      <point x="487.06" y="1045.61" type="curve" smooth="yes"/>
      <point x="513.983" y="1045.61"/>
      <point x="538.814" y="1064.29"/>
      <point x="565.735" y="1064.29" type="curve" smooth="yes"/>
      <point x="571.955" y="1064.29"/>
      <point x="577.815" y="1061.4"/>
      <point x="583.991" y="1061.4" type="curve" smooth="yes"/>
      <point x="590.237" y="1061.4"/>
      <point x="596.117" y="1064.29"/>
      <point x="602.411" y="1064.29" type="curve" smooth="yes"/>
      <point x="629.946" y="1064.29"/>
      <point x="655.456" y="1045.61"/>
      <point x="682.994" y="1045.61" type="curve" smooth="yes"/>
      <point x="702" y="1045.61"/>
      <point x="700.945" y="1063.44"/>
      <point x="721.346" y="1063.44" type="curve" smooth="yes"/>
      <point x="841.027" y="1063.44" type="line" smooth="yes"/>
      <point x="860.893" y="1063.44"/>
      <point x="912.313" y="1064.24"/>
    </contour>
  </outline>
</glyph>
<glyph name="underscore" format="2">
  <advance width="997"/>
  <unicode hex="005F"/>
  <outline>
    <contour>
      <point x="110.311" y="62.6388" type="curve" smooth="yes"/>
      <point x="110.311" y="20.589"/>
      <point x="129.035" y="0"/>
      <point x="171.792" y="0" type="curve" smooth="yes"/>
      <point x="824.334" y="0" type="line" smooth="yes"/>
      <point x="867.083" y="0"/>
      <point x="885.815" y="20.5874"/>
      <point x="885.815" y="62.6327" type="curve" smooth="yes"/>
      <point x="885.815" y="142.553"/>
      <point x="885.483" y="223.884"/>
      <point x="882.321" y="303.712" type="curve" smooth="yes"/>
      <point x="880.702" y="344.577"/>
      <point x="862.79" y="364.562"/>
      <point x="820.833" y="364.562" type="curve" smooth="yes"/>
      <point x="175.311" y="364.562" type="line" smooth="yes"/>
      <point x="133.356" y="364.562"/>
      <point x="115.444" y="344.578"/>
      <point x="113.823" y="303.715" type="curve" smooth="yes"/>
      <point x="110.657" y="223.89"/>
      <point x="110.311" y="142.557"/>
    </contour>
  </outline>
</glyph>
<glyph name="grave" format="2">
  <advance width="801"/>
  <unicode hex="0060"/>
  <outline>
    <contour>
      <point x="473.205" y="1063.44" type="curve" smooth="yes"/>
      <point x="599.477" y="1063.44" type="line" smooth="yes"/>
      <point x="626.107" y="1063.44"/>
      <point x="672.566" y="1066.8"/>
      <point x="672.566" y="1103.1" type="curve" smooth="yes"/>
      <point x="672.566" y="1122.61"/>
      <point x="661.181" y="1141.94"/>
      <point x="651.227" y="1157.95" type="curve" smooth="yes"/>
      <point x="615.724" y="1215.03"/>
      <point x="579.662" y="1273.14"/>
      <point x="541.714" y="1328.59" type="curve" smooth="yes"/>
      <point x="528.849" y="1347.39"/>
      <point x="513.198" y="1356.73"/>
      <point x="490.1" y="1356.73" type="curve" smooth="yes"/>
      <point x="237.226" y="1356.73" type="line" smooth="yes"/>
      <point x="216.405" y="1356.73"/>
      <point x="130.606" y="1357.52"/>
      <point x="130.606" y="1323.03" type="curve" smooth="yes"/>
      <point x="130.606" y="1295.72"/>
      <point x="182.075" y="1258.83"/>
      <point x="201.418" y="1244.82" type="curve" smooth="yes"/>
      <point x="279.637" y="1188.18"/>
      <point x="357.482" y="1129.53"/>
      <point x="437.195" y="1075.1" type="curve" smooth="yes"/>
      <point x="448.053" y="1067.68"/>
      <point x="459.958" y="1063.44"/>
    </contour>
  </outline>
</glyph>
<glyph name="a" format="2">
  <advance width="1276"/>
  <unicode hex="0061"/>
  <anchor x="650" y="0" name="bottom"/>
  <anchor x="1438" y="22" name="ogonek"/>
  <anchor x="716" y="1082" name="top"/>
  <outline>
    <contour>
      <point x="469.802" y="-32.1435" type="curve" smooth="yes"/>
      <point x="573.026" y="-32.1435"/>
      <point x="661.303" y="-0.0246911"/>
      <point x="745.641" y="57.9737" type="curve" smooth="yes"/>
      <point x="751.55" y="62.0378"/>
      <point x="758.868" y="67.744"/>
      <point x="766.557" y="67.744" type="curve" smooth="yes"/>
      <point x="794.136" y="67.744"/>
      <point x="759.158" y="0"/>
      <point x="800.046" y="0" type="curve" smooth="yes"/>
      <point x="1135.74" y="0" type="line" smooth="yes"/>
      <point x="1179.19" y="0"/>
      <point x="1197.24" y="20.7598"/>
      <point x="1197.24" y="63.1671" type="curve" smooth="yes"/>
      <point x="1197.24" y="133.381"/>
      <point x="1193.92" y="203.928"/>
      <point x="1192.7" y="274.171" type="curve" smooth="yes"/>
      <point x="1190.13" y="421.887"/>
      <point x="1188.84" y="569.624"/>
      <point x="1188.84" y="717.362" type="curve" smooth="yes"/>
      <point x="1188.84" y="796.347"/>
      <point x="1189.95" y="875.335"/>
      <point x="1189.95" y="954.312" type="curve" smooth="yes"/>
      <point x="1189.95" y="995.877"/>
      <point x="1170.38" y="1016.48"/>
      <point x="1128.43" y="1016.48" type="curve" smooth="yes"/>
      <point x="806.672" y="1016.48" type="line" smooth="yes"/>
      <point x="768.146" y="1016.48"/>
      <point x="766.677" y="973.791"/>
      <point x="745.076" y="973.791" type="curve" smooth="yes"/>
      <point x="740.433" y="973.791"/>
      <point x="736.317" y="975.763"/>
      <point x="732.394" y="978.028" type="curve" smooth="yes"/>
      <point x="656.712" y="1021.73"/>
      <point x="582.018" y="1044.46"/>
      <point x="494.12" y="1044.46" type="curve" smooth="yes"/>
      <point x="176.891" y="1044.46"/>
      <point x="49.8103" y="782.182"/>
      <point x="49.8103" y="500.935" type="curve" smooth="yes"/>
      <point x="49.8103" y="237.919"/>
      <point x="168.487" y="-32.1435"/>
    </contour>
    <contour>
      <point x="621.226" y="340.573" type="curve" smooth="yes"/>
      <point x="526.459" y="340.573"/>
      <point x="471.794" y="433.944"/>
      <point x="471.794" y="519.654" type="curve" smooth="yes"/>
      <point x="471.794" y="606.277"/>
      <point x="522.127" y="718.996"/>
      <point x="623.274" y="718.996" type="curve" smooth="yes"/>
      <point x="676.178" y="718.996"/>
      <point x="733.624" y="701.739"/>
      <point x="773.489" y="666.107" type="curve"/>
      <point x="773.95" y="404.532" type="line"/>
      <point x="739.213" y="360.591"/>
      <point x="675.636" y="340.573"/>
    </contour>
  </outline>
</glyph>
<glyph name="b" format="2">
  <advance width="1278"/>
  <unicode hex="0062"/>
  <anchor x="633" y="0" name="bottom"/>
  <anchor x="633" y="1017" name="top"/>
  <outline>
    <contour>
      <point x="764.169" y="-32.1435" type="curve" smooth="yes"/>
      <point x="1057.94" y="-32.1435"/>
      <point x="1228.05" y="257.126"/>
      <point x="1228.05" y="522.827" type="curve" smooth="yes"/>
      <point x="1227.84" y="545.861" type="line" smooth="yes"/>
      <point x="1227.84" y="808.435"/>
      <point x="1098.6" y="1079.43"/>
      <point x="800.531" y="1079.43" type="curve" smooth="yes"/>
      <point x="708.618" y="1079.43"/>
      <point x="628.734" y="1052.76"/>
      <point x="554.141" y="999.678" type="curve" smooth="yes"/>
      <point x="547.638" y="995.05"/>
      <point x="538.309" y="987.446"/>
      <point x="529.632" y="987.446" type="curve" smooth="yes"/>
      <point x="516.619" y="987.446"/>
      <point x="516.876" y="1009.59"/>
      <point x="516.876" y="1016.88" type="curve" smooth="yes"/>
      <point x="516.876" y="1117.68"/>
      <point x="516.217" y="1218.49"/>
      <point x="515.691" y="1319.28" type="curve" smooth="yes"/>
      <point x="515.43" y="1369.32"/>
      <point x="517.49" y="1420.6"/>
      <point x="514.804" y="1470.49" type="curve" smooth="yes"/>
      <point x="512.594" y="1511.54"/>
      <point x="496.287" y="1531.49"/>
      <point x="453.382" y="1531.49" type="curve" smooth="yes"/>
      <point x="137.579" y="1531.49" type="line" smooth="yes"/>
      <point x="93.7826" y="1531.49"/>
      <point x="76.0915" y="1510.67"/>
      <point x="76.0915" y="1468.09" type="curve" smooth="yes"/>
      <point x="76.0915" y="1387.49"/>
      <point x="80.475" y="1306.39"/>
      <point x="82.0866" y="1225.75" type="curve" smooth="yes"/>
      <point x="85.4772" y="1056.1"/>
      <point x="87.1747" y="886.414"/>
      <point x="87.1747" y="716.727" type="curve" smooth="yes"/>
      <point x="87.1747" y="569.135"/>
      <point x="85.8905" y="421.543"/>
      <point x="83.3192" y="273.973" type="curve" smooth="yes"/>
      <point x="82.0965" y="203.799"/>
      <point x="78.77" y="133.32"/>
      <point x="78.77" y="63.1761" type="curve" smooth="yes"/>
      <point x="78.77" y="20.7628"/>
      <point x="96.8023" y="0"/>
      <point x="140.264" y="0" type="curve" smooth="yes"/>
      <point x="500.633" y="0" type="line" smooth="yes"/>
      <point x="531.98" y="0"/>
      <point x="506.148" y="51.9882"/>
      <point x="525.325" y="51.9882" type="curve" smooth="yes"/>
      <point x="531.277" y="51.9882"/>
      <point x="537.003" y="46.6084"/>
      <point x="541.26" y="43.3003" type="curve" smooth="yes"/>
      <point x="607.583" y="-8.23346"/>
      <point x="680.148" y="-32.1435"/>
    </contour>
    <contour>
      <point x="658.724" y="358.565" type="curve" smooth="yes"/>
      <point x="609.323" y="358.565"/>
      <point x="553.681" y="381.318"/>
      <point x="524.768" y="422.515" type="curve"/>
      <point x="525.117" y="684.069" type="line"/>
      <point x="559.42" y="716.927"/>
      <point x="611.159" y="736.958"/>
      <point x="658.634" y="736.958" type="curve" smooth="yes"/>
      <point x="754.947" y="736.958"/>
      <point x="794.38" y="614.8"/>
      <point x="794.38" y="536.776" type="curve" smooth="yes"/>
      <point x="794.38" y="458.717"/>
      <point x="749.172" y="358.565"/>
    </contour>
  </outline>
</glyph>
<glyph name="c" format="2">
  <advance width="883"/>
  <unicode hex="0063"/>
  <anchor x="423" y="0" name="bottom"/>
  <anchor x="431" y="1050" name="top"/>
  <outline>
    <contour>
      <point x="706.594" y="345.099" type="curve" smooth="yes"/>
      <point x="676.14" y="345.099"/>
      <point x="646.828" y="328.559"/>
      <point x="613.646" y="328.559" type="curve" smooth="yes"/>
      <point x="513.251" y="328.559"/>
      <point x="478.356" y="410.778"/>
      <point x="478.356" y="498.911" type="curve" smooth="yes"/>
      <point x="478.356" y="584.06"/>
      <point x="510.932" y="693"/>
      <point x="614.119" y="693" type="curve" smooth="yes"/>
      <point x="648.136" y="693"/>
      <point x="675.491" y="673.476"/>
      <point x="704.458" y="673.476" type="curve" smooth="yes"/>
      <point x="727.446" y="673.476"/>
      <point x="736.288" y="689.224"/>
      <point x="744.914" y="707.694" type="curve" smooth="yes"/>
      <point x="758.657" y="737.121"/>
      <point x="833.975" y="918.922"/>
      <point x="833.975" y="939.006" type="curve" smooth="yes"/>
      <point x="833.975" y="960.244"/>
      <point x="822.747" y="972.055"/>
      <point x="806.136" y="983.209" type="curve" smooth="yes"/>
      <point x="733.625" y="1031.9"/>
      <point x="638.485" y="1047.73"/>
      <point x="552.922" y="1047.73" type="curve" smooth="yes"/>
      <point x="210.031" y="1047.73"/>
      <point x="45.1873" y="806.475"/>
      <point x="45.1873" y="483.892" type="curve" smooth="yes"/>
      <point x="45.1873" y="183.224"/>
      <point x="187.017" y="-30.4088"/>
      <point x="507.515" y="-30.4088" type="curve" smooth="yes"/>
      <point x="592.264" y="-30.4088"/>
      <point x="707.953" y="-13.169"/>
      <point x="785.185" y="21.7492" type="curve" smooth="yes"/>
      <point x="806.421" y="31.3503"/>
      <point x="820.594" y="44.0887"/>
      <point x="820.594" y="68.9669" type="curve" smooth="yes"/>
      <point x="820.594" y="85.6435"/>
      <point x="761.152" y="276.222"/>
      <point x="751.247" y="304.305" type="curve" smooth="yes"/>
      <point x="743.237" y="327.018"/>
      <point x="733.682" y="345.099"/>
    </contour>
  </outline>
</glyph>
<glyph name="d" format="2">
  <advance width="1278"/>
  <unicode hex="0064"/>
  <anchor x="650" y="0" name="bottom"/>
  <anchor x="974" y="1403" name="center"/>
  <anchor x="650" y="1017" name="top"/>
  <anchor x="1286" y="1017" name="topright"/>
  <outline>
    <contour>
      <point x="455.751" y="-32.1435" type="curve" smooth="yes"/>
      <point x="557.926" y="-32.1435"/>
      <point x="646.171" y="-1.35814"/>
      <point x="729.785" y="56.164" type="curve" smooth="yes"/>
      <point x="735.513" y="60.1046"/>
      <point x="742.604" y="65.6752"/>
      <point x="750.064" y="65.6752" type="curve" smooth="yes"/>
      <point x="776.69" y="65.6752"/>
      <point x="742.779" y="0"/>
      <point x="782.419" y="0" type="curve" smooth="yes"/>
      <point x="1137.74" y="0" type="line" smooth="yes"/>
      <point x="1181.2" y="0"/>
      <point x="1199.23" y="20.7628"/>
      <point x="1199.23" y="63.1761" type="curve" smooth="yes"/>
      <point x="1199.23" y="133.32"/>
      <point x="1195.9" y="203.799"/>
      <point x="1194.68" y="273.973" type="curve" smooth="yes"/>
      <point x="1192.11" y="421.543"/>
      <point x="1190.83" y="569.135"/>
      <point x="1190.83" y="716.727" type="curve" smooth="yes"/>
      <point x="1190.83" y="886.414"/>
      <point x="1192.52" y="1056.1"/>
      <point x="1195.91" y="1225.75" type="curve" smooth="yes"/>
      <point x="1197.53" y="1306.39"/>
      <point x="1201.91" y="1387.49"/>
      <point x="1201.91" y="1468.09" type="curve" smooth="yes"/>
      <point x="1201.91" y="1510.67"/>
      <point x="1184.22" y="1531.49"/>
      <point x="1140.42" y="1531.49" type="curve" smooth="yes" name=".hr01"/>
      <point x="825.62" y="1531.49" type="line" smooth="yes"/>
      <point x="782.241" y="1531.49"/>
      <point x="766.944" y="1511.49"/>
      <point x="764.197" y="1470.49" type="curve" smooth="yes"/>
      <point x="760.635" y="1417.31"/>
      <point x="763.522" y="1361.73"/>
      <point x="763.246" y="1308.29" type="curve" smooth="yes"/>
      <point x="762.687" y="1200.17"/>
      <point x="762.027" y="1092.03"/>
      <point x="762.027" y="983.903" type="curve" smooth="yes"/>
      <point x="762.027" y="976.006"/>
      <point x="762.01" y="956.436"/>
      <point x="748.999" y="956.436" type="curve" smooth="yes"/>
      <point x="740.795" y="956.436"/>
      <point x="732.994" y="962.269"/>
      <point x="726.551" y="966.475" type="curve" smooth="yes"/>
      <point x="648.515" y="1017.42"/>
      <point x="567.278" y="1044.47"/>
      <point x="473.49" y="1044.47" type="curve" smooth="yes"/>
      <point x="162.968" y="1044.47"/>
      <point x="49.8095" y="768.295"/>
      <point x="49.8095" y="499.975" type="curve" smooth="yes"/>
      <point x="49.8095" y="245.918"/>
      <point x="159.791" y="-32.1435"/>
    </contour>
    <contour>
      <point x="625.187" y="340.573" type="curve" smooth="yes"/>
      <point x="535.357" y="340.573"/>
      <point x="490.46" y="441.415"/>
      <point x="490.46" y="518.687" type="curve" smooth="yes"/>
      <point x="490.46" y="595.946"/>
      <point x="529.56" y="718.996"/>
      <point x="625.256" y="718.996" type="curve" smooth="yes"/>
      <point x="673.3" y="718.996"/>
      <point x="724.741" y="698.969"/>
      <point x="759.761" y="666.107" type="curve"/>
      <point x="760.175" y="403.533" type="line"/>
      <point x="730.805" y="363.009"/>
      <point x="674.295" y="340.573"/>
    </contour>
  </outline>
</glyph>
